<svg width="100" height="100" viewBox="0 0 100 100" fill="none" xmlns="http://www.w3.org/2000/svg">
<mask id="mask0_1110_9935" style="mask-type:alpha" maskUnits="userSpaceOnUse" x="1" y="0" width="98" height="71">
<path d="M55.2195 54.9576L61.9351 58.7575V66.5867L55.2195 70.5056L48.5039 66.5867V58.7575L55.2195 54.9576ZM98.4375 24.6183V31.6229L92.4359 35.1253L89.2907 33.2891L87.5225 34.3177V36.2049L85.5078 37.361L83.9097 36.4259L83.5186 36.6554L81.9545 35.7373V37.684L76.412 40.9143L74.7118 39.9197V43.7451L72.7651 44.8757V45.7853L69.8239 47.4684L69.0673 47.0264L66.7551 48.378L64.3493 46.9754V50.6562L58.8153 53.8865L54.4034 51.3108L51.3006 53.1214L49.8895 52.2969L46.3362 54.3711L40.7936 51.1408V49.9336L34.4181 46.2188V43.2605L33.976 43.0055L30.4312 45.0712L30.1507 44.9097L25.3732 47.6979L19.8392 44.4676V44.0596L18.0965 45.0797L18.003 45.0287L14.6452 46.9499L10.7519 44.6802V40.7953L10.1483 40.4383V35.4993L9.51074 35.8733L1.5625 31.2404V21.9745L8.67766 17.9452V17.0526L13.8291 14.1283V8.39878L19.7457 5.04947L25.6622 8.39878V8.89183L27.6599 7.76122L28.2295 8.08425L34.7241 4.40341L40.0796 7.4382L44.296 5.04947L45.9026 5.95906L53.9784 1.29212L63.2697 6.65612V10.8215L63.8053 10.5155V3.89336L70.6739 0L77.5426 3.89336V11.1105L80.7049 12.9042V13.3292L85.7118 16.1685V19.5008L90.5913 22.2636L92.4275 21.218L98.4375 24.6183ZM57.6082 21.422V20.6654L56.9451 21.048L57.6082 21.422ZM17.2975 46.8479V49.0836L19.2441 50.2227L21.2248 49.0836V46.8479L19.2441 45.7088L17.2975 46.8479ZM7.57256 48.4035V51.7273L10.4628 53.4105L13.4041 51.7273V48.4035L10.4628 46.7204L7.57256 48.4035ZM45.2736 56.4793V57.8734L46.4892 58.579L47.7218 57.8734V56.4793L46.4892 55.7737L45.2736 56.4793Z" fill="#FAB910"/>
</mask>
<g mask="url(#mask0_1110_9935)">
<path d="M6.67202 18.3621H0.00740242L-3.2229 12.8621L0.00740242 7.36206H6.67202L10.0043 12.8621L6.67202 18.3621Z" fill="#FAB910"/>
<path d="M6.19545 8.21238L9.0092 12.8623L6.19545 17.5122H0.499913L-2.23734 12.8623L0.499913 8.21238H6.19545ZM6.67149 7.3623H0.0068717L-3.23193 12.8623L0.0068717 18.3623H6.67149L10.0038 12.8623L6.67149 7.3623Z" fill="#FAB910"/>
<path d="M6.67177 30.5948H0.00715852L-3.22314 25.1033L0.00715852 19.6033H6.67177L10.0041 25.1033L6.67177 30.5948Z" fill="#FAB910"/>
<path d="M6.19545 20.4534L9.0092 25.1033L6.19545 29.7532H0.499913L-2.23734 25.1033L0.499913 20.4534H6.19545ZM6.67149 19.6033H0.0068717L-3.23193 25.1033L0.0068717 30.6033H6.67149L10.0038 25.1033L6.67149 19.6033Z" fill="#FAB910"/>
<path d="M6.67177 42.8352H0.00715852L-3.22314 37.3352L0.00715852 31.8352H6.67177L10.0041 37.3352L6.67177 42.8352Z" fill="#FAB910"/>
<path d="M6.19545 32.6853L9.0092 37.3352L6.19545 41.9851H0.499913L-2.23734 37.3352L0.499913 32.6853H6.19545ZM6.67149 31.8352H0.0068717L-3.23193 37.3352L0.0068717 42.8352H6.67149L10.0038 37.3352L6.67149 31.8352Z" fill="#FAB910"/>
<path d="M6.67177 55.0681H0.00715852L-3.22314 49.5681L0.00715852 44.0681H6.67177L10.0041 49.5681L6.67177 55.0681Z" fill="#FAB910"/>
<path d="M6.19545 44.9182L9.0092 49.5681L6.19545 54.2181H0.499913L-2.23734 49.5681L0.499913 44.9182H6.19545ZM6.67149 44.0681H0.0068717L-3.23193 49.5681L0.0068717 55.0681H6.67149L10.0038 49.5681L6.67149 44.0681Z" fill="#FAB910"/>
<path d="M17.4679 12.1135H10.8033L7.573 6.61354L10.8033 1.11353H17.4679L20.8002 6.61354L17.4679 12.1135Z" fill="#FAB910"/>
<path d="M16.9913 1.96409L19.8051 6.61403L16.9913 11.264H11.2958L8.55856 6.61403L11.2958 1.96409H16.9913ZM17.4674 1.11401H10.8028L7.56396 6.61403L10.8028 12.114H17.4674L20.7997 6.61403L17.4674 1.11401Z" fill="#FAB910"/>
<path d="M17.4682 24.3465H10.8035L7.57324 18.8464L10.8035 13.3464H17.4682L20.8005 18.8464L17.4682 24.3465Z" fill="#FAB910"/>
<path d="M16.9913 14.1968L19.8051 18.8467L16.9913 23.4966H11.2958L8.55856 18.8467L11.2958 14.1968H16.9913ZM17.4674 13.3467H10.8028L7.56396 18.8467L10.8028 24.3467H17.4674L20.7997 18.8467L17.4674 13.3467Z" fill="#FAB910"/>
<path d="M17.4682 36.5877H10.8035L7.57324 31.0877L10.8035 25.5876H17.4682L20.8005 31.0877L17.4682 36.5877Z" fill="#FAB910"/>
<path d="M16.9913 26.4377L19.8051 31.0877L16.9913 35.7376H11.2958L8.55856 31.0877L11.2958 26.4377H16.9913ZM17.4674 25.5876H10.8028L7.56396 31.0877L10.8028 36.5877H17.4674L20.7997 31.0877L17.4674 25.5876Z" fill="#FAB910"/>
<path d="M17.4682 48.8206H10.8035L7.57324 43.3206L10.8035 37.8206H17.4682L20.8005 43.3206L17.4682 48.8206Z" fill="#FAB910"/>
<path d="M16.9913 38.6706L19.8051 43.3206L16.9913 47.9705H11.2958L8.55856 43.3206L11.2958 38.6706H16.9913ZM17.4674 37.8206H10.8028L7.56396 43.3206L10.8028 48.8206H17.4674L20.7997 43.3206L17.4674 37.8206Z" fill="#FAB910"/>
<path d="M17.4677 61.0525H10.8031L7.57275 55.5525L10.8031 50.0525H17.4677L20.8 55.5525L17.4677 61.0525Z" fill="#FAB910"/>
<path d="M16.9913 50.9026L19.8051 55.5525L16.9913 60.2024H11.2958L8.55856 55.5525L11.2958 50.9026H16.9913ZM17.4674 50.0525H10.8028L7.56396 55.5525L10.8028 61.0525H17.4674L20.7997 55.5525L17.4674 50.0525Z" fill="#FAB910"/>
<path d="M28.2125 6.12942H21.5479L18.3091 0.629406L21.5479 -4.87061H28.2125L31.5448 0.629406L28.2125 6.12942Z" fill="#FAB910"/>
<path d="M27.728 -4.02053L30.5417 0.629406L27.728 5.27934H22.0324L19.2952 0.629406L22.0324 -4.02053H27.728ZM28.2125 -4.87061H21.5479L18.3091 0.629406L21.5479 6.12942H28.2125L31.5448 0.629406L28.2125 -4.87061Z" fill="#FAB910"/>
<path d="M28.2125 18.3623H21.5479L18.3091 12.8623L21.5479 7.3623H28.2125L31.5448 12.8623L28.2125 18.3623Z" fill="#FAB910"/>
<path d="M27.728 8.21238L30.5417 12.8623L27.728 17.5122H22.0324L19.2952 12.8623L22.0324 8.21238H27.728ZM28.2125 7.3623H21.5479L18.3091 12.8623L21.5479 18.3623H28.2125L31.5448 12.8623L28.2125 7.3623Z" fill="#FAB910"/>
<path d="M28.2125 30.5948H21.5479L18.3091 25.1033L21.5479 19.6033H28.2125L31.5448 25.1033L28.2125 30.5948Z" fill="#FAB910"/>
<path d="M27.728 20.4534L30.5417 25.1033L27.728 29.7532H22.0324L19.2952 25.1033L22.0324 20.4534H27.728ZM28.2125 19.6033H21.5479L18.3091 25.1033L21.5479 30.6033H28.2125L31.5448 25.1033L28.2125 19.6033Z" fill="#FAB910"/>
<path d="M28.2125 42.8352H21.5479L18.3091 37.3352L21.5479 31.8352H28.2125L31.5448 37.3352L28.2125 42.8352Z" fill="#FAB910"/>
<path d="M27.728 32.6853L30.5417 37.3352L27.728 41.9851H22.0324L19.2952 37.3352L22.0324 32.6853H27.728ZM28.2125 31.8352H21.5479L18.3091 37.3352L21.5479 42.8352H28.2125L31.5448 37.3352L28.2125 31.8352Z" fill="#FAB910"/>
<path d="M28.2125 55.0681H21.5479L18.3091 49.5681L21.5479 44.0681H28.2125L31.5448 49.5681L28.2125 55.0681Z" fill="#FAB910"/>
<path d="M27.728 44.9182L30.5417 49.5681L27.728 54.2181H22.0324L19.2952 49.5681L22.0324 44.9182H27.728ZM28.2125 44.0681H21.5479L18.3091 49.5681L21.5479 55.0681H28.2125L31.5448 49.5681L28.2125 44.0681Z" fill="#FAB910"/>
<path d="M39.0084 12.114H32.3438L29.105 6.61403L32.3438 1.11401H39.0084L42.3407 6.61403L39.0084 12.114Z" fill="#FAB910"/>
<path d="M38.5239 1.96409L41.3376 6.61403L38.5239 11.264H32.8283L30.0911 6.61403L32.8283 1.96409H38.5239ZM39.0084 1.11401H32.3438L29.105 6.61403L32.3438 12.114H39.0084L42.3407 6.61403L39.0084 1.11401Z" fill="#FAB910"/>
<path d="M39.0084 24.3467H32.3438L29.105 18.8467L32.3438 13.3467H39.0084L42.3407 18.8467L39.0084 24.3467Z" fill="#FAB910"/>
<path d="M38.5239 14.1968L41.3376 18.8467L38.5239 23.4966H32.8283L30.0911 18.8467L32.8283 14.1968H38.5239ZM39.0084 13.3467H32.3438L29.105 18.8467L32.3438 24.3467H39.0084L42.3407 18.8467L39.0084 13.3467Z" fill="#FAB910"/>
<path d="M39.0084 36.5877H32.3438L29.105 31.0877L32.3438 25.5876H39.0084L42.3407 31.0877L39.0084 36.5877Z" fill="#FAB910"/>
<path d="M38.5239 26.4377L41.3376 31.0877L38.5239 35.7376H32.8283L30.0911 31.0877L32.8283 26.4377H38.5239ZM39.0084 25.5876H32.3438L29.105 31.0877L32.3438 36.5877H39.0084L42.3407 31.0877L39.0084 25.5876Z" fill="#FAB910"/>
<path d="M39.0084 48.8206H32.3438L29.105 43.3206L32.3438 37.8206H39.0084L42.3407 43.3206L39.0084 48.8206Z" fill="#FAB910"/>
<path d="M38.5239 38.6706L41.3376 43.3206L38.5239 47.9705H32.8283L30.0911 43.3206L32.8283 38.6706H38.5239ZM39.0084 37.8206H32.3438L29.105 43.3206L32.3438 48.8206H39.0084L42.3407 43.3206L39.0084 37.8206Z" fill="#FAB910"/>
<path d="M39.0084 61.0525H32.3438L29.105 55.5525L32.3438 50.0525H39.0084L42.3407 55.5525L39.0084 61.0525Z" fill="#FAB910"/>
<path d="M38.5239 50.9026L41.3376 55.5525L38.5239 60.2024H32.8283L30.0911 55.5525L32.8283 50.9026H38.5239ZM39.0084 50.0525H32.3438L29.105 55.5525L32.3438 61.0525H39.0084L42.3407 55.5525L39.0084 50.0525Z" fill="#FAB910"/>
<path d="M49.745 6.12942H43.0804L39.8416 0.629406L43.0804 -4.87061H49.745L53.0773 0.629406L49.745 6.12942Z" fill="#FAB910"/>
<path d="M49.2689 -4.02053L52.0827 0.629406L49.2689 5.27934H43.5734L40.8276 0.629406L43.5649 -4.02053H49.2689ZM49.745 -4.87061H43.0804L39.8416 0.629406L43.0804 6.12942H49.745L53.0773 0.629406L49.745 -4.87061Z" fill="#FAB910"/>
<path d="M49.745 18.3623H43.0804L39.8416 12.8623L43.0804 7.3623H49.745L53.0773 12.8623L49.745 18.3623Z" fill="#FAB910"/>
<path d="M49.2689 8.21238L52.0827 12.8623L49.2689 17.5122H43.5734L40.8361 12.8623L43.5734 8.21238H49.2689ZM49.745 7.3623H43.0804L39.8416 12.8623L43.0804 18.3623H49.745L53.0773 12.8623L49.745 7.3623Z" fill="#FAB910"/>
<path d="M49.745 30.5948H43.0804L39.8416 25.1033L43.0804 19.6033H49.745L53.0773 25.1033L49.745 30.5948Z" fill="#FAB910"/>
<path d="M49.2689 20.4534L52.0827 25.1033L49.2689 29.7532H43.5734L40.8361 25.1033L43.5734 20.4534H49.2689ZM49.745 19.6033H43.0804L39.8416 25.1033L43.0804 30.6033H49.745L53.0773 25.1033L49.745 19.6033Z" fill="#FAB910"/>
<path d="M49.745 42.8352H43.0804L39.8416 37.3352L43.0804 31.8352H49.745L53.0773 37.3352L49.745 42.8352Z" fill="#FAB910"/>
<path d="M49.2689 32.6853L52.0827 37.3352L49.2689 41.9851H43.5734L40.8361 37.3352L43.5734 32.6853H49.2689ZM49.745 31.8352H43.0804L39.8416 37.3352L43.0804 42.8352H49.745L53.0773 37.3352L49.745 31.8352Z" fill="#FAB910"/>
<path d="M49.745 55.0681H43.0804L39.8416 49.5681L43.0804 44.0681H49.745L53.0773 49.5681L49.745 55.0681Z" fill="#FAB910"/>
<path d="M49.2689 44.9182L52.0827 49.5681L49.2689 54.2181H43.5734L40.8361 49.5681L43.5734 44.9182H49.2689ZM49.745 44.0681H43.0804L39.8416 49.5681L43.0804 55.0681H49.745L53.0773 49.5681L49.745 44.0681Z" fill="#FAB910"/>
<path d="M49.745 67.3008H43.0804L39.8416 61.8008L43.0804 56.3008H49.745L53.0773 61.8008L49.745 67.3008Z" fill="#FAB910"/>
<path d="M49.2689 57.1509L52.0827 61.8008L49.2689 66.4507H43.5734L40.8361 61.8008L43.5734 57.1509H49.2689ZM49.745 56.3008H43.0804L39.8416 61.8008L43.0804 67.3008H49.745L53.0773 61.8008L49.745 56.3008Z" fill="#FAB910"/>
<path d="M49.745 79.5425H43.0804L39.8416 74.0425L43.0804 68.5425H49.745L53.0773 74.0425L49.745 79.5425Z" fill="#FAB910"/>
<path d="M49.2689 69.3926L52.0827 74.0425L49.2689 78.6924H43.5734L40.8361 74.0425L43.5734 69.3926H49.2689ZM49.745 68.5425H43.0804L39.8416 74.0425L43.0804 79.5425H49.745L53.0773 74.0425L49.745 68.5425Z" fill="#FAB910"/>
<path d="M60.5409 12.114H53.8763L50.6375 6.61403L53.8763 1.11401H60.5409L63.8732 6.61403L60.5409 12.114Z" fill="#FAB910"/>
<path d="M60.0648 1.96409L62.8786 6.61403L60.0648 11.264H54.3693L51.632 6.61403L54.3693 1.96409H60.0648ZM60.5409 1.11401H53.8763L50.6375 6.61403L53.8763 12.114H60.5409L63.8732 6.61403L60.5409 1.11401Z" fill="#FAB910"/>
<path d="M60.5409 24.3467H53.8763L50.6375 18.8467L53.8763 13.3467H60.5409L63.8732 18.8467L60.5409 24.3467Z" fill="#FAB910"/>
<path d="M60.0648 14.1968L62.8786 18.8467L60.0648 23.4966H54.3693L51.632 18.8467L54.3693 14.1968H60.0648ZM60.5409 13.3467H53.8763L50.6375 18.8467L53.8763 24.3467H60.5409L63.8732 18.8467L60.5409 13.3467Z" fill="#FAB910"/>
<path d="M60.5409 36.5877H53.8763L50.6375 31.0877L53.8763 25.5876H60.5409L63.8732 31.0877L60.5409 36.5877Z" fill="#FAB910"/>
<path d="M60.0648 26.4377L62.8786 31.0877L60.0648 35.7376H54.3693L51.632 31.0877L54.3693 26.4377H60.0648ZM60.5409 25.5876H53.8763L50.6375 31.0877L53.8763 36.5877H60.5409L63.8732 31.0877L60.5409 25.5876Z" fill="#FAB910"/>
<path d="M60.5409 48.8206H53.8763L50.6375 43.3206L53.8763 37.8206H60.5409L63.8732 43.3206L60.5409 48.8206Z" fill="#FAB910"/>
<path d="M60.0648 38.6706L62.8786 43.3206L60.0648 47.9705H54.3693L51.632 43.3206L54.3693 38.6706H60.0648ZM60.5409 37.8206H53.8763L50.6375 43.3206L53.8763 48.8206H60.5409L63.8732 43.3206L60.5409 37.8206Z" fill="#FAB910"/>
<path d="M60.5409 61.0525H53.8763L50.6375 55.5525L53.8763 50.0525H60.5409L63.8732 55.5525L60.5409 61.0525Z" fill="#FAB910"/>
<path d="M60.0648 50.9026L62.8786 55.5525L60.0648 60.2024H54.3693L51.632 55.5525L54.3693 50.9026H60.0648ZM60.5409 50.0525H53.8763L50.6375 55.5525L53.8763 61.0525H60.5409L63.8732 55.5525L60.5409 50.0525Z" fill="#FAB910"/>
<path d="M60.5409 73.285H53.8763L50.6375 67.7935L53.8763 62.2935H60.5409L63.8732 67.7935L60.5409 73.285Z" fill="#FAB910"/>
<path d="M60.0648 63.1435L62.8786 67.7935L60.0648 72.4434H54.3693L51.632 67.7935L54.3693 63.1435H60.0648ZM60.5409 62.2935H53.8763L50.6375 67.785L53.8763 73.285H60.5409L63.8732 67.785L60.5409 62.2935Z" fill="#FAB910"/>
<path d="M71.2775 6.12942H64.6214L61.3826 0.629406L64.6214 -4.87061H71.2775L74.6098 0.629406L71.2775 6.12942Z" fill="#FAB910"/>
<path d="M70.8014 -4.02053L73.6152 0.629406L70.8014 5.27934H65.1059L62.3687 0.629406L65.1059 -4.02053H70.8014ZM71.2775 -4.87061H64.6129L61.3826 0.629406L64.6214 6.12942H71.286L74.6098 0.629406L71.2775 -4.87061Z" fill="#FAB910"/>
<path d="M71.278 18.3621H64.6219L61.3831 12.8621L64.6219 7.36206H71.278L74.6103 12.8621L71.278 18.3621Z" fill="#FAB910"/>
<path d="M70.8014 8.21238L73.6152 12.8623L70.8014 17.5122H65.1059L62.3686 12.8623L65.1059 8.21238H70.8014ZM71.2774 7.3623H64.6128L61.374 12.8623L64.6128 18.3623H71.2774L74.6097 12.8623L71.2774 7.3623Z" fill="#FAB910"/>
<path d="M71.278 30.5948H64.6219L61.3831 25.1033L64.6219 19.6033H71.278L74.6103 25.1033L71.278 30.5948Z" fill="#FAB910"/>
<path d="M70.8014 20.4534L73.6152 25.1033L70.8014 29.7532H65.1059L62.3686 25.1033L65.1059 20.4534H70.8014ZM71.2774 19.6033H64.6128L61.374 25.1033L64.6128 30.6033H71.2774L74.6097 25.1033L71.2774 19.6033Z" fill="#FAB910"/>
<path d="M71.2777 42.8352H64.6216L61.3828 37.3352L64.6216 31.8352H71.2777L74.61 37.3352L71.2777 42.8352Z" fill="#FAB910"/>
<path d="M70.8014 32.6853L73.6152 37.3352L70.8014 41.9851H65.1059L62.3686 37.3352L65.1059 32.6853H70.8014ZM71.2774 31.8352H64.6128L61.374 37.3352L64.6128 42.8352H71.2774L74.6097 37.3352L71.2774 31.8352Z" fill="#FAB910"/>
<path d="M71.2777 55.0681H64.6216L61.3828 49.5681L64.6216 44.0681H71.2777L74.61 49.5681L71.2777 55.0681Z" fill="#FAB910"/>
<path d="M70.8014 44.9182L73.6152 49.5681L70.8014 54.2181H65.1059L62.3686 49.5681L65.1059 44.9182H70.8014ZM71.2774 44.0681H64.6128L61.374 49.5681L64.6128 55.0681H71.2774L74.6097 49.5681L71.2774 44.0681Z" fill="#FAB910"/>
<path d="M71.2777 67.3006H64.6216L61.3828 61.8006L64.6216 56.3005H71.2777L74.61 61.8006L71.2777 67.3006Z" fill="#FAB910"/>
<path d="M70.8014 57.1509L73.6152 61.8008L70.8014 66.4507H65.1059L62.3686 61.8008L65.1059 57.1509H70.8014ZM71.2774 56.3008H64.6128L61.374 61.8008L64.6128 67.3008H71.2774L74.6097 61.8008L71.2774 56.3008Z" fill="#FAB910"/>
<path d="M82.0819 12.114H75.4173L72.1785 6.61403L75.4173 1.11401H82.0819L85.4142 6.61403L82.0819 12.114Z" fill="#FAB910"/>
<path d="M81.5973 1.96409L84.4111 6.61403L81.5973 11.264H75.9018L73.1646 6.61403L75.9018 1.96409H81.5973ZM82.0819 1.11401H75.4173L72.1785 6.61403L75.4173 12.114H82.0819L85.4142 6.61403L82.0819 1.11401Z" fill="#FAB910"/>
<path d="M82.0819 24.3467H75.4173L72.1785 18.8467L75.4173 13.3467H82.0819L85.4142 18.8467L82.0819 24.3467Z" fill="#FAB910"/>
<path d="M81.5973 14.1968L84.4111 18.8467L81.5973 23.4966H75.9018L73.1646 18.8467L75.9018 14.1968H81.5973ZM82.0819 13.3467H75.4173L72.1785 18.8467L75.4173 24.3467H82.0819L85.4142 18.8467L82.0819 13.3467Z" fill="#FAB910"/>
<path d="M82.0819 36.5877H75.4173L72.1785 31.0877L75.4173 25.5876H82.0819L85.4142 31.0877L82.0819 36.5877Z" fill="#FAB910"/>
<path d="M81.5973 26.4377L84.4111 31.0877L81.5973 35.7376H75.9018L73.1646 31.0877L75.9018 26.4377H81.5973ZM82.0819 25.5876H75.4173L72.1785 31.0877L75.4173 36.5877H82.0819L85.4142 31.0877L82.0819 25.5876Z" fill="#FAB910"/>
<path d="M82.0819 48.8206H75.4173L72.1785 43.3206L75.4173 37.8206H82.0819L85.4142 43.3206L82.0819 48.8206Z" fill="#FAB910"/>
<path d="M81.5973 38.6706L84.4111 43.3206L81.5973 47.9705H75.9018L73.1646 43.3206L75.9018 38.6706H81.5973ZM82.0819 37.8206H75.4173L72.1785 43.3206L75.4173 48.8206H82.0819L85.4142 43.3206L82.0819 37.8206Z" fill="#FAB910"/>
<path d="M92.8185 18.3623H86.1538L82.915 12.8623L86.1538 7.3623H92.8185L96.1508 12.8623L92.8185 18.3623Z" fill="#FAB910"/>
<path d="M92.3339 8.21238L95.1477 12.8623L92.3339 17.5122H86.6384L83.9011 12.8623L86.6384 8.21238H92.3339ZM92.8185 7.3623H86.1538L82.915 12.8623L86.1538 18.3623H92.8185L96.1508 12.8623L92.8185 7.3623Z" fill="#FAB910"/>
<path d="M92.8185 30.5948H86.1538L82.915 25.1033L86.1538 19.6033H92.8185L96.1508 25.1033L92.8185 30.5948Z" fill="#FAB910"/>
<path d="M92.3339 20.4534L95.1477 25.1033L92.3339 29.7532H86.6384L83.9011 25.1033L86.6384 20.4534H92.3339ZM92.8185 19.6033H86.1538L82.915 25.1033L86.1538 30.6033H92.8185L96.1508 25.1033L92.8185 19.6033Z" fill="#FAB910"/>
<path d="M92.8185 42.8352H86.1538L82.915 37.3352L86.1538 31.8352H92.8185L96.1508 37.3352L92.8185 42.8352Z" fill="#FAB910"/>
<path d="M92.3339 32.6853L95.1477 37.3352L92.3339 41.9851H86.6384L83.9011 37.3352L86.6384 32.6853H92.3339ZM92.8185 31.8352H86.1538L82.915 37.3352L86.1538 42.8352H92.8185L96.1508 37.3352L92.8185 31.8352Z" fill="#FAB910"/>
<path d="M103.614 24.3467H96.9497L93.7109 18.8467L96.9497 13.3467H103.614L106.947 18.8467L103.614 24.3467Z" fill="#FAB910"/>
<path d="M103.138 14.1968L105.952 18.8467L103.138 23.4966H97.4428L94.7055 18.8467L97.4428 14.1968H103.138ZM103.614 13.3467H96.9497L93.7109 18.8467L96.9497 24.3467H103.614L106.947 18.8467L103.614 13.3467Z" fill="#FAB910"/>
<path d="M103.614 36.5877H96.9497L93.7109 31.0877L96.9497 25.5876H103.614L106.947 31.0877L103.614 36.5877Z" fill="#FAB910"/>
<path d="M103.138 26.4377L105.952 31.0877L103.138 35.7376H97.4428L94.7055 31.0877L97.4428 26.4377H103.138ZM103.614 25.5876H96.9497L93.7109 31.0877L96.9497 36.5877H103.614L106.947 31.0877L103.614 25.5876Z" fill="#FAB910"/>
</g>
<path opacity="0.39" d="M55.2195 54.9576L61.9351 58.7575V66.5867L55.2195 70.5056L48.5039 66.5867V58.7575L55.2195 54.9576ZM98.4375 24.6183V31.6229L92.4359 35.1253L89.2907 33.2891L87.5225 34.3177V36.2049L85.5078 37.361L83.9097 36.4259L83.5186 36.6554L81.9545 35.7373V37.684L76.412 40.9143L74.7118 39.9197V43.7451L72.7651 44.8757V45.7853L69.8239 47.4684L69.0673 47.0264L66.7551 48.378L64.3493 46.9754V50.6562L58.8153 53.8865L54.4034 51.3108L51.3006 53.1214L49.8895 52.2969L46.3362 54.3711L40.7936 51.1408V49.9336L34.4181 46.2188V43.2605L33.976 43.0055L30.4312 45.0712L30.1507 44.9097L25.3732 47.6979L19.8392 44.4676V44.0596L18.0965 45.0797L18.003 45.0287L14.6452 46.9499L10.7519 44.6802V40.7953L10.1483 40.4383V35.4993L9.51074 35.8733L1.5625 31.2404V21.9745L8.67766 17.9452V17.0526L13.8291 14.1283V8.39878L19.7457 5.04947L25.6622 8.39878V8.89183L27.6599 7.76122L28.2295 8.08425L34.7241 4.40341L40.0796 7.4382L44.296 5.04947L45.9026 5.95906L53.9784 1.29212L63.2697 6.65612V10.8215L63.8053 10.5155V3.89336L70.6739 0L77.5426 3.89336V11.1105L80.7049 12.9042V13.3292L85.7118 16.1685V19.5008L90.5913 22.2636L92.4275 21.218L98.4375 24.6183ZM57.6082 21.422V20.6654L56.9451 21.048L57.6082 21.422ZM17.2975 46.8479V49.0836L19.2441 50.2227L21.2248 49.0836V46.8479L19.2441 45.7088L17.2975 46.8479ZM7.57256 48.4035V51.7273L10.4628 53.4105L13.4041 51.7273V48.4035L10.4628 46.7204L7.57256 48.4035ZM45.2736 56.4793V57.8734L46.4892 58.579L47.7218 57.8734V56.4793L46.4892 55.7737L45.2736 56.4793Z" fill="url(#paint0_linear_1110_9935)"/>
<defs>
<linearGradient id="paint0_linear_1110_9935" x1="-28.2119" y1="34.8099" x2="110.328" y2="34.8099" gradientUnits="userSpaceOnUse">
<stop offset="0.00520833" stop-color="#FCCE0B" stop-opacity="0"/>
<stop offset="0.338542" stop-color="#F8A513" stop-opacity="0.4078"/>
<stop offset="0.575553" stop-color="#F58419" stop-opacity="0.7899"/>
<stop offset="0.890625" stop-color="#F4781B"/>
</linearGradient>
</defs>
</svg>
