<svg width="64" height="64" viewBox="0 0 64 64" fill="none" xmlns="http://www.w3.org/2000/svg">
<mask id="mask0_1106_1399" style="mask-type:alpha" maskUnits="userSpaceOnUse" x="1" y="0" width="62" height="46">
<path d="M35.3405 35.1729L39.6385 37.6048V42.6155L35.3405 45.1236L31.0425 42.6155V37.6048L35.3405 35.1729ZM63 15.7557V20.2387L59.159 22.4802L57.146 21.305L56.0144 21.9633V23.1711L54.725 23.911L53.7022 23.3126L53.4519 23.4595L52.4509 22.8719V24.1178L48.9037 26.1852L47.8156 25.5486V27.9968L46.5697 28.7204V29.3026L44.6873 30.3798L44.2031 30.0969L42.7232 30.9619L41.1836 30.0642V32.42L37.6418 34.4874L34.8182 32.8389L32.8324 33.9977L31.9293 33.47L29.6551 34.7975L26.1079 32.7301V31.9575L22.0276 29.58V27.6867L21.7446 27.5235L19.476 28.8456L19.2964 28.7422L16.2389 30.5267L12.6971 28.4593V28.1981L11.5818 28.851L11.5219 28.8184L9.37294 30.0479L6.88119 28.5953V26.109L6.49491 25.8805V22.7196L6.08688 22.9589L1 19.9939V14.0637L5.5537 11.4849V10.9137L8.85065 9.04212V5.37522L12.6372 3.23166L16.4238 5.37522V5.69077L17.7024 4.96718L18.0669 5.17392L22.2234 2.81818L25.6509 4.76044L28.3494 3.23166L29.3777 3.8138L34.5462 0.826957L40.4926 4.25991V6.92576L40.8354 6.72991V2.49175L45.2313 0L49.6272 2.49175V7.11074L51.6511 8.25869V8.53071L54.8556 10.3478V12.4805L57.9784 14.2487L59.1536 13.5795L63 15.7557ZM36.8693 13.7101V13.2259L36.4449 13.4707L36.8693 13.7101ZM11.0704 29.9826V31.4135L12.3163 32.1425L13.5839 31.4135V29.9826L12.3163 29.2536L11.0704 29.9826ZM4.84644 30.9782V33.1055L6.69621 34.1827L8.57862 33.1055V30.9782L6.69621 29.901L4.84644 30.9782ZM28.9751 36.1467V37.039L29.7531 37.4905L30.542 37.039V36.1467L29.7531 35.6952L28.9751 36.1467Z" fill="#FAB910"/>
</mask>
<g mask="url(#mask0_1106_1399)">
<path d="M4.27016 11.7519H0.00480223L-2.06259 8.23192L0.00480223 4.71191H4.27016L6.40283 8.23192L4.27016 11.7519Z" fill="#FAB910"/>
<path d="M3.96508 5.25596L5.76589 8.23192L3.96508 11.2079H0.319942L-1.4319 8.23192L0.319942 5.25596H3.96508ZM4.26975 4.71191H0.00439596L-2.06844 8.23192L0.00439596 11.7519H4.26975L6.40243 8.23192L4.26975 4.71191Z" fill="#FAB910"/>
<path d="M4.27004 19.5805H0.00468779L-2.06271 16.0659L0.00468779 12.5459H4.27004L6.40272 16.0659L4.27004 19.5805Z" fill="#FAB910"/>
<path d="M3.96508 13.0899L5.76589 16.0659L3.96508 19.0419H0.319942L-1.4319 16.0659L0.319942 13.0899H3.96508ZM4.26975 12.5459H0.00439596L-2.06844 16.0659L0.00439596 19.5859H4.26975L6.40243 16.0659L4.26975 12.5459Z" fill="#FAB910"/>
<path d="M4.26993 27.4145H0.00457335L-2.06282 23.8945L0.00457335 20.3745H4.26993L6.40261 23.8945L4.26993 27.4145Z" fill="#FAB910"/>
<path d="M3.96508 20.9186L5.76589 23.8945L3.96508 26.8705H0.319942L-1.4319 23.8945L0.319942 20.9186H3.96508ZM4.26975 20.3745H0.00439596L-2.06844 23.8945L0.00439596 27.4145H4.26975L6.40243 23.8945L4.26975 20.3745Z" fill="#FAB910"/>
<path d="M4.26993 35.2436H0.00457335L-2.06282 31.7236L0.00457335 28.2036H4.26993L6.40261 31.7236L4.26993 35.2436Z" fill="#FAB910"/>
<path d="M3.96508 28.7477L5.76589 31.7236L3.96508 34.6996H0.319942L-1.4319 31.7236L0.319942 28.7477H3.96508ZM4.26975 28.2036H0.00439596L-2.06844 31.7236L0.00439596 35.2436H4.26975L6.40243 31.7236L4.26975 28.2036Z" fill="#FAB910"/>
<path d="M11.1795 7.75242H6.91413L4.84674 4.23241L6.91413 0.712402H11.1795L13.3122 4.23241L11.1795 7.75242Z" fill="#FAB910"/>
<path d="M10.8745 1.25694L12.6753 4.2329L10.8745 7.20886H7.22938L5.47754 4.2329L7.22938 1.25694H10.8745ZM11.1792 0.712891H6.91383L4.841 4.2329L6.91383 7.75291H11.1792L13.3119 4.2329L11.1792 0.712891Z" fill="#FAB910"/>
<path d="M11.1796 15.5815H6.91425L4.84686 12.0615L6.91425 8.5415H11.1796L13.3123 12.0615L11.1796 15.5815Z" fill="#FAB910"/>
<path d="M10.8745 9.08604L12.6753 12.062L10.8745 15.038H7.22938L5.47754 12.062L7.22938 9.08604H10.8745ZM11.1792 8.54199H6.91383L4.841 12.062L6.91383 15.582H11.1792L13.3119 12.062L11.1792 8.54199Z" fill="#FAB910"/>
<path d="M11.1796 23.416H6.91425L4.84686 19.896L6.91425 16.376H11.1796L13.3123 19.896L11.1796 23.416Z" fill="#FAB910"/>
<path d="M10.8745 16.92L12.6753 19.896L10.8745 22.8719H7.22938L5.47754 19.896L7.22938 16.92H10.8745ZM11.1792 16.376H6.91383L4.841 19.896L6.91383 23.416H11.1792L13.3119 19.896L11.1792 16.376Z" fill="#FAB910"/>
<path d="M11.1796 31.2451H6.91425L4.84686 27.7251L6.91425 24.2051H11.1796L13.3123 27.7251L11.1796 31.2451Z" fill="#FAB910"/>
<path d="M10.8745 24.7491L12.6753 27.7251L10.8745 30.701H7.22938L5.47754 27.7251L7.22938 24.7491H10.8745ZM11.1792 24.2051H6.91383L4.841 27.7251L6.91383 31.2451H11.1792L13.3119 27.7251L11.1792 24.2051Z" fill="#FAB910"/>
<path d="M11.1794 39.0737H6.91401L4.84661 35.5537L6.91401 32.0337H11.1794L13.312 35.5537L11.1794 39.0737Z" fill="#FAB910"/>
<path d="M10.8745 32.5777L12.6753 35.5537L10.8745 38.5297H7.22938L5.47754 35.5537L7.22938 32.5777H10.8745ZM11.1792 32.0337H6.91383L4.841 35.5537L6.91383 39.0737H11.1792L13.3119 35.5537L11.1792 32.0337Z" fill="#FAB910"/>
<path d="M18.056 3.92283H13.7906L11.7178 0.40282L13.7906 -3.11719H18.056L20.1887 0.40282L18.056 3.92283Z" fill="#FAB910"/>
<path d="M17.7459 -2.57314L19.5467 0.40282L17.7459 3.37878H14.1007L12.3489 0.40282L14.1007 -2.57314H17.7459ZM18.056 -3.11719H13.7906L11.7178 0.40282L13.7906 3.92283H18.056L20.1887 0.40282L18.056 -3.11719Z" fill="#FAB910"/>
<path d="M18.056 11.7519H13.7906L11.7178 8.23192L13.7906 4.71191H18.056L20.1887 8.23192L18.056 11.7519Z" fill="#FAB910"/>
<path d="M17.7459 5.25596L19.5467 8.23192L17.7459 11.2079H14.1007L12.3489 8.23192L14.1007 5.25596H17.7459ZM18.056 4.71191H13.7906L11.7178 8.23192L13.7906 11.7519H18.056L20.1887 8.23192L18.056 4.71191Z" fill="#FAB910"/>
<path d="M18.056 19.5805H13.7906L11.7178 16.0659L13.7906 12.5459H18.056L20.1887 16.0659L18.056 19.5805Z" fill="#FAB910"/>
<path d="M17.7459 13.0899L19.5467 16.0659L17.7459 19.0419H14.1007L12.3489 16.0659L14.1007 13.0899H17.7459ZM18.056 12.5459H13.7906L11.7178 16.0659L13.7906 19.5859H18.056L20.1887 16.0659L18.056 12.5459Z" fill="#FAB910"/>
<path d="M18.056 27.4145H13.7906L11.7178 23.8945L13.7906 20.3745H18.056L20.1887 23.8945L18.056 27.4145Z" fill="#FAB910"/>
<path d="M17.7459 20.9186L19.5467 23.8945L17.7459 26.8705H14.1007L12.3489 23.8945L14.1007 20.9186H17.7459ZM18.056 20.3745H13.7906L11.7178 23.8945L13.7906 27.4145H18.056L20.1887 23.8945L18.056 20.3745Z" fill="#FAB910"/>
<path d="M18.056 35.2436H13.7906L11.7178 31.7236L13.7906 28.2036H18.056L20.1887 31.7236L18.056 35.2436Z" fill="#FAB910"/>
<path d="M17.7459 28.7477L19.5467 31.7236L17.7459 34.6996H14.1007L12.3489 31.7236L14.1007 28.7477H17.7459ZM18.056 28.2036H13.7906L11.7178 31.7236L13.7906 35.2436H18.056L20.1887 31.7236L18.056 28.2036Z" fill="#FAB910"/>
<path d="M24.9654 7.75291H20.7001L18.6272 4.2329L20.7001 0.712891H24.9654L27.0981 4.2329L24.9654 7.75291Z" fill="#FAB910"/>
<path d="M24.6553 1.25694L26.4561 4.2329L24.6553 7.20886H21.0102L19.2583 4.2329L21.0102 1.25694H24.6553ZM24.9654 0.712891H20.7001L18.6272 4.2329L20.7001 7.75291H24.9654L27.0981 4.2329L24.9654 0.712891Z" fill="#FAB910"/>
<path d="M24.9654 15.582H20.7001L18.6272 12.062L20.7001 8.54199H24.9654L27.0981 12.062L24.9654 15.582Z" fill="#FAB910"/>
<path d="M24.6553 9.08604L26.4561 12.062L24.6553 15.038H21.0102L19.2583 12.062L21.0102 9.08604H24.6553ZM24.9654 8.54199H20.7001L18.6272 12.062L20.7001 15.582H24.9654L27.0981 12.062L24.9654 8.54199Z" fill="#FAB910"/>
<path d="M24.9654 23.416H20.7001L18.6272 19.896L20.7001 16.376H24.9654L27.0981 19.896L24.9654 23.416Z" fill="#FAB910"/>
<path d="M24.6553 16.92L26.4561 19.896L24.6553 22.8719H21.0102L19.2583 19.896L21.0102 16.92H24.6553ZM24.9654 16.376H20.7001L18.6272 19.896L20.7001 23.416H24.9654L27.0981 19.896L24.9654 16.376Z" fill="#FAB910"/>
<path d="M24.9654 31.2451H20.7001L18.6272 27.7251L20.7001 24.2051H24.9654L27.0981 27.7251L24.9654 31.2451Z" fill="#FAB910"/>
<path d="M24.6553 24.7491L26.4561 27.7251L24.6553 30.701H21.0102L19.2583 27.7251L21.0102 24.7491H24.6553ZM24.9654 24.2051H20.7001L18.6272 27.7251L20.7001 31.2451H24.9654L27.0981 27.7251L24.9654 24.2051Z" fill="#FAB910"/>
<path d="M24.9654 39.0737H20.7001L18.6272 35.5537L20.7001 32.0337H24.9654L27.0981 35.5537L24.9654 39.0737Z" fill="#FAB910"/>
<path d="M24.6553 32.5777L26.4561 35.5537L24.6553 38.5297H21.0102L19.2583 35.5537L21.0102 32.5777H24.6553ZM24.9654 32.0337H20.7001L18.6272 35.5537L20.7001 39.0737H24.9654L27.0981 35.5537L24.9654 32.0337Z" fill="#FAB910"/>
<path d="M31.8368 3.92283H27.5714L25.4986 0.40282L27.5714 -3.11719H31.8368L33.9695 0.40282L31.8368 3.92283Z" fill="#FAB910"/>
<path d="M31.5321 -2.57314L33.3329 0.40282L31.5321 3.37878H27.887L26.1297 0.40282L27.8816 -2.57314H31.5321ZM31.8368 -3.11719H27.5714L25.4986 0.40282L27.5714 3.92283H31.8368L33.9695 0.40282L31.8368 -3.11719Z" fill="#FAB910"/>
<path d="M31.8368 11.7519H27.5714L25.4986 8.23192L27.5714 4.71191H31.8368L33.9695 8.23192L31.8368 11.7519Z" fill="#FAB910"/>
<path d="M31.5321 5.25596L33.3329 8.23192L31.5321 11.2079H27.887L26.1352 8.23192L27.887 5.25596H31.5321ZM31.8368 4.71191H27.5714L25.4986 8.23192L27.5714 11.7519H31.8368L33.9695 8.23192L31.8368 4.71191Z" fill="#FAB910"/>
<path d="M31.8368 19.5805H27.5714L25.4986 16.0659L27.5714 12.5459H31.8368L33.9695 16.0659L31.8368 19.5805Z" fill="#FAB910"/>
<path d="M31.5321 13.0899L33.3329 16.0659L31.5321 19.0419H27.887L26.1352 16.0659L27.887 13.0899H31.5321ZM31.8368 12.5459H27.5714L25.4986 16.0659L27.5714 19.5859H31.8368L33.9695 16.0659L31.8368 12.5459Z" fill="#FAB910"/>
<path d="M31.8368 27.4145H27.5714L25.4986 23.8945L27.5714 20.3745H31.8368L33.9695 23.8945L31.8368 27.4145Z" fill="#FAB910"/>
<path d="M31.5321 20.9186L33.3329 23.8945L31.5321 26.8705H27.887L26.1352 23.8945L27.887 20.9186H31.5321ZM31.8368 20.3745H27.5714L25.4986 23.8945L27.5714 27.4145H31.8368L33.9695 23.8945L31.8368 20.3745Z" fill="#FAB910"/>
<path d="M31.8368 35.2436H27.5714L25.4986 31.7236L27.5714 28.2036H31.8368L33.9695 31.7236L31.8368 35.2436Z" fill="#FAB910"/>
<path d="M31.5321 28.7477L33.3329 31.7236L31.5321 34.6996H27.887L26.1352 31.7236L27.887 28.7477H31.5321ZM31.8368 28.2036H27.5714L25.4986 31.7236L27.5714 35.2436H31.8368L33.9695 31.7236L31.8368 28.2036Z" fill="#FAB910"/>
<path d="M31.8368 43.0722H27.5714L25.4986 39.5522L27.5714 36.0322H31.8368L33.9695 39.5522L31.8368 43.0722Z" fill="#FAB910"/>
<path d="M31.5321 36.5763L33.3329 39.5522L31.5321 42.5282H27.887L26.1352 39.5522L27.887 36.5763H31.5321ZM31.8368 36.0322H27.5714L25.4986 39.5522L27.5714 43.0722H31.8368L33.9695 39.5522L31.8368 36.0322Z" fill="#FAB910"/>
<path d="M31.8368 50.9072H27.5714L25.4986 47.3872L27.5714 43.8672H31.8368L33.9695 47.3872L31.8368 50.9072Z" fill="#FAB910"/>
<path d="M31.5321 44.4112L33.3329 47.3872L31.5321 50.3632H27.887L26.1352 47.3872L27.887 44.4112H31.5321ZM31.8368 43.8672H27.5714L25.4986 47.3872L27.5714 50.9072H31.8368L33.9695 47.3872L31.8368 43.8672Z" fill="#FAB910"/>
<path d="M38.7462 7.75291H34.4809L32.408 4.2329L34.4809 0.712891H38.7462L40.8789 4.2329L38.7462 7.75291Z" fill="#FAB910"/>
<path d="M38.4416 1.25694L40.2424 4.2329L38.4416 7.20886H34.7964L33.0446 4.2329L34.7964 1.25694H38.4416ZM38.7462 0.712891H34.4809L32.408 4.2329L34.4809 7.75291H38.7462L40.8789 4.2329L38.7462 0.712891Z" fill="#FAB910"/>
<path d="M38.7462 15.582H34.4809L32.408 12.062L34.4809 8.54199H38.7462L40.8789 12.062L38.7462 15.582Z" fill="#FAB910"/>
<path d="M38.4416 9.08604L40.2424 12.062L38.4416 15.038H34.7964L33.0446 12.062L34.7964 9.08604H38.4416ZM38.7462 8.54199H34.4809L32.408 12.062L34.4809 15.582H38.7462L40.8789 12.062L38.7462 8.54199Z" fill="#FAB910"/>
<path d="M38.7462 23.416H34.4809L32.408 19.896L34.4809 16.376H38.7462L40.8789 19.896L38.7462 23.416Z" fill="#FAB910"/>
<path d="M38.4416 16.92L40.2424 19.896L38.4416 22.8719H34.7964L33.0446 19.896L34.7964 16.92H38.4416ZM38.7462 16.376H34.4809L32.408 19.896L34.4809 23.416H38.7462L40.8789 19.896L38.7462 16.376Z" fill="#FAB910"/>
<path d="M38.7462 31.2451H34.4809L32.408 27.7251L34.4809 24.2051H38.7462L40.8789 27.7251L38.7462 31.2451Z" fill="#FAB910"/>
<path d="M38.4416 24.7491L40.2424 27.7251L38.4416 30.701H34.7964L33.0446 27.7251L34.7964 24.7491H38.4416ZM38.7462 24.2051H34.4809L32.408 27.7251L34.4809 31.2451H38.7462L40.8789 27.7251L38.7462 24.2051Z" fill="#FAB910"/>
<path d="M38.7462 39.0737H34.4809L32.408 35.5537L34.4809 32.0337H38.7462L40.8789 35.5537L38.7462 39.0737Z" fill="#FAB910"/>
<path d="M38.4416 32.5777L40.2424 35.5537L38.4416 38.5297H34.7964L33.0446 35.5537L34.7964 32.5777H38.4416ZM38.7462 32.0337H34.4809L32.408 35.5537L34.4809 39.0737H38.7462L40.8789 35.5537L38.7462 32.0337Z" fill="#FAB910"/>
<path d="M38.7462 46.9023H34.4809L32.408 43.3877L34.4809 39.8677H38.7462L40.8789 43.3877L38.7462 46.9023Z" fill="#FAB910"/>
<path d="M38.4416 40.4117L40.2424 43.3877L38.4416 46.3636H34.7964L33.0446 43.3877L34.7964 40.4117H38.4416ZM38.7462 39.8677H34.4809L32.408 43.3822L34.4809 46.9023H38.7462L40.8789 43.3822L38.7462 39.8677Z" fill="#FAB910"/>
<path d="M45.6176 3.92283H41.3577L39.2848 0.40282L41.3577 -3.11719H45.6176L47.7503 0.40282L45.6176 3.92283Z" fill="#FAB910"/>
<path d="M45.3129 -2.57314L47.1137 0.40282L45.3129 3.37878H41.6678L39.9159 0.40282L41.6678 -2.57314H45.3129ZM45.6176 -3.11719H41.3522L39.2848 0.40282L41.3577 3.92283H45.623L47.7503 0.40282L45.6176 -3.11719Z" fill="#FAB910"/>
<path d="M45.618 11.7519H41.3581L39.2853 8.23192L41.3581 4.71191H45.618L47.7507 8.23192L45.618 11.7519Z" fill="#FAB910"/>
<path d="M45.3129 5.25596L47.1137 8.23192L45.3129 11.2079H41.6678L39.9159 8.23192L41.6678 5.25596H45.3129ZM45.6176 4.71191H41.3522L39.2794 8.23192L41.3522 11.7519H45.6176L47.7503 8.23192L45.6176 4.71191Z" fill="#FAB910"/>
<path d="M45.6179 19.5805H41.358L39.2852 16.0659L41.358 12.5459H45.6179L47.7506 16.0659L45.6179 19.5805Z" fill="#FAB910"/>
<path d="M45.3129 13.0899L47.1137 16.0659L45.3129 19.0419H41.6678L39.9159 16.0659L41.6678 13.0899H45.3129ZM45.6176 12.5459H41.3522L39.2794 16.0659L41.3522 19.5859H45.6176L47.7503 16.0659L45.6176 12.5459Z" fill="#FAB910"/>
<path d="M45.6178 27.4145H41.3579L39.285 23.8945L41.3579 20.3745H45.6178L47.7505 23.8945L45.6178 27.4145Z" fill="#FAB910"/>
<path d="M45.3129 20.9186L47.1137 23.8945L45.3129 26.8705H41.6678L39.9159 23.8945L41.6678 20.9186H45.3129ZM45.6176 20.3745H41.3522L39.2794 23.8945L41.3522 27.4145H45.6176L47.7503 23.8945L45.6176 20.3745Z" fill="#FAB910"/>
<path d="M45.6178 35.2436H41.3579L39.285 31.7236L41.3579 28.2036H45.6178L47.7505 31.7236L45.6178 35.2436Z" fill="#FAB910"/>
<path d="M45.3129 28.7477L47.1137 31.7236L45.3129 34.6996H41.6678L39.9159 31.7236L41.6678 28.7477H45.3129ZM45.6176 28.2036H41.3522L39.2794 31.7236L41.3522 35.2436H45.6176L47.7503 31.7236L45.6176 28.2036Z" fill="#FAB910"/>
<path d="M45.6177 43.0722H41.3578L39.285 39.5522L41.3578 36.0322H45.6177L47.7504 39.5522L45.6177 43.0722Z" fill="#FAB910"/>
<path d="M45.3129 36.5763L47.1137 39.5522L45.3129 42.5282H41.6678L39.9159 39.5522L41.6678 36.5763H45.3129ZM45.6176 36.0322H41.3522L39.2794 39.5522L41.3522 43.0722H45.6176L47.7503 39.5522L45.6176 36.0322Z" fill="#FAB910"/>
<path d="M52.5325 7.75291H48.2671L46.1943 4.2329L48.2671 0.712891H52.5325L54.6651 4.2329L52.5325 7.75291Z" fill="#FAB910"/>
<path d="M52.2224 1.25694L54.0232 4.2329L52.2224 7.20886H48.5772L46.8254 4.2329L48.5772 1.25694H52.2224ZM52.5325 0.712891H48.2671L46.1943 4.2329L48.2671 7.75291H52.5325L54.6651 4.2329L52.5325 0.712891Z" fill="#FAB910"/>
<path d="M52.5325 15.582H48.2671L46.1943 12.062L48.2671 8.54199H52.5325L54.6651 12.062L52.5325 15.582Z" fill="#FAB910"/>
<path d="M52.2224 9.08604L54.0232 12.062L52.2224 15.038H48.5772L46.8254 12.062L48.5772 9.08604H52.2224ZM52.5325 8.54199H48.2671L46.1943 12.062L48.2671 15.582H52.5325L54.6651 12.062L52.5325 8.54199Z" fill="#FAB910"/>
<path d="M52.5325 23.416H48.2671L46.1943 19.896L48.2671 16.376H52.5325L54.6651 19.896L52.5325 23.416Z" fill="#FAB910"/>
<path d="M52.2224 16.92L54.0232 19.896L52.2224 22.8719H48.5772L46.8254 19.896L48.5772 16.92H52.2224ZM52.5325 16.376H48.2671L46.1943 19.896L48.2671 23.416H52.5325L54.6651 19.896L52.5325 16.376Z" fill="#FAB910"/>
<path d="M52.5325 31.2451H48.2671L46.1943 27.7251L48.2671 24.2051H52.5325L54.6651 27.7251L52.5325 31.2451Z" fill="#FAB910"/>
<path d="M52.2224 24.7491L54.0232 27.7251L52.2224 30.701H48.5772L46.8254 27.7251L48.5772 24.7491H52.2224ZM52.5325 24.2051H48.2671L46.1943 27.7251L48.2671 31.2451H52.5325L54.6651 27.7251L52.5325 24.2051Z" fill="#FAB910"/>
<path d="M59.4038 11.7519H55.1385L53.0656 8.23192L55.1385 4.71191H59.4038L61.5365 8.23192L59.4038 11.7519Z" fill="#FAB910"/>
<path d="M59.0937 5.25596L60.8945 8.23192L59.0937 11.2079H55.4486L53.6967 8.23192L55.4486 5.25596H59.0937ZM59.4038 4.71191H55.1385L53.0656 8.23192L55.1385 11.7519H59.4038L61.5365 8.23192L59.4038 4.71191Z" fill="#FAB910"/>
<path d="M59.4038 19.5805H55.1385L53.0656 16.0659L55.1385 12.5459H59.4038L61.5365 16.0659L59.4038 19.5805Z" fill="#FAB910"/>
<path d="M59.0937 13.0899L60.8945 16.0659L59.0937 19.0419H55.4486L53.6967 16.0659L55.4486 13.0899H59.0937ZM59.4038 12.5459H55.1385L53.0656 16.0659L55.1385 19.5859H59.4038L61.5365 16.0659L59.4038 12.5459Z" fill="#FAB910"/>
<path d="M59.4038 27.4145H55.1385L53.0656 23.8945L55.1385 20.3745H59.4038L61.5365 23.8945L59.4038 27.4145Z" fill="#FAB910"/>
<path d="M59.0937 20.9186L60.8945 23.8945L59.0937 26.8705H55.4486L53.6967 23.8945L55.4486 20.9186H59.0937ZM59.4038 20.3745H55.1385L53.0656 23.8945L55.1385 27.4145H59.4038L61.5365 23.8945L59.4038 20.3745Z" fill="#FAB910"/>
<path d="M66.3133 15.582H62.0479L59.9751 12.062L62.0479 8.54199H66.3133L68.446 12.062L66.3133 15.582Z" fill="#FAB910"/>
<path d="M66.0086 9.08604L67.8094 12.062L66.0086 15.038H62.3635L60.6116 12.062L62.3635 9.08604H66.0086ZM66.3133 8.54199H62.0479L59.9751 12.062L62.0479 15.582H66.3133L68.446 12.062L66.3133 8.54199Z" fill="#FAB910"/>
<path d="M66.3133 23.416H62.0479L59.9751 19.896L62.0479 16.376H66.3133L68.446 19.896L66.3133 23.416Z" fill="#FAB910"/>
<path d="M66.0086 16.92L67.8094 19.896L66.0086 22.8719H62.3635L60.6116 19.896L62.3635 16.92H66.0086ZM66.3133 16.376H62.0479L59.9751 19.896L62.0479 23.416H66.3133L68.446 19.896L66.3133 16.376Z" fill="#FAB910"/>
</g>
<path opacity="0.39" d="M35.3405 35.1729L39.6385 37.6048V42.6155L35.3405 45.1236L31.0425 42.6155V37.6048L35.3405 35.1729ZM63 15.7557V20.2387L59.159 22.4802L57.146 21.305L56.0144 21.9633V23.1711L54.725 23.911L53.7022 23.3126L53.4519 23.4595L52.4509 22.8719V24.1178L48.9037 26.1852L47.8156 25.5486V27.9968L46.5697 28.7204V29.3026L44.6873 30.3798L44.2031 30.0969L42.7232 30.9619L41.1836 30.0642V32.42L37.6418 34.4874L34.8182 32.8389L32.8324 33.9977L31.9293 33.47L29.6551 34.7975L26.1079 32.7301V31.9575L22.0276 29.58V27.6867L21.7446 27.5235L19.476 28.8456L19.2964 28.7422L16.2389 30.5267L12.6971 28.4593V28.1981L11.5818 28.851L11.5219 28.8184L9.37294 30.0479L6.88119 28.5953V26.109L6.49491 25.8805V22.7196L6.08688 22.9589L1 19.9939V14.0637L5.5537 11.4849V10.9137L8.85065 9.04212V5.37522L12.6372 3.23166L16.4238 5.37522V5.69077L17.7024 4.96718L18.0669 5.17392L22.2234 2.81818L25.6509 4.76044L28.3494 3.23166L29.3777 3.8138L34.5462 0.826957L40.4926 4.25991V6.92576L40.8354 6.72991V2.49175L45.2313 0L49.6272 2.49175V7.11074L51.6511 8.25869V8.53071L54.8556 10.3478V12.4805L57.9784 14.2487L59.1536 13.5795L63 15.7557ZM36.8693 13.7101V13.2259L36.4449 13.4707L36.8693 13.7101ZM11.0704 29.9826V31.4135L12.3163 32.1425L13.5839 31.4135V29.9826L12.3163 29.2536L11.0704 29.9826ZM4.84644 30.9782V33.1055L6.69621 34.1827L8.57862 33.1055V30.9782L6.69621 29.901L4.84644 30.9782ZM28.9751 36.1467V37.039L29.7531 37.4905L30.542 37.039V36.1467L29.7531 35.6952L28.9751 36.1467Z" fill="url(#paint0_linear_1106_1399)"/>
<defs>
<linearGradient id="paint0_linear_1106_1399" x1="-18.0556" y1="22.2783" x2="70.61" y2="22.2783" gradientUnits="userSpaceOnUse">
<stop offset="0.00520833" stop-color="#FCCE0B" stop-opacity="0"/>
<stop offset="0.338542" stop-color="#F8A513" stop-opacity="0.4078"/>
<stop offset="0.575553" stop-color="#F58419" stop-opacity="0.7899"/>
<stop offset="0.890625" stop-color="#F4781B"/>
</linearGradient>
</defs>
</svg>
