<svg width="100" height="100" viewBox="0 0 100 100" fill="none" xmlns="http://www.w3.org/2000/svg">
<path d="M49.6307 93.4164H48.0578L47.3823 92.1569L48.0578 90.8975H49.6307L50.4171 92.1569L49.6307 93.4164Z" fill="url(#paint0_linear_1110_7996)"/>
<path d="M58.7452 96.8749H56.6077L55.4785 95.1925L56.6077 93.4067H58.7452L59.7535 95.1925L58.7452 96.8749Z" fill="url(#paint1_linear_1110_7996)"/>
<path d="M87.4701 17.1718H85.3326L84.2034 15.4894L85.3326 13.7036H87.4701L88.4783 15.4894L87.4701 17.1718Z" fill="url(#paint2_linear_1110_7996)"/>
<path d="M50.4172 88.9516V85.1262L53.9864 83.1807L57.6161 85.1262V88.9516L53.9864 90.8972L50.4172 88.9516Z" fill="url(#paint3_linear_1110_7996)"/>
<mask id="mask0_1110_7996" style="mask-type:alpha" maskUnits="userSpaceOnUse" x="4" y="0" width="90" height="89">
<path d="M25.9674 79.4117L25.5943 71.7798L22.0453 70.8211L19.3432 66.5445L22.0453 61.3093L18.5971 57.6249L21.3799 52.3897L24.0215 47.2673L18.5971 38.6109L22.0453 33.7516L18.5971 29.0991L12.4267 28.5164L9.65404 23.2812L4.09863 14.7375L10.3497 4.84986L12.4267 0L18.5971 0.582734L21.3799 4.84986H39.3266L45.9709 9.86889L48.9452 10.0851H54.5006L57.9488 13.7789H63.5042L73.2034 11.2411L75.8954 14.7375H81.4509L84.2336 19.0141H90.7065L93.6909 23.6947V33.3851L87.7524 38.1409L84.5966 38.1879L82.4893 42.3517L75.23 42.878L72.4473 47.1545L72.7699 52.3709L66.2768 57.0422L63.5042 61.3093L63.4538 67.6536L59.4813 71.7798L56.3053 77.7293L50.6289 81.8836L47.3824 88.6133L43.299 85.8782L36.5539 85.1827H30.9985L25.9674 79.4117Z" fill="#FCCE0B"/>
</mask>
<g mask="url(#mask0_1110_7996)">
<path d="M7.44597 10.5543H1.13439L-1.93066 5.70447L1.13439 0.845215H7.44597L10.6018 5.70447L7.44597 10.5543Z" fill="url(#paint4_linear_1110_7996)"/>
<path d="M6.88136 1.78511L9.42213 5.69507L6.88136 9.60503H1.71917L-0.751023 5.69507L1.71917 1.78511H6.88136ZM7.44597 0.845215H1.13439L-1.93066 5.69507L1.13439 10.5449H7.44597L10.6018 5.69507L7.44597 0.845215Z" fill="url(#paint5_linear_1110_7996)"/>
<path d="M7.44597 21.3541H1.13439L-1.93066 16.5043L1.13439 11.645H7.44597L10.6018 16.5043L7.44597 21.3541Z" fill="url(#paint6_linear_1110_7996)"/>
<path d="M6.88136 12.5849L9.42213 16.4949L6.88136 20.4048H1.71917L-0.751023 16.4949L1.71917 12.5849H6.88136ZM7.44597 11.645H1.13439L-1.93066 16.5043L1.13439 21.3541H7.44597L10.6018 16.5043L7.44597 11.645Z" fill="url(#paint7_linear_1110_7996)"/>
<path d="M7.44597 32.1535H1.13439L-1.93066 27.2942L1.13439 22.4443H7.44597L10.6018 27.2942L7.44597 32.1535Z" fill="url(#paint8_linear_1110_7996)"/>
<path d="M6.88136 23.3842L9.42213 27.2942L6.88136 31.2042H1.71917L-0.751023 27.2942L1.71917 23.3842H6.88136M7.44597 22.4443H1.13439L-1.93066 27.2942L1.13439 32.1441H7.44597L10.6018 27.2942L7.44597 22.4443Z" fill="url(#paint9_linear_1110_7996)"/>
<path d="M17.6696 5.03712H11.358L8.29297 0.187259L11.358 -4.6626H17.6696L20.8254 0.187259L17.6696 5.03712Z" fill="url(#paint10_linear_1110_7996)"/>
<path d="M17.105 -3.7227L19.6458 0.187259L17.105 4.09722H11.9428L9.47261 0.187259L11.9428 -3.7227H17.105M17.6696 -4.6626H11.358L8.29297 0.187259L11.358 5.03712H17.6696L20.8254 0.187259L17.6696 -4.6626Z" fill="url(#paint11_linear_1110_7996)"/>
<path d="M17.6696 15.837H11.358L8.29297 10.9872L11.358 6.12793H17.6696L20.8254 10.9872L17.6696 15.837Z" fill="url(#paint12_linear_1110_7996)"/>
<path d="M17.105 7.06782L19.6458 10.9778L17.105 14.8877H11.9428L9.47261 10.9778L11.9428 7.06782H17.105M17.6696 6.12793H11.358L8.29297 10.9778L11.358 15.8276H17.6696L20.8254 10.9778L17.6696 6.12793Z" fill="url(#paint13_linear_1110_7996)"/>
<path d="M17.6696 26.6364H11.358L8.29297 21.7865L11.358 16.9272H17.6696L20.8254 21.7865L17.6696 26.6364Z" fill="url(#paint14_linear_1110_7996)"/>
<path d="M17.105 17.8671L19.6458 21.7771L17.105 25.6871H11.9428L9.47261 21.7771L11.9428 17.8671H17.105ZM17.6696 16.9272H11.358L8.29297 21.7771L11.358 26.627H17.6696L20.8254 21.7771L17.6696 16.9272Z" fill="url(#paint15_linear_1110_7996)"/>
<path d="M17.6696 37.4357H11.358L8.29297 32.5764L11.358 27.7266H17.6696L20.8254 32.5764L17.6696 37.4357Z" fill="url(#paint16_linear_1110_7996)"/>
<path d="M17.105 28.6665L19.6458 32.5764L17.105 36.4864H11.9428L9.46253 32.5764L11.9327 28.6665H17.105ZM17.6696 27.7266H11.358L8.29297 32.5764L11.358 37.4263H17.6696L20.8254 32.5764L17.6696 27.7266Z" fill="url(#paint17_linear_1110_7996)"/>
<path d="M17.6696 48.2345H11.358L8.29297 43.3752L11.358 38.5254H17.6696L20.8254 43.3752L17.6696 48.2345Z" fill="url(#paint18_linear_1110_7996)"/>
<path d="M17.105 39.4653L19.6458 43.3752L17.105 47.2852H11.9428L9.47261 43.3752L11.9428 39.4653H17.105ZM17.6696 38.5254H11.358L8.29297 43.3752L11.358 48.2251H17.6696L20.8254 43.3752L17.6696 38.5254Z" fill="url(#paint19_linear_1110_7996)"/>
<path d="M17.6696 59.0244H11.358L8.29297 54.1746L11.358 49.3247H17.6696L20.8254 54.1746L17.6696 59.0244Z" fill="url(#paint20_linear_1110_7996)"/>
<path d="M17.105 50.2646L19.6458 54.1746L17.105 58.0845H11.9428L9.47261 54.1746L11.9428 50.2646H17.105ZM17.6696 49.3247H11.358L8.29297 54.1746L11.358 59.0244H17.6696L20.8254 54.1746L17.6696 49.3247Z" fill="url(#paint21_linear_1110_7996)"/>
<path d="M17.6696 69.8245H11.358L8.29297 64.9746L11.358 60.1248H17.6696L20.8254 64.9746L17.6696 69.8245Z" fill="url(#paint22_linear_1110_7996)"/>
<path d="M17.105 61.0647L19.6458 64.9746L17.105 68.8846H11.9428L9.47261 64.9746L11.9428 61.0647H17.105ZM17.6696 60.1248H11.358L8.29297 64.9746L11.358 69.8245H17.6696L20.8254 64.9746L17.6696 60.1248Z" fill="url(#paint23_linear_1110_7996)"/>
<path d="M27.8326 10.5543H21.5311L18.4661 5.70447L21.5311 0.845215H27.8326L30.9884 5.70447L27.8326 10.5543Z" fill="url(#paint24_linear_1110_7996)"/>
<path d="M27.2681 1.78511L29.8088 5.69507L27.2681 9.60503H22.1059L19.6357 5.69507L22.1059 1.78511H27.2681ZM27.8327 0.845215H21.5211L18.4561 5.69507L21.5211 10.5449H27.8327L30.9885 5.69507L27.8327 0.845215Z" fill="url(#paint25_linear_1110_7996)"/>
<path d="M27.8326 21.3541H21.5311L18.4661 16.5043L21.5311 11.645H27.8326L30.9884 16.5043L27.8326 21.3541Z" fill="url(#paint26_linear_1110_7996)"/>
<path d="M27.2681 12.5849L29.8088 16.4949L27.2681 20.4048H22.1059L19.6357 16.4949L22.1059 12.5849H27.2681ZM27.8327 11.645H21.5211L18.4561 16.4949L21.5211 21.3447H27.8327L30.9885 16.4949L27.8327 11.645Z" fill="url(#paint27_linear_1110_7996)"/>
<path d="M27.8326 32.1535H21.5311L18.4661 27.2942L21.5311 22.4443H27.8326L30.9884 27.2942L27.8326 32.1535Z" fill="url(#paint28_linear_1110_7996)"/>
<path d="M27.2681 23.3842L29.8088 27.2942L27.2681 31.2042H22.1059L19.6357 27.2942L22.1059 23.3842H27.2681M27.8327 22.4443H21.5211L18.4561 27.2942L21.5211 32.1441H27.8327L30.9885 27.2942L27.8327 22.4443Z" fill="url(#paint29_linear_1110_7996)"/>
<path d="M27.8326 42.9528H21.5311L18.4661 38.0935L21.5311 33.2437H27.8326L30.9884 38.0935L27.8326 42.9528Z" fill="url(#paint30_linear_1110_7996)"/>
<path d="M27.2681 34.1835L29.8088 38.0935L27.2681 42.0035H22.1059L19.6357 38.0935L22.1059 34.1835H27.2681ZM27.8327 33.2437H21.5211L18.4561 38.0935L21.5211 42.9434H27.8327L30.9885 38.0935L27.8327 33.2437Z" fill="url(#paint31_linear_1110_7996)"/>
<path d="M27.8326 53.7427H21.5311L18.4661 48.8928L21.5311 44.043H27.8326L30.9884 48.8928L27.8326 53.7427Z" fill="url(#paint32_linear_1110_7996)"/>
<path d="M27.2681 44.9829L29.8088 48.8928L27.2681 52.8028H22.1059L19.6357 48.8928L22.1059 44.9829H27.2681ZM27.8327 44.043H21.5211L18.4561 48.8928L21.5211 53.7427H27.8327L30.9885 48.8928L27.8327 44.043Z" fill="url(#paint33_linear_1110_7996)"/>
<path d="M27.8326 64.5418H21.5311L18.4661 59.6919L21.5311 54.842H27.8326L30.9884 59.6919L27.8326 64.5418Z" fill="url(#paint34_linear_1110_7996)"/>
<path d="M27.2681 55.7819L29.8088 59.6919L27.2681 63.6019H22.1059L19.6357 59.6919L22.1059 55.7819H27.2681ZM27.8327 54.842H21.5211L18.4561 59.6919L21.5211 64.5418H27.8327L30.9885 59.6919L27.8327 54.842Z" fill="url(#paint35_linear_1110_7996)"/>
<path d="M27.8326 75.3414H21.5311L18.4661 70.4916L21.5311 65.6323H27.8326L30.9884 70.4916L27.8326 75.3414Z" fill="url(#paint36_linear_1110_7996)"/>
<path d="M27.2681 66.5725L29.8088 70.4824L27.2681 74.3924H22.1059L19.6357 70.4824L22.1059 66.5725H27.2681ZM27.8327 65.6326H21.5211L18.4561 70.4824L21.5211 75.3323H27.8327L30.9885 70.4824L27.8327 65.6326Z" fill="url(#paint37_linear_1110_7996)"/>
<path d="M27.8326 86.141H21.5311L18.4661 81.2911L21.5311 76.4319H27.8326L30.9884 81.2911L27.8326 86.141Z" fill="url(#paint38_linear_1110_7996)"/>
<path d="M27.2681 77.3715L29.8088 81.2815L27.2681 85.1915H22.1059L19.6357 81.2815L22.1059 77.3715H27.2681ZM27.8327 76.4316H21.5211L18.4561 81.2815L21.5211 86.1313H27.8327L30.9885 81.2815L27.8327 76.4316Z" fill="url(#paint39_linear_1110_7996)"/>
<path d="M38.0561 15.837H31.7445L28.6794 10.9872L31.7445 6.12793H38.0561L41.2119 10.9872L38.0561 15.837Z" fill="url(#paint40_linear_1110_7996)"/>
<path d="M37.4915 7.06782L40.0322 10.9778L37.4915 14.8877H32.3293L29.8591 10.9778L32.3293 7.06782H37.4915M38.0561 6.12793H31.7445L28.6794 10.9778L31.7445 15.8276H38.0561L41.2119 10.9778L38.0561 6.12793Z" fill="url(#paint41_linear_1110_7996)"/>
<path d="M38.0561 26.6364H31.7445L28.6794 21.7865L31.7445 16.9272H38.0561L41.2119 21.7865L38.0561 26.6364Z" fill="url(#paint42_linear_1110_7996)"/>
<path d="M37.4915 17.8671L40.0322 21.7771L37.4915 25.6871H32.3293L29.8591 21.7771L32.3293 17.8671H37.4915ZM38.0561 16.9272H31.7445L28.6794 21.7771L31.7445 26.627H38.0561L41.2119 21.7771L38.0561 16.9272Z" fill="url(#paint43_linear_1110_7996)"/>
<path d="M38.0561 37.4357H31.7445L28.6794 32.5764L31.7445 27.7266H38.0561L41.2119 32.5764L38.0561 37.4357Z" fill="url(#paint44_linear_1110_7996)"/>
<path d="M37.4915 28.6665L40.0322 32.5764L37.4915 36.4864H32.3293L29.8591 32.5764L32.3293 28.6665H37.4915ZM38.0561 27.7266H31.7445L28.6794 32.5764L31.7445 37.4263H38.0561L41.2119 32.5764L38.0561 27.7266Z" fill="url(#paint45_linear_1110_7996)"/>
<path d="M38.0561 48.2345H31.7445L28.6794 43.3752L31.7445 38.5254H38.0561L41.2119 43.3752L38.0561 48.2345Z" fill="url(#paint46_linear_1110_7996)"/>
<path d="M37.4915 39.4653L40.0322 43.3752L37.4915 47.2852H32.3293L29.8591 43.3752L32.3293 39.4653H37.4915ZM38.0561 38.5254H31.7445L28.6794 43.3752L31.7445 48.2251H38.0561L41.2119 43.3752L38.0561 38.5254Z" fill="url(#paint47_linear_1110_7996)"/>
<path d="M38.0561 59.0244H31.7445L28.6794 54.1746L31.7445 49.3247H38.0561L41.2119 54.1746L38.0561 59.0244Z" fill="url(#paint48_linear_1110_7996)"/>
<path d="M37.4915 50.2646L40.0322 54.1746L37.4915 58.0845H32.3293L29.8591 54.1746L32.3293 50.2646H37.4915ZM38.0561 49.3247H31.7445L28.6794 54.1746L31.7445 59.0244H38.0561L41.2119 54.1746L38.0561 49.3247Z" fill="url(#paint49_linear_1110_7996)"/>
<path d="M38.0561 69.8245H31.7445L28.6794 64.9746L31.7445 60.1248H38.0561L41.2119 64.9746L38.0561 69.8245Z" fill="url(#paint50_linear_1110_7996)"/>
<path d="M37.4915 61.0647L40.0322 64.9746L37.4915 68.8846H32.3293L29.8591 64.9746L32.3293 61.0647H37.4915ZM38.0561 60.1248H31.7445L28.6794 64.9746L31.7445 69.8245H38.0561L41.2119 64.9746L38.0561 60.1248Z" fill="url(#paint51_linear_1110_7996)"/>
<path d="M38.0561 80.6237H31.7445L28.6794 75.7738L31.7445 70.9146H38.0561L41.2119 75.7738L38.0561 80.6237Z" fill="url(#paint52_linear_1110_7996)"/>
<path d="M37.4915 71.8544L40.0322 75.7644L37.4915 79.6744H32.3293L29.8591 75.7644L32.3293 71.8544H37.4915ZM38.0561 70.9146H31.7445L28.6794 75.7644L31.7445 80.6143H38.0561L41.2119 75.7644L38.0561 70.9146Z" fill="url(#paint53_linear_1110_7996)"/>
<path d="M38.0561 91.423H31.7445L28.6794 86.5731L31.7445 81.7139H38.0561L41.2119 86.5731L38.0561 91.423Z" fill="url(#paint54_linear_1110_7996)"/>
<path d="M37.4915 82.6538L40.0322 86.5637L37.4915 90.4737H32.3293L29.8591 86.5637L32.3293 82.6538H37.4915ZM38.0561 81.7139H31.7445L28.6794 86.5637L31.7445 91.4136H38.0561L41.2119 86.5637L38.0561 81.7139Z" fill="url(#paint55_linear_1110_7996)"/>
<path d="M48.2191 10.5543H41.9176L38.8525 5.70447L41.9176 0.845215H48.2191L51.3749 5.70447L48.2191 10.5543Z" fill="url(#paint56_linear_1110_7996)"/>
<path d="M47.6546 1.78511L50.1953 5.70447L47.6546 9.61443H42.4924L40.0222 5.70447L42.4924 1.79451H47.6546M48.2192 0.845215H41.9076L38.8425 5.69507L41.9076 10.5449H48.2192L51.375 5.69507L48.2192 0.845215Z" fill="url(#paint57_linear_1110_7996)"/>
<path d="M48.2191 21.3541H41.9176L38.8525 16.5043L41.9176 11.645H48.2191L51.3749 16.5043L48.2191 21.3541Z" fill="url(#paint58_linear_1110_7996)"/>
<path d="M47.6546 12.5849L50.1953 16.5043L47.6546 20.4142H42.4924L40.0222 16.5043L42.4924 12.5943H47.6546M48.2192 11.645H41.9076L38.8425 16.4949L41.9076 21.3447H48.2192L51.375 16.4949L48.2192 11.645Z" fill="url(#paint59_linear_1110_7996)"/>
<path d="M48.2191 32.1535H41.9176L38.8525 27.2942L41.9176 22.4443H48.2191L51.3749 27.2942L48.2191 32.1535Z" fill="url(#paint60_linear_1110_7996)"/>
<path d="M47.6546 23.3842L50.1953 27.2942L47.6546 31.2042H42.4924L40.0222 27.2942L42.4924 23.3842H47.6546M48.2192 22.4443H41.9076L38.8425 27.2942L41.9076 32.1441H48.2192L51.375 27.2942L48.2192 22.4443Z" fill="url(#paint61_linear_1110_7996)"/>
<path d="M48.2191 42.9528H41.9176L38.8525 38.0935L41.9176 33.2437H48.2191L51.3749 38.0935L48.2191 42.9528Z" fill="url(#paint62_linear_1110_7996)"/>
<path d="M47.6546 34.1835L50.1953 38.0935L47.6546 42.0035H42.4924L40.0222 38.0935L42.4924 34.1835H47.6546ZM48.2192 33.2437H41.9076L38.8425 38.0935L41.9076 42.9434H48.2192L51.375 38.0935L48.2192 33.2437Z" fill="url(#paint63_linear_1110_7996)"/>
<path d="M48.2191 53.7427H41.9176L38.8525 48.8928L41.9176 44.043H48.2191L51.3749 48.8928L48.2191 53.7427Z" fill="url(#paint64_linear_1110_7996)"/>
<path d="M47.6546 44.9829L50.1953 48.8928L47.6546 52.8028H42.4924L40.0222 48.8928L42.4924 44.9829H47.6546ZM48.2192 44.043H41.9076L38.8425 48.8928L41.9076 53.7427H48.2192L51.375 48.8928L48.2192 44.043Z" fill="url(#paint65_linear_1110_7996)"/>
<path d="M48.2191 64.5418H41.9176L38.8525 59.6919L41.9176 54.842H48.2191L51.3749 59.6919L48.2191 64.5418Z" fill="url(#paint66_linear_1110_7996)"/>
<path d="M47.6546 55.7819L50.1953 59.6919L47.6546 63.6019H42.4924L40.0222 59.6919L42.4924 55.7819H47.6546ZM48.2192 54.842H41.9076L38.8425 59.6919L41.9076 64.5418H48.2192L51.375 59.6919L48.2192 54.842Z" fill="url(#paint67_linear_1110_7996)"/>
<path d="M48.2191 75.3414H41.9176L38.8525 70.4916L41.9176 65.6323H48.2191L51.3749 70.4916L48.2191 75.3414Z" fill="url(#paint68_linear_1110_7996)"/>
<path d="M47.6546 66.5725L50.1953 70.4824L47.6546 74.3924H42.4924L40.0222 70.4824L42.4924 66.5725H47.6546ZM48.2192 65.6326H41.9076L38.8425 70.4824L41.9076 75.3323H48.2192L51.375 70.4824L48.2192 65.6326Z" fill="url(#paint69_linear_1110_7996)"/>
<path d="M48.2191 86.141H41.9176L38.8525 81.2911L41.9176 76.4319H48.2191L51.3749 81.2911L48.2191 86.141Z" fill="url(#paint70_linear_1110_7996)"/>
<path d="M47.6546 77.3715L50.1953 81.2815L47.6546 85.1915H42.4924L40.0222 81.2815L42.4924 77.3715H47.6546ZM48.2192 76.4316H41.9076L38.8425 81.2815L41.9076 86.1313H48.2192L51.375 81.2815L48.2192 76.4316Z" fill="url(#paint71_linear_1110_7996)"/>
<path d="M48.2191 96.9403H41.9176L38.8525 92.0811L41.9176 87.2312H48.2191L51.3749 92.0811L48.2191 96.9403Z" fill="url(#paint72_linear_1110_7996)"/>
<path d="M47.6546 88.1709L50.1953 92.0808L47.6546 95.9908H42.4924L40.0222 92.0808L42.4924 88.1709H47.6546ZM48.2192 87.231H41.9076L38.8425 92.0808L41.9076 96.9307H48.2192L51.375 92.0808L48.2192 87.231Z" fill="url(#paint73_linear_1110_7996)"/>
<path d="M58.4427 15.8366H52.1311L49.0762 10.9867L52.1311 6.12744H58.4427L61.5985 10.9867L58.4427 15.8366Z" fill="url(#paint74_linear_1110_7996)"/>
<path d="M57.8782 7.06782L60.419 10.9778L57.8782 14.8877H52.716L50.2458 10.9778L52.716 7.06782H57.8782M58.4428 6.12793H52.1312L49.0662 10.9778L52.1312 15.8276H58.4428L61.5986 10.9778L58.4428 6.12793Z" fill="url(#paint75_linear_1110_7996)"/>
<path d="M58.4427 26.6364H52.1311L49.0762 21.7865L52.1311 16.9272H58.4427L61.5985 21.7865L58.4427 26.6364Z" fill="url(#paint76_linear_1110_7996)"/>
<path d="M57.8782 17.8671L60.419 21.7771L57.8782 25.6871H52.716L50.2458 21.7771L52.716 17.8671H57.8782ZM58.4428 16.9272H52.1312L49.0662 21.7771L52.1312 26.627H58.4428L61.5986 21.7771L58.4428 16.9272Z" fill="url(#paint77_linear_1110_7996)"/>
<path d="M58.4427 37.4357H52.1311L49.0762 32.5764L52.1311 27.7266H58.4427L61.5985 32.5764L58.4427 37.4357Z" fill="url(#paint78_linear_1110_7996)"/>
<path d="M57.8782 28.6665L60.419 32.5764L57.8782 36.4864H52.716L50.2458 32.5764L52.716 28.6665H57.8782ZM58.4428 27.7266H52.1312L49.0662 32.5764L52.1312 37.4263H58.4428L61.5986 32.5764L58.4428 27.7266Z" fill="url(#paint79_linear_1110_7996)"/>
<path d="M58.4427 48.2345H52.1311L49.0762 43.3752L52.1311 38.5254H58.4427L61.5985 43.3752L58.4427 48.2345Z" fill="url(#paint80_linear_1110_7996)"/>
<path d="M57.8782 39.4653L60.419 43.3752L57.8782 47.2852H52.716L50.2458 43.3752L52.716 39.4653H57.8782ZM58.4428 38.5254H52.1312L49.0662 43.3752L52.1312 48.2251H58.4428L61.5986 43.3752L58.4428 38.5254Z" fill="url(#paint81_linear_1110_7996)"/>
<path d="M58.4427 59.0244H52.1311L49.0762 54.1746L52.1311 49.3247H58.4427L61.5985 54.1746L58.4427 59.0244Z" fill="url(#paint82_linear_1110_7996)"/>
<path d="M57.8782 50.2646L60.419 54.1746L57.8782 58.0845H52.716L50.2458 54.1746L52.716 50.2646H57.8782ZM58.4428 49.3247H52.1312L49.0662 54.1746L52.1312 59.0244H58.4428L61.5986 54.1746L58.4428 49.3247Z" fill="url(#paint83_linear_1110_7996)"/>
<path d="M58.4427 69.8245H52.1311L49.0762 64.9746L52.1311 60.1248H58.4427L61.5985 64.9746L58.4427 69.8245Z" fill="url(#paint84_linear_1110_7996)"/>
<path d="M57.8782 61.0647L60.419 64.9746L57.8782 68.8846H52.716L50.2458 64.9746L52.716 61.0647H57.8782ZM58.4428 60.1248H52.1312L49.0662 64.9746L52.1312 69.8245H58.4428L61.5986 64.9746L58.4428 60.1248Z" fill="url(#paint85_linear_1110_7996)"/>
<path d="M58.4427 80.6239H52.1311L49.0762 75.774L52.1311 70.9148H58.4427L61.5985 75.774L58.4427 80.6239Z" fill="url(#paint86_linear_1110_7996)"/>
<path d="M57.8782 71.8544L60.419 75.7644L57.8782 79.6744H52.716L50.2458 75.7644L52.716 71.8544H57.8782ZM58.4428 70.9146H52.1312L49.0662 75.7644L52.1312 80.6143H58.4428L61.5986 75.7644L58.4428 70.9146Z" fill="url(#paint87_linear_1110_7996)"/>
<path d="M58.4427 91.423H52.1311L49.0762 86.5731L52.1311 81.7139H58.4427L61.5985 86.5731L58.4427 91.423Z" fill="url(#paint88_linear_1110_7996)"/>
<path d="M57.8782 82.6538L60.419 86.5637L57.8782 90.4737H52.716L50.2458 86.5637L52.716 82.6538H57.8782ZM58.4428 81.7139H52.1312L49.0662 86.5637L52.1312 91.4136H58.4428L61.5986 86.5637L58.4428 81.7139Z" fill="url(#paint89_linear_1110_7996)"/>
<path d="M68.6058 21.3541H62.3043L59.2393 16.5043L62.3043 11.645H68.6058L71.7616 16.5043L68.6058 21.3541Z" fill="url(#paint90_linear_1110_7996)"/>
<path d="M68.0413 12.5849L70.582 16.4949L68.0413 20.4048H62.8791L60.4089 16.4949L62.8791 12.5849H68.0413ZM68.6059 11.645H62.2943L59.2292 16.4949L62.2943 21.3447H68.6059L71.7617 16.4949L68.6059 11.645Z" fill="url(#paint91_linear_1110_7996)"/>
<path d="M68.6058 32.1535H62.3043L59.2393 27.2942L62.3043 22.4443H68.6058L71.7616 27.2942L68.6058 32.1535Z" fill="url(#paint92_linear_1110_7996)"/>
<path d="M68.0413 23.3842L70.582 27.2942L68.0413 31.2042H62.8791L60.4089 27.2942L62.8791 23.3842H68.0413M68.6059 22.4443H62.2943L59.2292 27.2942L62.2943 32.1441H68.6059L71.7617 27.2942L68.6059 22.4443Z" fill="url(#paint93_linear_1110_7996)"/>
<path d="M68.6058 42.9528H62.3043L59.2393 38.0935L62.3043 33.2437H68.6058L71.7616 38.0935L68.6058 42.9528Z" fill="url(#paint94_linear_1110_7996)"/>
<path d="M68.0413 34.1835L70.582 38.0935L68.0413 42.0035H62.8791L60.4089 38.0935L62.8791 34.1835H68.0413ZM68.6059 33.2437H62.2943L59.2292 38.0935L62.2943 42.9434H68.6059L71.7617 38.0935L68.6059 33.2437Z" fill="url(#paint95_linear_1110_7996)"/>
<path d="M68.6058 53.7427H62.3043L59.2393 48.8928L62.3043 44.043H68.6058L71.7616 48.8928L68.6058 53.7427Z" fill="url(#paint96_linear_1110_7996)"/>
<path d="M68.0413 44.9829L70.582 48.8928L68.0413 52.8028H62.8791L60.4089 48.8928L62.8791 44.9829H68.0413ZM68.6059 44.043H62.2943L59.2292 48.8928L62.2943 53.7427H68.6059L71.7617 48.8928L68.6059 44.043Z" fill="url(#paint97_linear_1110_7996)"/>
<path d="M68.6058 64.5418H62.3043L59.2393 59.6919L62.3043 54.842H68.6058L71.7616 59.6919L68.6058 64.5418Z" fill="url(#paint98_linear_1110_7996)"/>
<path d="M68.0413 55.7819L70.582 59.6919L68.0413 63.6019H62.8791L60.4089 59.6919L62.8791 55.7819H68.0413ZM68.6059 54.842H62.2943L59.2292 59.6919L62.2943 64.5418H68.6059L71.7617 59.6919L68.6059 54.842Z" fill="url(#paint99_linear_1110_7996)"/>
<path d="M68.6058 75.3414H62.3043L59.2393 70.4916L62.3043 65.6323H68.6058L71.7616 70.4916L68.6058 75.3414Z" fill="url(#paint100_linear_1110_7996)"/>
<path d="M68.0413 66.5725L70.582 70.4824L68.0413 74.3924H62.8791L60.4089 70.4824L62.8791 66.5725H68.0413ZM68.6059 65.6326H62.2943L59.2292 70.4824L62.2943 75.3323H68.6059L71.7617 70.4824L68.6059 65.6326Z" fill="url(#paint101_linear_1110_7996)"/>
<path d="M68.6058 96.9403H62.3043L59.2393 92.0811L62.3043 87.2312H68.6058L71.7616 92.0811L68.6058 96.9403Z" fill="url(#paint102_linear_1110_7996)"/>
<path d="M68.0413 88.1709L70.582 92.0808L68.0413 95.9908H62.8791L60.4089 92.0808L62.8791 88.1709H68.0413ZM68.6059 87.231H62.2943L59.2292 92.0808L62.2943 96.9307H68.6059L71.7617 92.0808L68.6059 87.231Z" fill="url(#paint103_linear_1110_7996)"/>
<path d="M78.8294 15.8366H72.5279L69.4629 10.9867L72.5279 6.12744H78.8294L81.9852 10.9867L78.8294 15.8366Z" fill="url(#paint104_linear_1110_7996)"/>
<path d="M78.2649 7.06782L80.8057 10.9778L78.2649 14.8877H73.1027L70.6325 10.9778L73.1027 7.06782H78.2649M78.8295 6.12793H72.5179L69.4529 10.9778L72.5179 15.8276H78.8295L81.9853 10.9778L78.8295 6.12793Z" fill="url(#paint105_linear_1110_7996)"/>
<path d="M78.8294 26.6364H72.5279L69.4629 21.7865L72.5279 16.9272H78.8294L81.9852 21.7865L78.8294 26.6364Z" fill="url(#paint106_linear_1110_7996)"/>
<path d="M78.2649 17.8671L80.8057 21.7771L78.2649 25.6871H73.1027L70.6325 21.7771L73.1027 17.8671H78.2649ZM78.8295 16.9272H72.5179L69.4529 21.7771L72.5179 26.627H78.8295L81.9853 21.7771L78.8295 16.9272Z" fill="url(#paint107_linear_1110_7996)"/>
<path d="M78.8294 37.4357H72.5279L69.4629 32.5764L72.5279 27.7266H78.8294L81.9852 32.5764L78.8294 37.4357Z" fill="url(#paint108_linear_1110_7996)"/>
<path d="M78.2649 28.6665L80.8057 32.5764L78.2649 36.4864H73.1027L70.6325 32.5764L73.1027 28.6665H78.2649ZM78.8295 27.7266H72.5179L69.4529 32.5764L72.5179 37.4263H78.8295L81.9853 32.5764L78.8295 27.7266Z" fill="url(#paint109_linear_1110_7996)"/>
<path d="M78.8294 48.2345H72.5279L69.4629 43.3752L72.5279 38.5254H78.8294L81.9852 43.3752L78.8294 48.2345Z" fill="url(#paint110_linear_1110_7996)"/>
<path d="M78.2649 39.4653L80.8057 43.3752L78.2649 47.2852H73.1027L70.6325 43.3752L73.1027 39.4653H78.2649ZM78.8295 38.5254H72.5179L69.4529 43.3752L72.5179 48.2251H78.8295L81.9853 43.3752L78.8295 38.5254Z" fill="url(#paint111_linear_1110_7996)"/>
<path d="M78.8294 59.0244H72.5279L69.4629 54.1746L72.5279 49.3247H78.8294L81.9852 54.1746L78.8294 59.0244Z" fill="url(#paint112_linear_1110_7996)"/>
<path d="M78.2649 50.2646L80.8057 54.1746L78.2649 58.0845H73.1027L70.6325 54.1746L73.1027 50.2646H78.2649ZM78.8295 49.3247H72.5179L69.4529 54.1746L72.5179 59.0244H78.8295L81.9853 54.1746L78.8295 49.3247Z" fill="url(#paint113_linear_1110_7996)"/>
<path d="M89.0026 21.3541H82.691L79.626 16.5043L82.691 11.645H89.0026L92.1483 16.5043L89.0026 21.3541Z" fill="url(#paint114_linear_1110_7996)"/>
<path d="M88.4279 12.5849L90.9687 16.4949L88.4279 20.4048H83.2657L80.7955 16.4949L83.2657 12.5849H88.4279ZM89.0026 11.645H82.691L79.626 16.4949L82.691 21.3447H89.0026L92.1584 16.4949L89.0026 11.645Z" fill="url(#paint115_linear_1110_7996)"/>
<path d="M89.0026 32.1535H82.691L79.626 27.2942L82.691 22.4443H89.0026L92.1483 27.2942L89.0026 32.1535Z" fill="url(#paint116_linear_1110_7996)"/>
<path d="M88.4279 23.3842L90.9687 27.2942L88.4279 31.2042H83.2657L80.7955 27.2942L83.2657 23.3842H88.4279M89.0026 22.4443H82.691L79.626 27.2942L82.691 32.1441H89.0026L92.1584 27.2942L89.0026 22.4443Z" fill="url(#paint117_linear_1110_7996)"/>
<path d="M89.0026 42.9528H82.691L79.626 38.0935L82.691 33.2437H89.0026L92.1483 38.0935L89.0026 42.9528Z" fill="url(#paint118_linear_1110_7996)"/>
<path d="M88.4279 34.1835L90.9687 38.0935L88.4279 42.0035H83.2657L80.7955 38.0935L83.2657 34.1835H88.4279ZM89.0026 33.2437H82.691L79.626 38.0935L82.691 42.9434H89.0026L92.1584 38.0935L89.0026 33.2437Z" fill="url(#paint119_linear_1110_7996)"/>
<path d="M89.0026 53.7427H82.691L79.626 48.8928L82.691 44.043H89.0026L92.1483 48.8928L89.0026 53.7427Z" fill="url(#paint120_linear_1110_7996)"/>
<path d="M88.4279 44.9829L90.9687 48.8928L88.4279 52.8028H83.2657L80.7955 48.8928L83.2657 44.9829H88.4279ZM89.0026 44.043H82.691L79.626 48.8928L82.691 53.7427H89.0026L92.1584 48.8928L89.0026 44.043Z" fill="url(#paint121_linear_1110_7996)"/>
<path d="M99.2159 15.8366H92.9144L89.8494 10.9867L92.9144 6.12744H99.2159L102.372 10.9867L99.2159 15.8366Z" fill="url(#paint122_linear_1110_7996)"/>
<path d="M98.6514 7.06782L101.192 10.9778L98.6514 14.8877H93.4892L91.019 10.9778L93.4892 7.06782H98.6514M99.216 6.12793H92.9044L89.8394 10.9778L92.9044 15.8276H99.216L102.372 10.9778L99.216 6.12793Z" fill="url(#paint123_linear_1110_7996)"/>
<path d="M99.2159 26.6364H92.9144L89.8494 21.7865L92.9144 16.9272H99.2159L102.372 21.7865L99.2159 26.6364Z" fill="url(#paint124_linear_1110_7996)"/>
<path d="M98.6514 17.8671L101.192 21.7771L98.6514 25.6871H93.4892L91.019 21.7771L93.4892 17.8671H98.6514ZM99.216 16.9272H92.9044L89.8394 21.7771L92.9044 26.627H99.216L102.372 21.7771L99.216 16.9272Z" fill="url(#paint125_linear_1110_7996)"/>
<path d="M99.2159 37.4357H92.9144L89.8494 32.5764L92.9144 27.7266H99.2159L102.372 32.5764L99.2159 37.4357Z" fill="url(#paint126_linear_1110_7996)"/>
<path d="M98.6514 28.6665L101.192 32.5764L98.6514 36.4864H93.4892L91.019 32.5764L93.4892 28.6665H98.6514ZM99.216 27.7266H92.9044L89.8394 32.5764L92.9044 37.4263H99.216L102.372 32.5764L99.216 27.7266Z" fill="#F89D16"/>
</g>
<path opacity="0.39" d="M25.9674 79.4117L25.5943 71.7798L22.0453 70.8211L19.3432 66.5445L22.0453 61.3093L18.5971 57.6249L21.3799 52.3897L24.0215 47.2673L18.5971 38.6109L22.0453 33.7516L18.5971 29.0991L12.4267 28.5164L9.65404 23.2812L4.09863 14.7375L10.3497 4.84986L12.4267 0L18.5971 0.582734L21.3799 4.84986H39.3266L45.9709 9.86889L48.9452 10.0851H54.5006L57.9488 13.7789H63.5042L73.2034 11.2411L75.8954 14.7375H81.4509L84.2336 19.0141H90.7065L93.6909 23.6947V33.3851L87.7524 38.1409L84.5966 38.1879L82.4893 42.3517L75.23 42.878L72.4473 47.1545L72.7699 52.3709L66.2768 57.0422L63.5042 61.3093L63.4538 67.6536L59.4813 71.7798L56.3053 77.7293L50.6289 81.8836L47.3824 88.6133L43.299 85.8782L36.5539 85.1827H30.9985L25.9674 79.4117Z" fill="url(#paint127_linear_1110_7996)"/>
<defs>
<linearGradient id="paint0_linear_1110_7996" x1="47.3751" y1="92.1556" x2="50.4149" y2="92.1556" gradientUnits="userSpaceOnUse">
<stop stop-color="#FCCE0B"/>
<stop offset="1" stop-color="#F4871B"/>
</linearGradient>
<linearGradient id="paint1_linear_1110_7996" x1="55.4791" y1="95.1465" x2="59.7573" y2="95.1465" gradientUnits="userSpaceOnUse">
<stop stop-color="#FCCE0B"/>
<stop offset="1" stop-color="#F4871B"/>
</linearGradient>
<linearGradient id="paint2_linear_1110_7996" x1="84.2096" y1="15.4427" x2="88.4878" y2="15.4427" gradientUnits="userSpaceOnUse">
<stop stop-color="#FCCE0B"/>
<stop offset="1" stop-color="#F4871B"/>
</linearGradient>
<linearGradient id="paint3_linear_1110_7996" x1="49.7872" y1="80.5872" x2="54.8546" y2="89.4822" gradientUnits="userSpaceOnUse">
<stop stop-color="#FCCE0B"/>
<stop offset="1" stop-color="#F4871B"/>
</linearGradient>
<linearGradient id="paint4_linear_1110_7996" x1="1.7837" y1="0.845215" x2="7.57221" y2="17.0026" gradientUnits="userSpaceOnUse">
<stop stop-color="#FCCE0B"/>
<stop offset="1" stop-color="#F4871B"/>
</linearGradient>
<linearGradient id="paint5_linear_1110_7996" x1="1.7837" y1="0.845215" x2="7.56228" y2="16.9905" gradientUnits="userSpaceOnUse">
<stop stop-color="#FCCE0B"/>
<stop offset="1" stop-color="#F4871B"/>
</linearGradient>
<linearGradient id="paint6_linear_1110_7996" x1="1.7837" y1="11.645" x2="7.57221" y2="27.8024" gradientUnits="userSpaceOnUse">
<stop stop-color="#FCCE0B"/>
<stop offset="1" stop-color="#F4871B"/>
</linearGradient>
<linearGradient id="paint7_linear_1110_7996" x1="1.7837" y1="11.645" x2="7.57221" y2="27.8024" gradientUnits="userSpaceOnUse">
<stop stop-color="#FCCE0B"/>
<stop offset="1" stop-color="#F4871B"/>
</linearGradient>
<linearGradient id="paint8_linear_1110_7996" x1="1.7837" y1="22.4443" x2="7.57221" y2="38.6018" gradientUnits="userSpaceOnUse">
<stop stop-color="#FCCE0B"/>
<stop offset="1" stop-color="#F4871B"/>
</linearGradient>
<linearGradient id="paint9_linear_1110_7996" x1="1.7837" y1="22.4443" x2="7.56228" y2="38.5897" gradientUnits="userSpaceOnUse">
<stop stop-color="#FCCE0B"/>
<stop offset="1" stop-color="#F4871B"/>
</linearGradient>
<linearGradient id="paint10_linear_1110_7996" x1="12.0073" y1="-4.6626" x2="17.7859" y2="11.4827" gradientUnits="userSpaceOnUse">
<stop stop-color="#FCCE0B"/>
<stop offset="1" stop-color="#F4871B"/>
</linearGradient>
<linearGradient id="paint11_linear_1110_7996" x1="12.0073" y1="-4.6626" x2="17.7859" y2="11.4827" gradientUnits="userSpaceOnUse">
<stop stop-color="#FCCE0B"/>
<stop offset="1" stop-color="#F4871B"/>
</linearGradient>
<linearGradient id="paint12_linear_1110_7996" x1="12.0073" y1="6.12793" x2="17.7958" y2="22.2853" gradientUnits="userSpaceOnUse">
<stop stop-color="#FCCE0B"/>
<stop offset="1" stop-color="#F4871B"/>
</linearGradient>
<linearGradient id="paint13_linear_1110_7996" x1="12.0073" y1="6.12793" x2="17.7859" y2="22.2733" gradientUnits="userSpaceOnUse">
<stop stop-color="#FCCE0B"/>
<stop offset="1" stop-color="#F4871B"/>
</linearGradient>
<linearGradient id="paint14_linear_1110_7996" x1="12.0073" y1="16.9272" x2="17.7958" y2="33.0847" gradientUnits="userSpaceOnUse">
<stop stop-color="#FCCE0B"/>
<stop offset="1" stop-color="#F4871B"/>
</linearGradient>
<linearGradient id="paint15_linear_1110_7996" x1="12.0073" y1="16.9272" x2="17.7859" y2="33.0726" gradientUnits="userSpaceOnUse">
<stop stop-color="#FCCE0B"/>
<stop offset="1" stop-color="#F4871B"/>
</linearGradient>
<linearGradient id="paint16_linear_1110_7996" x1="12.0073" y1="27.7266" x2="17.7958" y2="43.884" gradientUnits="userSpaceOnUse">
<stop stop-color="#FCCE0B"/>
<stop offset="1" stop-color="#F4871B"/>
</linearGradient>
<linearGradient id="paint17_linear_1110_7996" x1="12.0073" y1="27.7266" x2="17.7859" y2="43.8719" gradientUnits="userSpaceOnUse">
<stop stop-color="#FCCE0B"/>
<stop offset="1" stop-color="#F4871B"/>
</linearGradient>
<linearGradient id="paint18_linear_1110_7996" x1="12.0073" y1="38.5254" x2="17.7958" y2="54.6828" gradientUnits="userSpaceOnUse">
<stop stop-color="#FCCE0B"/>
<stop offset="1" stop-color="#F4871B"/>
</linearGradient>
<linearGradient id="paint19_linear_1110_7996" x1="12.0073" y1="38.5254" x2="17.7859" y2="54.6707" gradientUnits="userSpaceOnUse">
<stop stop-color="#FCCE0B"/>
<stop offset="1" stop-color="#F4871B"/>
</linearGradient>
<linearGradient id="paint20_linear_1110_7996" x1="12.0073" y1="49.3247" x2="17.7859" y2="65.47" gradientUnits="userSpaceOnUse">
<stop stop-color="#FCCE0B"/>
<stop offset="1" stop-color="#F4871B"/>
</linearGradient>
<linearGradient id="paint21_linear_1110_7996" x1="12.0073" y1="49.3247" x2="17.7859" y2="65.47" gradientUnits="userSpaceOnUse">
<stop stop-color="#FCCE0B"/>
<stop offset="1" stop-color="#F4871B"/>
</linearGradient>
<linearGradient id="paint22_linear_1110_7996" x1="12.0073" y1="60.1248" x2="17.7859" y2="76.2701" gradientUnits="userSpaceOnUse">
<stop stop-color="#FCCE0B"/>
<stop offset="1" stop-color="#F4871B"/>
</linearGradient>
<linearGradient id="paint23_linear_1110_7996" x1="12.0073" y1="60.1248" x2="17.7859" y2="76.2701" gradientUnits="userSpaceOnUse">
<stop stop-color="#FCCE0B"/>
<stop offset="1" stop-color="#F4871B"/>
</linearGradient>
<linearGradient id="paint24_linear_1110_7996" x1="22.1774" y1="0.845215" x2="27.9695" y2="16.9997" gradientUnits="userSpaceOnUse">
<stop stop-color="#FCCE0B"/>
<stop offset="1" stop-color="#F4871B"/>
</linearGradient>
<linearGradient id="paint25_linear_1110_7996" x1="22.1704" y1="0.845215" x2="27.949" y2="16.9905" gradientUnits="userSpaceOnUse">
<stop stop-color="#FCCE0B"/>
<stop offset="1" stop-color="#F4871B"/>
</linearGradient>
<linearGradient id="paint26_linear_1110_7996" x1="22.1774" y1="11.645" x2="27.9695" y2="27.7995" gradientUnits="userSpaceOnUse">
<stop stop-color="#FCCE0B"/>
<stop offset="1" stop-color="#F4871B"/>
</linearGradient>
<linearGradient id="paint27_linear_1110_7996" x1="22.1704" y1="11.645" x2="27.949" y2="27.7903" gradientUnits="userSpaceOnUse">
<stop stop-color="#FCCE0B"/>
<stop offset="1" stop-color="#F4871B"/>
</linearGradient>
<linearGradient id="paint28_linear_1110_7996" x1="22.1774" y1="22.4443" x2="27.9696" y2="38.5988" gradientUnits="userSpaceOnUse">
<stop stop-color="#FCCE0B"/>
<stop offset="1" stop-color="#F4871B"/>
</linearGradient>
<linearGradient id="paint29_linear_1110_7996" x1="22.1704" y1="22.4443" x2="27.949" y2="38.5897" gradientUnits="userSpaceOnUse">
<stop stop-color="#FCCE0B"/>
<stop offset="1" stop-color="#F4871B"/>
</linearGradient>
<linearGradient id="paint30_linear_1110_7996" x1="22.1774" y1="33.2437" x2="27.9695" y2="49.3981" gradientUnits="userSpaceOnUse">
<stop stop-color="#FCCE0B"/>
<stop offset="1" stop-color="#F4871B"/>
</linearGradient>
<linearGradient id="paint31_linear_1110_7996" x1="22.1704" y1="33.2437" x2="27.949" y2="49.389" gradientUnits="userSpaceOnUse">
<stop stop-color="#FCCE0B"/>
<stop offset="1" stop-color="#F4871B"/>
</linearGradient>
<linearGradient id="paint32_linear_1110_7996" x1="22.1774" y1="44.043" x2="27.9596" y2="60.1853" gradientUnits="userSpaceOnUse">
<stop stop-color="#FCCE0B"/>
<stop offset="1" stop-color="#F4871B"/>
</linearGradient>
<linearGradient id="paint33_linear_1110_7996" x1="22.1704" y1="44.043" x2="27.949" y2="60.1883" gradientUnits="userSpaceOnUse">
<stop stop-color="#FCCE0B"/>
<stop offset="1" stop-color="#F4871B"/>
</linearGradient>
<linearGradient id="paint34_linear_1110_7996" x1="22.1774" y1="54.842" x2="27.9596" y2="70.9844" gradientUnits="userSpaceOnUse">
<stop stop-color="#FCCE0B"/>
<stop offset="1" stop-color="#F4871B"/>
</linearGradient>
<linearGradient id="paint35_linear_1110_7996" x1="22.1704" y1="54.842" x2="27.949" y2="70.9874" gradientUnits="userSpaceOnUse">
<stop stop-color="#FCCE0B"/>
<stop offset="1" stop-color="#F4871B"/>
</linearGradient>
<linearGradient id="paint36_linear_1110_7996" x1="22.1774" y1="65.6323" x2="27.9696" y2="81.7868" gradientUnits="userSpaceOnUse">
<stop stop-color="#FCCE0B"/>
<stop offset="1" stop-color="#F4871B"/>
</linearGradient>
<linearGradient id="paint37_linear_1110_7996" x1="22.1704" y1="65.6326" x2="27.949" y2="81.7779" gradientUnits="userSpaceOnUse">
<stop stop-color="#FCCE0B"/>
<stop offset="1" stop-color="#F4871B"/>
</linearGradient>
<linearGradient id="paint38_linear_1110_7996" x1="22.1774" y1="76.4319" x2="27.9695" y2="92.5863" gradientUnits="userSpaceOnUse">
<stop stop-color="#FCCE0B"/>
<stop offset="1" stop-color="#F4871B"/>
</linearGradient>
<linearGradient id="paint39_linear_1110_7996" x1="22.1704" y1="76.4316" x2="27.949" y2="92.577" gradientUnits="userSpaceOnUse">
<stop stop-color="#FCCE0B"/>
<stop offset="1" stop-color="#F4871B"/>
</linearGradient>
<linearGradient id="paint40_linear_1110_7996" x1="32.3938" y1="6.12793" x2="38.1823" y2="22.2853" gradientUnits="userSpaceOnUse">
<stop stop-color="#FCCE0B"/>
<stop offset="1" stop-color="#F4871B"/>
</linearGradient>
<linearGradient id="paint41_linear_1110_7996" x1="32.3938" y1="6.12793" x2="38.1724" y2="22.2733" gradientUnits="userSpaceOnUse">
<stop stop-color="#FCCE0B"/>
<stop offset="1" stop-color="#F4871B"/>
</linearGradient>
<linearGradient id="paint42_linear_1110_7996" x1="32.3938" y1="16.9272" x2="38.1823" y2="33.0847" gradientUnits="userSpaceOnUse">
<stop stop-color="#FCCE0B"/>
<stop offset="1" stop-color="#F4871B"/>
</linearGradient>
<linearGradient id="paint43_linear_1110_7996" x1="32.3938" y1="16.9272" x2="38.1724" y2="33.0726" gradientUnits="userSpaceOnUse">
<stop stop-color="#FCCE0B"/>
<stop offset="1" stop-color="#F4871B"/>
</linearGradient>
<linearGradient id="paint44_linear_1110_7996" x1="32.3938" y1="27.7266" x2="38.1823" y2="43.884" gradientUnits="userSpaceOnUse">
<stop stop-color="#FCCE0B"/>
<stop offset="1" stop-color="#F4871B"/>
</linearGradient>
<linearGradient id="paint45_linear_1110_7996" x1="32.3938" y1="27.7266" x2="38.1724" y2="43.8719" gradientUnits="userSpaceOnUse">
<stop stop-color="#FCCE0B"/>
<stop offset="1" stop-color="#F4871B"/>
</linearGradient>
<linearGradient id="paint46_linear_1110_7996" x1="32.3938" y1="38.5254" x2="38.1823" y2="54.6828" gradientUnits="userSpaceOnUse">
<stop stop-color="#FCCE0B"/>
<stop offset="1" stop-color="#F4871B"/>
</linearGradient>
<linearGradient id="paint47_linear_1110_7996" x1="32.3938" y1="38.5254" x2="38.1724" y2="54.6707" gradientUnits="userSpaceOnUse">
<stop stop-color="#FCCE0B"/>
<stop offset="1" stop-color="#F4871B"/>
</linearGradient>
<linearGradient id="paint48_linear_1110_7996" x1="32.3938" y1="49.3247" x2="38.1724" y2="65.47" gradientUnits="userSpaceOnUse">
<stop stop-color="#FCCE0B"/>
<stop offset="1" stop-color="#F4871B"/>
</linearGradient>
<linearGradient id="paint49_linear_1110_7996" x1="32.3938" y1="49.3247" x2="38.1724" y2="65.47" gradientUnits="userSpaceOnUse">
<stop stop-color="#FCCE0B"/>
<stop offset="1" stop-color="#F4871B"/>
</linearGradient>
<linearGradient id="paint50_linear_1110_7996" x1="32.3938" y1="60.1248" x2="38.1724" y2="76.2701" gradientUnits="userSpaceOnUse">
<stop stop-color="#FCCE0B"/>
<stop offset="1" stop-color="#F4871B"/>
</linearGradient>
<linearGradient id="paint51_linear_1110_7996" x1="32.3938" y1="60.1248" x2="38.1724" y2="76.2701" gradientUnits="userSpaceOnUse">
<stop stop-color="#FCCE0B"/>
<stop offset="1" stop-color="#F4871B"/>
</linearGradient>
<linearGradient id="paint52_linear_1110_7996" x1="32.3938" y1="70.9146" x2="38.1823" y2="87.072" gradientUnits="userSpaceOnUse">
<stop stop-color="#FCCE0B"/>
<stop offset="1" stop-color="#F4871B"/>
</linearGradient>
<linearGradient id="paint53_linear_1110_7996" x1="32.3938" y1="70.9146" x2="38.1724" y2="87.0599" gradientUnits="userSpaceOnUse">
<stop stop-color="#FCCE0B"/>
<stop offset="1" stop-color="#F4871B"/>
</linearGradient>
<linearGradient id="paint54_linear_1110_7996" x1="32.3938" y1="81.7139" x2="38.1823" y2="97.8713" gradientUnits="userSpaceOnUse">
<stop stop-color="#FCCE0B"/>
<stop offset="1" stop-color="#F4871B"/>
</linearGradient>
<linearGradient id="paint55_linear_1110_7996" x1="32.3938" y1="81.7139" x2="38.1724" y2="97.8592" gradientUnits="userSpaceOnUse">
<stop stop-color="#FCCE0B"/>
<stop offset="1" stop-color="#F4871B"/>
</linearGradient>
<linearGradient id="paint56_linear_1110_7996" x1="42.5639" y1="0.845215" x2="48.356" y2="16.9997" gradientUnits="userSpaceOnUse">
<stop stop-color="#FCCE0B"/>
<stop offset="1" stop-color="#F4871B"/>
</linearGradient>
<linearGradient id="paint57_linear_1110_7996" x1="42.5569" y1="0.845215" x2="48.3355" y2="16.9905" gradientUnits="userSpaceOnUse">
<stop stop-color="#FCCE0B"/>
<stop offset="1" stop-color="#F4871B"/>
</linearGradient>
<linearGradient id="paint58_linear_1110_7996" x1="42.5639" y1="11.645" x2="48.356" y2="27.7995" gradientUnits="userSpaceOnUse">
<stop stop-color="#FCCE0B"/>
<stop offset="1" stop-color="#F4871B"/>
</linearGradient>
<linearGradient id="paint59_linear_1110_7996" x1="42.5569" y1="11.645" x2="48.3355" y2="27.7903" gradientUnits="userSpaceOnUse">
<stop stop-color="#FCCE0B"/>
<stop offset="1" stop-color="#F4871B"/>
</linearGradient>
<linearGradient id="paint60_linear_1110_7996" x1="42.5639" y1="22.4443" x2="48.356" y2="38.5988" gradientUnits="userSpaceOnUse">
<stop stop-color="#FCCE0B"/>
<stop offset="1" stop-color="#F4871B"/>
</linearGradient>
<linearGradient id="paint61_linear_1110_7996" x1="42.5569" y1="22.4443" x2="48.3355" y2="38.5897" gradientUnits="userSpaceOnUse">
<stop stop-color="#FCCE0B"/>
<stop offset="1" stop-color="#F4871B"/>
</linearGradient>
<linearGradient id="paint62_linear_1110_7996" x1="42.5639" y1="33.2437" x2="48.356" y2="49.3981" gradientUnits="userSpaceOnUse">
<stop stop-color="#FCCE0B"/>
<stop offset="1" stop-color="#F4871B"/>
</linearGradient>
<linearGradient id="paint63_linear_1110_7996" x1="42.5569" y1="33.2437" x2="48.3355" y2="49.389" gradientUnits="userSpaceOnUse">
<stop stop-color="#FCCE0B"/>
<stop offset="1" stop-color="#F4871B"/>
</linearGradient>
<linearGradient id="paint64_linear_1110_7996" x1="42.5639" y1="44.043" x2="48.3461" y2="60.1853" gradientUnits="userSpaceOnUse">
<stop stop-color="#FCCE0B"/>
<stop offset="1" stop-color="#F4871B"/>
</linearGradient>
<linearGradient id="paint65_linear_1110_7996" x1="42.5569" y1="44.043" x2="48.3355" y2="60.1883" gradientUnits="userSpaceOnUse">
<stop stop-color="#FCCE0B"/>
<stop offset="1" stop-color="#F4871B"/>
</linearGradient>
<linearGradient id="paint66_linear_1110_7996" x1="42.5639" y1="54.842" x2="48.3461" y2="70.9844" gradientUnits="userSpaceOnUse">
<stop stop-color="#FCCE0B"/>
<stop offset="1" stop-color="#F4871B"/>
</linearGradient>
<linearGradient id="paint67_linear_1110_7996" x1="42.5569" y1="54.842" x2="48.3355" y2="70.9874" gradientUnits="userSpaceOnUse">
<stop stop-color="#FCCE0B"/>
<stop offset="1" stop-color="#F4871B"/>
</linearGradient>
<linearGradient id="paint68_linear_1110_7996" x1="42.5639" y1="65.6323" x2="48.356" y2="81.7868" gradientUnits="userSpaceOnUse">
<stop stop-color="#FCCE0B"/>
<stop offset="1" stop-color="#F4871B"/>
</linearGradient>
<linearGradient id="paint69_linear_1110_7996" x1="42.5569" y1="65.6326" x2="48.3355" y2="81.7779" gradientUnits="userSpaceOnUse">
<stop stop-color="#FCCE0B"/>
<stop offset="1" stop-color="#F4871B"/>
</linearGradient>
<linearGradient id="paint70_linear_1110_7996" x1="42.5639" y1="76.4319" x2="48.356" y2="92.5863" gradientUnits="userSpaceOnUse">
<stop stop-color="#FCCE0B"/>
<stop offset="1" stop-color="#F4871B"/>
</linearGradient>
<linearGradient id="paint71_linear_1110_7996" x1="42.5569" y1="76.4316" x2="48.3355" y2="92.577" gradientUnits="userSpaceOnUse">
<stop stop-color="#FCCE0B"/>
<stop offset="1" stop-color="#F4871B"/>
</linearGradient>
<linearGradient id="paint72_linear_1110_7996" x1="42.5639" y1="87.2312" x2="48.356" y2="103.386" gradientUnits="userSpaceOnUse">
<stop stop-color="#FCCE0B"/>
<stop offset="1" stop-color="#F4871B"/>
</linearGradient>
<linearGradient id="paint73_linear_1110_7996" x1="42.5569" y1="87.231" x2="48.3355" y2="103.376" gradientUnits="userSpaceOnUse">
<stop stop-color="#FCCE0B"/>
<stop offset="1" stop-color="#F4871B"/>
</linearGradient>
<linearGradient id="paint74_linear_1110_7996" x1="52.7875" y1="6.12744" x2="58.5797" y2="22.2819" gradientUnits="userSpaceOnUse">
<stop stop-color="#FCCE0B"/>
<stop offset="1" stop-color="#F4871B"/>
</linearGradient>
<linearGradient id="paint75_linear_1110_7996" x1="52.7805" y1="6.12793" x2="58.5591" y2="22.2733" gradientUnits="userSpaceOnUse">
<stop stop-color="#FCCE0B"/>
<stop offset="1" stop-color="#F4871B"/>
</linearGradient>
<linearGradient id="paint76_linear_1110_7996" x1="52.7875" y1="16.9272" x2="58.5797" y2="33.0817" gradientUnits="userSpaceOnUse">
<stop stop-color="#FCCE0B"/>
<stop offset="1" stop-color="#F4871B"/>
</linearGradient>
<linearGradient id="paint77_linear_1110_7996" x1="52.7805" y1="16.9272" x2="58.5591" y2="33.0726" gradientUnits="userSpaceOnUse">
<stop stop-color="#FCCE0B"/>
<stop offset="1" stop-color="#F4871B"/>
</linearGradient>
<linearGradient id="paint78_linear_1110_7996" x1="52.7875" y1="27.7266" x2="58.5797" y2="43.881" gradientUnits="userSpaceOnUse">
<stop stop-color="#FCCE0B"/>
<stop offset="1" stop-color="#F4871B"/>
</linearGradient>
<linearGradient id="paint79_linear_1110_7996" x1="52.7805" y1="27.7266" x2="58.5591" y2="43.8719" gradientUnits="userSpaceOnUse">
<stop stop-color="#FCCE0B"/>
<stop offset="1" stop-color="#F4871B"/>
</linearGradient>
<linearGradient id="paint80_linear_1110_7996" x1="52.7875" y1="38.5254" x2="58.5797" y2="54.6798" gradientUnits="userSpaceOnUse">
<stop stop-color="#FCCE0B"/>
<stop offset="1" stop-color="#F4871B"/>
</linearGradient>
<linearGradient id="paint81_linear_1110_7996" x1="52.7805" y1="38.5254" x2="58.5591" y2="54.6707" gradientUnits="userSpaceOnUse">
<stop stop-color="#FCCE0B"/>
<stop offset="1" stop-color="#F4871B"/>
</linearGradient>
<linearGradient id="paint82_linear_1110_7996" x1="52.7875" y1="49.3247" x2="58.5697" y2="65.4671" gradientUnits="userSpaceOnUse">
<stop stop-color="#FCCE0B"/>
<stop offset="1" stop-color="#F4871B"/>
</linearGradient>
<linearGradient id="paint83_linear_1110_7996" x1="52.7805" y1="49.3247" x2="58.5591" y2="65.47" gradientUnits="userSpaceOnUse">
<stop stop-color="#FCCE0B"/>
<stop offset="1" stop-color="#F4871B"/>
</linearGradient>
<linearGradient id="paint84_linear_1110_7996" x1="52.7875" y1="60.1248" x2="58.5697" y2="76.2671" gradientUnits="userSpaceOnUse">
<stop stop-color="#FCCE0B"/>
<stop offset="1" stop-color="#F4871B"/>
</linearGradient>
<linearGradient id="paint85_linear_1110_7996" x1="52.7805" y1="60.1248" x2="58.5591" y2="76.2701" gradientUnits="userSpaceOnUse">
<stop stop-color="#FCCE0B"/>
<stop offset="1" stop-color="#F4871B"/>
</linearGradient>
<linearGradient id="paint86_linear_1110_7996" x1="52.7875" y1="70.9148" x2="58.5797" y2="87.0692" gradientUnits="userSpaceOnUse">
<stop stop-color="#FCCE0B"/>
<stop offset="1" stop-color="#F4871B"/>
</linearGradient>
<linearGradient id="paint87_linear_1110_7996" x1="52.7805" y1="70.9146" x2="58.5591" y2="87.0599" gradientUnits="userSpaceOnUse">
<stop stop-color="#FCCE0B"/>
<stop offset="1" stop-color="#F4871B"/>
</linearGradient>
<linearGradient id="paint88_linear_1110_7996" x1="52.7875" y1="81.7139" x2="58.5797" y2="97.8683" gradientUnits="userSpaceOnUse">
<stop stop-color="#FCCE0B"/>
<stop offset="1" stop-color="#F4871B"/>
</linearGradient>
<linearGradient id="paint89_linear_1110_7996" x1="52.7805" y1="81.7139" x2="58.5591" y2="97.8592" gradientUnits="userSpaceOnUse">
<stop stop-color="#FCCE0B"/>
<stop offset="1" stop-color="#F4871B"/>
</linearGradient>
<linearGradient id="paint90_linear_1110_7996" x1="62.9506" y1="11.645" x2="68.7427" y2="27.7995" gradientUnits="userSpaceOnUse">
<stop stop-color="#FCCE0B"/>
<stop offset="1" stop-color="#F4871B"/>
</linearGradient>
<linearGradient id="paint91_linear_1110_7996" x1="62.9436" y1="11.645" x2="68.7222" y2="27.7903" gradientUnits="userSpaceOnUse">
<stop stop-color="#FCCE0B"/>
<stop offset="1" stop-color="#F4871B"/>
</linearGradient>
<linearGradient id="paint92_linear_1110_7996" x1="62.9506" y1="22.4443" x2="68.7427" y2="38.5988" gradientUnits="userSpaceOnUse">
<stop stop-color="#FCCE0B"/>
<stop offset="1" stop-color="#F4871B"/>
</linearGradient>
<linearGradient id="paint93_linear_1110_7996" x1="62.9436" y1="22.4443" x2="68.7222" y2="38.5897" gradientUnits="userSpaceOnUse">
<stop stop-color="#FCCE0B"/>
<stop offset="1" stop-color="#F4871B"/>
</linearGradient>
<linearGradient id="paint94_linear_1110_7996" x1="62.9506" y1="33.2437" x2="68.7427" y2="49.3981" gradientUnits="userSpaceOnUse">
<stop stop-color="#FCCE0B"/>
<stop offset="1" stop-color="#F4871B"/>
</linearGradient>
<linearGradient id="paint95_linear_1110_7996" x1="62.9436" y1="33.2437" x2="68.7222" y2="49.389" gradientUnits="userSpaceOnUse">
<stop stop-color="#FCCE0B"/>
<stop offset="1" stop-color="#F4871B"/>
</linearGradient>
<linearGradient id="paint96_linear_1110_7996" x1="62.9506" y1="44.043" x2="68.7328" y2="60.1853" gradientUnits="userSpaceOnUse">
<stop stop-color="#FCCE0B"/>
<stop offset="1" stop-color="#F4871B"/>
</linearGradient>
<linearGradient id="paint97_linear_1110_7996" x1="62.9436" y1="44.043" x2="68.7222" y2="60.1883" gradientUnits="userSpaceOnUse">
<stop stop-color="#FCCE0B"/>
<stop offset="1" stop-color="#F4871B"/>
</linearGradient>
<linearGradient id="paint98_linear_1110_7996" x1="62.9506" y1="54.842" x2="68.7328" y2="70.9844" gradientUnits="userSpaceOnUse">
<stop stop-color="#FCCE0B"/>
<stop offset="1" stop-color="#F4871B"/>
</linearGradient>
<linearGradient id="paint99_linear_1110_7996" x1="62.9436" y1="54.842" x2="68.7222" y2="70.9874" gradientUnits="userSpaceOnUse">
<stop stop-color="#FCCE0B"/>
<stop offset="1" stop-color="#F4871B"/>
</linearGradient>
<linearGradient id="paint100_linear_1110_7996" x1="62.9506" y1="65.6323" x2="68.7427" y2="81.7868" gradientUnits="userSpaceOnUse">
<stop stop-color="#FCCE0B"/>
<stop offset="1" stop-color="#F4871B"/>
</linearGradient>
<linearGradient id="paint101_linear_1110_7996" x1="62.9436" y1="65.6326" x2="68.7222" y2="81.7779" gradientUnits="userSpaceOnUse">
<stop stop-color="#FCCE0B"/>
<stop offset="1" stop-color="#F4871B"/>
</linearGradient>
<linearGradient id="paint102_linear_1110_7996" x1="62.9506" y1="87.2312" x2="68.7427" y2="103.386" gradientUnits="userSpaceOnUse">
<stop stop-color="#FCCE0B"/>
<stop offset="1" stop-color="#F4871B"/>
</linearGradient>
<linearGradient id="paint103_linear_1110_7996" x1="62.9436" y1="87.231" x2="68.7222" y2="103.376" gradientUnits="userSpaceOnUse">
<stop stop-color="#FCCE0B"/>
<stop offset="1" stop-color="#F4871B"/>
</linearGradient>
<linearGradient id="paint104_linear_1110_7996" x1="73.1743" y1="6.12744" x2="78.9664" y2="22.2819" gradientUnits="userSpaceOnUse">
<stop stop-color="#FCCE0B"/>
<stop offset="1" stop-color="#F4871B"/>
</linearGradient>
<linearGradient id="paint105_linear_1110_7996" x1="73.1672" y1="6.12793" x2="78.9458" y2="22.2733" gradientUnits="userSpaceOnUse">
<stop stop-color="#FCCE0B"/>
<stop offset="1" stop-color="#F4871B"/>
</linearGradient>
<linearGradient id="paint106_linear_1110_7996" x1="73.1743" y1="16.9272" x2="78.9664" y2="33.0817" gradientUnits="userSpaceOnUse">
<stop stop-color="#FCCE0B"/>
<stop offset="1" stop-color="#F4871B"/>
</linearGradient>
<linearGradient id="paint107_linear_1110_7996" x1="73.1672" y1="16.9272" x2="78.9458" y2="33.0726" gradientUnits="userSpaceOnUse">
<stop stop-color="#FCCE0B"/>
<stop offset="1" stop-color="#F4871B"/>
</linearGradient>
<linearGradient id="paint108_linear_1110_7996" x1="73.1743" y1="27.7266" x2="78.9664" y2="43.881" gradientUnits="userSpaceOnUse">
<stop stop-color="#FCCE0B"/>
<stop offset="1" stop-color="#F4871B"/>
</linearGradient>
<linearGradient id="paint109_linear_1110_7996" x1="73.1672" y1="27.7266" x2="78.9458" y2="43.8719" gradientUnits="userSpaceOnUse">
<stop stop-color="#FCCE0B"/>
<stop offset="1" stop-color="#F4871B"/>
</linearGradient>
<linearGradient id="paint110_linear_1110_7996" x1="73.1743" y1="38.5254" x2="78.9664" y2="54.6798" gradientUnits="userSpaceOnUse">
<stop stop-color="#FCCE0B"/>
<stop offset="1" stop-color="#F4871B"/>
</linearGradient>
<linearGradient id="paint111_linear_1110_7996" x1="73.1672" y1="38.5254" x2="78.9458" y2="54.6707" gradientUnits="userSpaceOnUse">
<stop stop-color="#FCCE0B"/>
<stop offset="1" stop-color="#F4871B"/>
</linearGradient>
<linearGradient id="paint112_linear_1110_7996" x1="73.1743" y1="49.3247" x2="78.9564" y2="65.4671" gradientUnits="userSpaceOnUse">
<stop stop-color="#FCCE0B"/>
<stop offset="1" stop-color="#F4871B"/>
</linearGradient>
<linearGradient id="paint113_linear_1110_7996" x1="73.1672" y1="49.3247" x2="78.9458" y2="65.47" gradientUnits="userSpaceOnUse">
<stop stop-color="#FCCE0B"/>
<stop offset="1" stop-color="#F4871B"/>
</linearGradient>
<linearGradient id="paint114_linear_1110_7996" x1="83.3374" y1="11.645" x2="89.1295" y2="27.7995" gradientUnits="userSpaceOnUse">
<stop stop-color="#FCCE0B"/>
<stop offset="1" stop-color="#F4871B"/>
</linearGradient>
<linearGradient id="paint115_linear_1110_7996" x1="83.3403" y1="11.645" x2="89.1189" y2="27.7903" gradientUnits="userSpaceOnUse">
<stop stop-color="#FCCE0B"/>
<stop offset="1" stop-color="#F4871B"/>
</linearGradient>
<linearGradient id="paint116_linear_1110_7996" x1="83.3374" y1="22.4443" x2="89.1295" y2="38.5988" gradientUnits="userSpaceOnUse">
<stop stop-color="#FCCE0B"/>
<stop offset="1" stop-color="#F4871B"/>
</linearGradient>
<linearGradient id="paint117_linear_1110_7996" x1="83.3403" y1="22.4443" x2="89.1189" y2="38.5897" gradientUnits="userSpaceOnUse">
<stop stop-color="#FCCE0B"/>
<stop offset="1" stop-color="#F4871B"/>
</linearGradient>
<linearGradient id="paint118_linear_1110_7996" x1="83.3374" y1="33.2437" x2="89.1295" y2="49.3981" gradientUnits="userSpaceOnUse">
<stop stop-color="#FCCE0B"/>
<stop offset="1" stop-color="#F4871B"/>
</linearGradient>
<linearGradient id="paint119_linear_1110_7996" x1="83.3403" y1="33.2437" x2="89.1189" y2="49.389" gradientUnits="userSpaceOnUse">
<stop stop-color="#FCCE0B"/>
<stop offset="1" stop-color="#F4871B"/>
</linearGradient>
<linearGradient id="paint120_linear_1110_7996" x1="83.3374" y1="44.043" x2="89.1195" y2="60.1853" gradientUnits="userSpaceOnUse">
<stop stop-color="#FCCE0B"/>
<stop offset="1" stop-color="#F4871B"/>
</linearGradient>
<linearGradient id="paint121_linear_1110_7996" x1="83.3403" y1="44.043" x2="89.1189" y2="60.1883" gradientUnits="userSpaceOnUse">
<stop stop-color="#FCCE0B"/>
<stop offset="1" stop-color="#F4871B"/>
</linearGradient>
<linearGradient id="paint122_linear_1110_7996" x1="93.5607" y1="6.12744" x2="99.3529" y2="22.2819" gradientUnits="userSpaceOnUse">
<stop stop-color="#FCCE0B"/>
<stop offset="1" stop-color="#F4871B"/>
</linearGradient>
<linearGradient id="paint123_linear_1110_7996" x1="93.5537" y1="6.12793" x2="99.3323" y2="22.2733" gradientUnits="userSpaceOnUse">
<stop stop-color="#FCCE0B"/>
<stop offset="1" stop-color="#F4871B"/>
</linearGradient>
<linearGradient id="paint124_linear_1110_7996" x1="93.5607" y1="16.9272" x2="99.3529" y2="33.0817" gradientUnits="userSpaceOnUse">
<stop stop-color="#FCCE0B"/>
<stop offset="1" stop-color="#F4871B"/>
</linearGradient>
<linearGradient id="paint125_linear_1110_7996" x1="93.5537" y1="16.9272" x2="99.3323" y2="33.0726" gradientUnits="userSpaceOnUse">
<stop stop-color="#FCCE0B"/>
<stop offset="1" stop-color="#F4871B"/>
</linearGradient>
<linearGradient id="paint126_linear_1110_7996" x1="93.5607" y1="27.7266" x2="99.3528" y2="43.881" gradientUnits="userSpaceOnUse">
<stop stop-color="#FCCE0B"/>
<stop offset="1" stop-color="#F4871B"/>
</linearGradient>
<linearGradient id="paint127_linear_1110_7996" x1="-23.4374" y1="43.75" x2="104.688" y2="43.75" gradientUnits="userSpaceOnUse">
<stop offset="0.00520833" stop-color="#FCCE0B" stop-opacity="0"/>
<stop offset="0.338542" stop-color="#F8A513" stop-opacity="0.4078"/>
<stop offset="0.575553" stop-color="#F58419" stop-opacity="0.7899"/>
<stop offset="0.890625" stop-color="#F4781B"/>
</linearGradient>
</defs>
</svg>
