<svg width="91" height="79" viewBox="0 0 91 79" fill="none" xmlns="http://www.w3.org/2000/svg">
<path d="M52.02 35.4902L49.9 33.2902L41.27 24.3302L32.44 32.8202L43.75 44.5802C44.82 45.7102 46.05 46.5902 47.45 47.2102C48.83 47.8202 50.3 48.1402 51.82 48.1602H52.01C55.02 48.1602 57.86 46.9902 60.01 44.8502L88.44 16.4002L79.77 7.74023L54.18 33.3302L52.02 35.4902Z" fill="url(#paint0_linear_1110_4891)"/>
<path d="M76.52 36.82L77.93 39.24L61.62 67.49H29.01L12.7 39.24L29.01 11H61.62L63.97 15.06L72.02 7.01L67.97 0H22.66L0 39.24L22.66 78.49H67.97L90.63 39.24L84.58 28.76L76.52 36.82Z" fill="url(#paint1_linear_1110_4891)"/>
<defs>
<linearGradient id="paint0_linear_1110_4891" x1="49.0373" y1="7.74023" x2="71.8311" y2="76.0304" gradientUnits="userSpaceOnUse">
<stop stop-color="#FCCE0B"/>
<stop offset="1" stop-color="#F4871B"/>
</linearGradient>
<linearGradient id="paint1_linear_1110_4891" x1="26.8609" y1="4.36703e-08" x2="77.7281" y2="127.012" gradientUnits="userSpaceOnUse">
<stop stop-color="#FCCE0B"/>
<stop offset="1" stop-color="#F4871B"/>
</linearGradient>
</defs>
</svg>
