<svg width="64" height="64" viewBox="0 0 64 64" fill="none" xmlns="http://www.w3.org/2000/svg">
<path d="M31.7636 59.7864H30.757L30.3247 58.9804L30.757 58.1743H31.7636L32.267 58.9804L31.7636 59.7864Z" fill="url(#paint0_linear_1110_7995)"/>
<path d="M37.5969 61.9999H36.2289L35.5062 60.9232L36.2289 59.7803H37.5969L38.2422 60.9232L37.5969 61.9999Z" fill="url(#paint1_linear_1110_7995)"/>
<path d="M55.9808 10.9902H54.6128L53.8901 9.91342L54.6128 8.77051H55.9808L56.6261 9.91342L55.9808 10.9902Z" fill="url(#paint2_linear_1110_7995)"/>
<path d="M32.267 56.9292V54.481L34.5512 53.2358L36.8742 54.481V56.9292L34.5512 58.1744L32.267 56.9292Z" fill="url(#paint3_linear_1110_7995)"/>
<mask id="mask0_1110_7995" style="mask-type:alpha" maskUnits="userSpaceOnUse" x="2" y="0" width="58" height="57">
<path d="M16.6191 50.8235L16.3803 45.939L14.109 45.3255L12.3796 42.5885L14.109 39.238L11.9021 36.88L13.6831 33.5294L15.3737 30.2511L11.9021 24.711L14.109 21.601L11.9021 18.6235L7.95304 18.2505L6.17854 14.9L2.62308 9.43203L6.62378 3.10391L7.95304 0L11.9021 0.37295L13.6831 3.10391H25.1689L29.4213 6.31609L31.3249 6.45444H34.8803L37.0872 8.81847H40.6426L46.8502 7.19433L48.573 9.43203H52.1285L53.9095 12.169H58.0521L59.9621 15.1646V21.3664L56.1615 24.4102L54.1418 24.4403L52.7931 27.1051L48.1472 27.4419L46.3662 30.1789L46.5727 33.5174L42.4171 36.507L40.6426 39.238L40.6104 43.2983L38.068 45.939L36.0354 49.7467L32.4025 52.4055L30.3247 56.7125L27.7113 54.962L23.3944 54.5169H19.839L16.6191 50.8235Z" fill="#FCCE0B"/>
</mask>
<g mask="url(#mask0_1110_7995)">
<path d="M4.76541 6.75485H0.725992L-1.23564 3.65094L0.725992 0.541016H4.76541L6.78511 3.65094L4.76541 6.75485Z" fill="url(#paint4_linear_1110_7995)"/>
<path d="M4.40405 1.14255L6.03014 3.64492L4.40405 6.1473H1.10025L-0.480671 3.64492L1.10025 1.14255H4.40405ZM4.76541 0.541016H0.725992L-1.23564 3.64492L0.725992 6.74883H4.76541L6.78511 3.64492L4.76541 0.541016Z" fill="url(#paint5_linear_1110_7995)"/>
<path d="M4.76541 13.667H0.725992L-1.23564 10.563L0.725992 7.45312H4.76541L6.78511 10.563L4.76541 13.667Z" fill="url(#paint6_linear_1110_7995)"/>
<path d="M4.40405 8.05466L6.03014 10.557L4.40405 13.0594H1.10025L-0.480671 10.557L1.10025 8.05466H4.40405ZM4.76541 7.45312H0.725992L-1.23564 10.563L0.725992 13.667H4.76541L6.78511 10.563L4.76541 7.45312Z" fill="url(#paint7_linear_1110_7995)"/>
<path d="M4.76541 20.5781H0.725992L-1.23564 17.4682L0.725992 14.3643H4.76541L6.78511 17.4682L4.76541 20.5781Z" fill="url(#paint8_linear_1110_7995)"/>
<path d="M4.40405 14.9658L6.03014 17.4682L4.40405 19.9705H1.10025L-0.480671 17.4682L1.10025 14.9658H4.40405ZM4.76541 14.3643H0.725992L-1.23564 17.4682L0.725992 20.5721H4.76541L6.78511 17.4682L4.76541 14.3643Z" fill="url(#paint9_linear_1110_7995)"/>
<path d="M11.3085 3.22393H7.26908L5.30744 0.120022L7.26908 -2.98389H11.3085L13.3282 0.120022L11.3085 3.22393Z" fill="url(#paint10_linear_1110_7995)"/>
<path d="M10.9471 -2.38235L12.5732 0.120022L10.9471 2.6224H7.64334L6.06241 0.120022L7.64334 -2.38235H10.9471ZM11.3085 -2.98389H7.26908L5.30744 0.120022L7.26908 3.22393H11.3085L13.3282 0.120022L11.3085 -2.98389Z" fill="url(#paint11_linear_1110_7995)"/>
<path d="M11.3085 10.1357H7.26908L5.30744 7.0318L7.26908 3.92188H11.3085L13.3282 7.0318L11.3085 10.1357Z" fill="url(#paint12_linear_1110_7995)"/>
<path d="M10.9471 4.52341L12.5732 7.02578L10.9471 9.52816H7.64334L6.06241 7.02578L7.64334 4.52341H10.9471ZM11.3085 3.92188H7.26908L5.30744 7.02578L7.26908 10.1297H11.3085L13.3282 7.02578L11.3085 3.92188Z" fill="url(#paint13_linear_1110_7995)"/>
<path d="M11.3085 17.0473H7.26908L5.30744 13.9434L7.26908 10.8335H11.3085L13.3282 13.9434L11.3085 17.0473Z" fill="url(#paint14_linear_1110_7995)"/>
<path d="M10.9471 11.435L12.5732 13.9374L10.9471 16.4398H7.64334L6.06241 13.9374L7.64334 11.435H10.9471ZM11.3085 10.8335H7.26908L5.30744 13.9374L7.26908 17.0413H11.3085L13.3282 13.9374L11.3085 10.8335Z" fill="url(#paint15_linear_1110_7995)"/>
<path d="M11.3085 23.9589H7.26908L5.30744 20.849L7.26908 17.7451H11.3085L13.3282 20.849L11.3085 23.9589Z" fill="url(#paint16_linear_1110_7995)"/>
<path d="M10.9471 18.3466L12.5732 20.849L10.9471 23.3514H7.64334L6.05596 20.849L7.63688 18.3466H10.9471ZM11.3085 17.7451H7.26908L5.30744 20.849L7.26908 23.9529H11.3085L13.3282 20.849L11.3085 17.7451Z" fill="url(#paint17_linear_1110_7995)"/>
<path d="M11.3085 30.8706H7.26908L5.30744 27.7606L7.26908 24.6567H11.3085L13.3282 27.7606L11.3085 30.8706Z" fill="url(#paint18_linear_1110_7995)"/>
<path d="M10.9471 25.2583L12.5732 27.7606L10.9471 30.263H7.64334L6.06241 27.7606L7.64334 25.2583H10.9471ZM11.3085 24.6567H7.26908L5.30744 27.7606L7.26908 30.8646H11.3085L13.3282 27.7606L11.3085 24.6567Z" fill="url(#paint19_linear_1110_7995)"/>
<path d="M11.3085 37.7762H7.26908L5.30744 34.6723L7.26908 31.5684H11.3085L13.3282 34.6723L11.3085 37.7762Z" fill="url(#paint20_linear_1110_7995)"/>
<path d="M10.9471 32.1699L12.5732 34.6723L10.9471 37.1746H7.64334L6.06241 34.6723L7.64334 32.1699H10.9471ZM11.3085 31.5684H7.26908L5.30744 34.6723L7.26908 37.7762H11.3085L13.3282 34.6723L11.3085 31.5684Z" fill="url(#paint21_linear_1110_7995)"/>
<path d="M11.3085 44.6878H7.26908L5.30744 41.5839L7.26908 38.48H11.3085L13.3282 41.5839L11.3085 44.6878Z" fill="url(#paint22_linear_1110_7995)"/>
<path d="M10.9471 39.0815L12.5732 41.5839L10.9471 44.0863H7.64334L6.06241 41.5839L7.64334 39.0815H10.9471ZM11.3085 38.48H7.26908L5.30744 41.5839L7.26908 44.6878H11.3085L13.3282 41.5839L11.3085 38.48Z" fill="url(#paint23_linear_1110_7995)"/>
<path d="M17.8128 6.75485H13.7799L11.8182 3.65094L13.7799 0.541016H17.8128L19.8325 3.65094L17.8128 6.75485Z" fill="url(#paint24_linear_1110_7995)"/>
<path d="M17.4515 1.14255L19.0776 3.64492L17.4515 6.1473H14.1477L12.5668 3.64492L14.1477 1.14255H17.4515ZM17.8128 0.541016H13.7734L11.8118 3.64492L13.7734 6.74883H17.8128L19.8325 3.64492L17.8128 0.541016Z" fill="url(#paint25_linear_1110_7995)"/>
<path d="M17.8128 13.6665H13.7799L11.8182 10.5626L13.7799 7.45264H17.8128L19.8325 10.5626L17.8128 13.6665Z" fill="url(#paint26_linear_1110_7995)"/>
<path d="M17.4515 8.05466L19.0776 10.557L17.4515 13.0594H14.1477L12.5668 10.557L14.1477 8.05466H17.4515ZM17.8128 7.45312H13.7734L11.8118 10.557L13.7734 13.6609H17.8128L19.8325 10.557L17.8128 7.45312Z" fill="url(#paint27_linear_1110_7995)"/>
<path d="M17.8128 20.5786H13.7799L11.8182 17.4687L13.7799 14.3647H17.8128L19.8325 17.4687L17.8128 20.5786Z" fill="url(#paint28_linear_1110_7995)"/>
<path d="M17.4515 14.9658L19.0776 17.4682L17.4515 19.9705H14.1477L12.5668 17.4682L14.1477 14.9658H17.4515ZM17.8128 14.3643H13.7734L11.8118 17.4682L13.7734 20.5721H17.8128L19.8325 17.4682L17.8128 14.3643Z" fill="url(#paint29_linear_1110_7995)"/>
<path d="M17.8128 27.4897H13.7799L11.8182 24.3798L13.7799 21.2759H17.8128L19.8325 24.3798L17.8128 27.4897Z" fill="url(#paint30_linear_1110_7995)"/>
<path d="M17.4515 21.8774L19.0776 24.3798L17.4515 26.8822H14.1477L12.5668 24.3798L14.1477 21.8774H17.4515ZM17.8128 21.2759H13.7734L11.8118 24.3798L13.7734 27.4837H17.8128L19.8325 24.3798L17.8128 21.2759Z" fill="url(#paint31_linear_1110_7995)"/>
<path d="M17.8128 34.3953H13.7799L11.8182 31.2914L13.7799 28.1875H17.8128L19.8325 31.2914L17.8128 34.3953Z" fill="url(#paint32_linear_1110_7995)"/>
<path d="M17.4515 28.789L19.0776 31.2914L17.4515 33.7938H14.1477L12.5668 31.2914L14.1477 28.789H17.4515ZM17.8128 28.1875H13.7734L11.8118 31.2914L13.7734 34.3953H17.8128L19.8325 31.2914L17.8128 28.1875Z" fill="url(#paint33_linear_1110_7995)"/>
<path d="M17.8128 41.3069H13.7799L11.8182 38.203L13.7799 35.0991H17.8128L19.8325 38.203L17.8128 41.3069Z" fill="url(#paint34_linear_1110_7995)"/>
<path d="M17.4515 35.7007L19.0776 38.203L17.4515 40.7054H14.1477L12.5668 38.203L14.1477 35.7007H17.4515ZM17.8128 35.0991H13.7734L11.8118 38.203L13.7734 41.3069H17.8128L19.8325 38.203L17.8128 35.0991Z" fill="url(#paint35_linear_1110_7995)"/>
<path d="M17.8128 48.2187H13.7799L11.8182 45.1148L13.7799 42.0049H17.8128L19.8325 45.1148L17.8128 48.2187Z" fill="url(#paint36_linear_1110_7995)"/>
<path d="M17.4515 42.6064L19.0776 45.1088L17.4515 47.6112H14.1477L12.5668 45.1088L14.1477 42.6064H17.4515ZM17.8128 42.0049H13.7734L11.8118 45.1088L13.7734 48.2127H17.8128L19.8325 45.1088L17.8128 42.0049Z" fill="url(#paint37_linear_1110_7995)"/>
<path d="M17.8128 55.1303H13.7799L11.8182 52.0264L13.7799 48.9165H17.8128L19.8325 52.0264L17.8128 55.1303Z" fill="url(#paint38_linear_1110_7995)"/>
<path d="M17.4515 49.518L19.0776 52.0204L17.4515 54.5228H14.1477L12.5668 52.0204L14.1477 49.518H17.4515ZM17.8128 48.9165H13.7734L11.8118 52.0204L13.7734 55.1243H17.8128L19.8325 52.0204L17.8128 48.9165Z" fill="url(#paint39_linear_1110_7995)"/>
<path d="M24.3559 10.1357H20.3165L18.3549 7.0318L20.3165 3.92188H24.3559L26.3756 7.0318L24.3559 10.1357Z" fill="url(#paint40_linear_1110_7995)"/>
<path d="M23.9946 4.52341L25.6207 7.02578L23.9946 9.52816H20.6908L19.1098 7.02578L20.6908 4.52341H23.9946ZM24.3559 3.92188H20.3165L18.3549 7.02578L20.3165 10.1297H24.3559L26.3756 7.02578L24.3559 3.92188Z" fill="url(#paint41_linear_1110_7995)"/>
<path d="M24.3559 17.0473H20.3165L18.3549 13.9434L20.3165 10.8335H24.3559L26.3756 13.9434L24.3559 17.0473Z" fill="url(#paint42_linear_1110_7995)"/>
<path d="M23.9946 11.435L25.6207 13.9374L23.9946 16.4398H20.6908L19.1098 13.9374L20.6908 11.435H23.9946ZM24.3559 10.8335H20.3165L18.3549 13.9374L20.3165 17.0413H24.3559L26.3756 13.9374L24.3559 10.8335Z" fill="url(#paint43_linear_1110_7995)"/>
<path d="M24.3559 23.9589H20.3165L18.3549 20.849L20.3165 17.7451H24.3559L26.3756 20.849L24.3559 23.9589Z" fill="url(#paint44_linear_1110_7995)"/>
<path d="M23.9946 18.3466L25.6207 20.849L23.9946 23.3514H20.6908L19.1098 20.849L20.6908 18.3466H23.9946ZM24.3559 17.7451H20.3165L18.3549 20.849L20.3165 23.9529H24.3559L26.3756 20.849L24.3559 17.7451Z" fill="url(#paint45_linear_1110_7995)"/>
<path d="M24.3559 30.8706H20.3165L18.3549 27.7606L20.3165 24.6567H24.3559L26.3756 27.7606L24.3559 30.8706Z" fill="url(#paint46_linear_1110_7995)"/>
<path d="M23.9946 25.2583L25.6207 27.7606L23.9946 30.263H20.6908L19.1098 27.7606L20.6908 25.2583H23.9946ZM24.3559 24.6567H20.3165L18.3549 27.7606L20.3165 30.8646H24.3559L26.3756 27.7606L24.3559 24.6567Z" fill="url(#paint47_linear_1110_7995)"/>
<path d="M24.3559 37.7762H20.3165L18.3549 34.6723L20.3165 31.5684H24.3559L26.3756 34.6723L24.3559 37.7762Z" fill="url(#paint48_linear_1110_7995)"/>
<path d="M23.9946 32.1699L25.6207 34.6723L23.9946 37.1746H20.6908L19.1098 34.6723L20.6908 32.1699H23.9946ZM24.3559 31.5684H20.3165L18.3549 34.6723L20.3165 37.7762H24.3559L26.3756 34.6723L24.3559 31.5684Z" fill="url(#paint49_linear_1110_7995)"/>
<path d="M24.3559 44.6878H20.3165L18.3549 41.5839L20.3165 38.48H24.3559L26.3756 41.5839L24.3559 44.6878Z" fill="url(#paint50_linear_1110_7995)"/>
<path d="M23.9946 39.0815L25.6207 41.5839L23.9946 44.0863H20.6908L19.1098 41.5839L20.6908 39.0815H23.9946ZM24.3559 38.48H20.3165L18.3549 41.5839L20.3165 44.6878H24.3559L26.3756 41.5839L24.3559 38.48Z" fill="url(#paint51_linear_1110_7995)"/>
<path d="M24.3559 51.5996H20.3165L18.3549 48.4957L20.3165 45.3857H24.3559L26.3756 48.4957L24.3559 51.5996Z" fill="url(#paint52_linear_1110_7995)"/>
<path d="M23.9946 45.9873L25.6207 48.4897L23.9946 50.992H20.6908L19.1098 48.4897L20.6908 45.9873H23.9946ZM24.3559 45.3857H20.3165L18.3549 48.4897L20.3165 51.5936H24.3559L26.3756 48.4897L24.3559 45.3857Z" fill="url(#paint53_linear_1110_7995)"/>
<path d="M24.3559 58.5107H20.3165L18.3549 55.4068L20.3165 52.2969H24.3559L26.3756 55.4068L24.3559 58.5107Z" fill="url(#paint54_linear_1110_7995)"/>
<path d="M23.9946 52.8984L25.6207 55.4008L23.9946 57.9032H20.6908L19.1098 55.4008L20.6908 52.8984H23.9946ZM24.3559 52.2969H20.3165L18.3549 55.4008L20.3165 58.5047H24.3559L26.3756 55.4008L24.3559 52.2969Z" fill="url(#paint55_linear_1110_7995)"/>
<path d="M30.8603 6.75485H26.8273L24.8657 3.65094L26.8273 0.541016H30.8603L32.88 3.65094L30.8603 6.75485Z" fill="url(#paint56_linear_1110_7995)"/>
<path d="M30.4989 1.14255L32.125 3.65094L30.4989 6.15331H27.1951L25.6142 3.65094L27.1951 1.14856H30.4989M30.8603 0.541016H26.8208L24.8592 3.64492L26.8208 6.74883H30.8603L32.88 3.64492L30.8603 0.541016Z" fill="url(#paint57_linear_1110_7995)"/>
<path d="M30.8603 13.6665H26.8273L24.8657 10.5626L26.8273 7.45264H30.8603L32.88 10.5626L30.8603 13.6665Z" fill="url(#paint58_linear_1110_7995)"/>
<path d="M30.4989 8.05466L32.125 10.563L30.4989 13.0654H27.1951L25.6142 10.563L27.1951 8.06067H30.4989M30.8603 7.45312H26.8208L24.8592 10.557L26.8208 13.6609H30.8603L32.88 10.557L30.8603 7.45312Z" fill="url(#paint59_linear_1110_7995)"/>
<path d="M30.8603 20.5786H26.8273L24.8657 17.4687L26.8273 14.3647H30.8603L32.88 17.4687L30.8603 20.5786Z" fill="url(#paint60_linear_1110_7995)"/>
<path d="M30.4989 14.9658L32.125 17.4682L30.4989 19.9705H27.1951L25.6142 17.4682L27.1951 14.9658H30.4989ZM30.8603 14.3643H26.8208L24.8592 17.4682L26.8208 20.5721H30.8603L32.88 17.4682L30.8603 14.3643Z" fill="url(#paint61_linear_1110_7995)"/>
<path d="M30.8603 27.4897H26.8273L24.8657 24.3798L26.8273 21.2759H30.8603L32.88 24.3798L30.8603 27.4897Z" fill="url(#paint62_linear_1110_7995)"/>
<path d="M30.4989 21.8774L32.125 24.3798L30.4989 26.8822H27.1951L25.6142 24.3798L27.1951 21.8774H30.4989ZM30.8603 21.2759H26.8208L24.8592 24.3798L26.8208 27.4837H30.8603L32.88 24.3798L30.8603 21.2759Z" fill="url(#paint63_linear_1110_7995)"/>
<path d="M30.8603 34.3953H26.8273L24.8657 31.2914L26.8273 28.1875H30.8603L32.88 31.2914L30.8603 34.3953Z" fill="url(#paint64_linear_1110_7995)"/>
<path d="M30.4989 28.789L32.125 31.2914L30.4989 33.7938H27.1951L25.6142 31.2914L27.1951 28.789H30.4989ZM30.8603 28.1875H26.8208L24.8592 31.2914L26.8208 34.3953H30.8603L32.88 31.2914L30.8603 28.1875Z" fill="url(#paint65_linear_1110_7995)"/>
<path d="M30.8603 41.3069H26.8273L24.8657 38.203L26.8273 35.0991H30.8603L32.88 38.203L30.8603 41.3069Z" fill="url(#paint66_linear_1110_7995)"/>
<path d="M30.4989 35.7007L32.125 38.203L30.4989 40.7054H27.1951L25.6142 38.203L27.1951 35.7007H30.4989ZM30.8603 35.0991H26.8208L24.8592 38.203L26.8208 41.3069H30.8603L32.88 38.203L30.8603 35.0991Z" fill="url(#paint67_linear_1110_7995)"/>
<path d="M30.8603 48.2187H26.8273L24.8657 45.1148L26.8273 42.0049H30.8603L32.88 45.1148L30.8603 48.2187Z" fill="url(#paint68_linear_1110_7995)"/>
<path d="M30.4989 42.6064L32.125 45.1088L30.4989 47.6112H27.1951L25.6142 45.1088L27.1951 42.6064H30.4989ZM30.8603 42.0049H26.8208L24.8592 45.1088L26.8208 48.2127H30.8603L32.88 45.1088L30.8603 42.0049Z" fill="url(#paint69_linear_1110_7995)"/>
<path d="M30.8603 55.1303H26.8273L24.8657 52.0264L26.8273 48.9165H30.8603L32.88 52.0264L30.8603 55.1303Z" fill="url(#paint70_linear_1110_7995)"/>
<path d="M30.4989 49.518L32.125 52.0204L30.4989 54.5228H27.1951L25.6142 52.0204L27.1951 49.518H30.4989ZM30.8603 48.9165H26.8208L24.8592 52.0204L26.8208 55.1243H30.8603L32.88 52.0204L30.8603 48.9165Z" fill="url(#paint71_linear_1110_7995)"/>
<path d="M30.8603 62.042H26.8273L24.8657 58.932L26.8273 55.8281H30.8603L32.88 58.932L30.8603 62.042Z" fill="url(#paint72_linear_1110_7995)"/>
<path d="M30.4989 56.4297L32.125 58.932L30.4989 61.4344H27.1951L25.6142 58.932L27.1951 56.4297H30.4989ZM30.8603 55.8281H26.8208L24.8592 58.932L26.8208 62.0359H30.8603L32.88 58.932L30.8603 55.8281Z" fill="url(#paint73_linear_1110_7995)"/>
<path d="M37.4034 10.1357H33.3639L31.4088 7.0318L33.3639 3.92188H37.4034L39.4231 7.0318L37.4034 10.1357Z" fill="url(#paint74_linear_1110_7995)"/>
<path d="M37.042 4.52341L38.6681 7.02578L37.042 9.52816H33.7382L32.1573 7.02578L33.7382 4.52341H37.042ZM37.4033 3.92188H33.3639L31.4023 7.02578L33.3639 10.1297H37.4033L39.4231 7.02578L37.4033 3.92188Z" fill="url(#paint75_linear_1110_7995)"/>
<path d="M37.4034 17.0473H33.3639L31.4088 13.9434L33.3639 10.8335H37.4034L39.4231 13.9434L37.4034 17.0473Z" fill="url(#paint76_linear_1110_7995)"/>
<path d="M37.042 11.435L38.6681 13.9374L37.042 16.4398H33.7382L32.1573 13.9374L33.7382 11.435H37.042ZM37.4033 10.8335H33.3639L31.4023 13.9374L33.3639 17.0413H37.4033L39.4231 13.9374L37.4033 10.8335Z" fill="url(#paint77_linear_1110_7995)"/>
<path d="M37.4034 23.9589H33.3639L31.4088 20.849L33.3639 17.7451H37.4034L39.4231 20.849L37.4034 23.9589Z" fill="url(#paint78_linear_1110_7995)"/>
<path d="M37.042 18.3466L38.6681 20.849L37.042 23.3514H33.7382L32.1573 20.849L33.7382 18.3466H37.042ZM37.4033 17.7451H33.3639L31.4023 20.849L33.3639 23.9529H37.4033L39.4231 20.849L37.4033 17.7451Z" fill="url(#paint79_linear_1110_7995)"/>
<path d="M37.4034 30.8706H33.3639L31.4088 27.7606L33.3639 24.6567H37.4034L39.4231 27.7606L37.4034 30.8706Z" fill="url(#paint80_linear_1110_7995)"/>
<path d="M37.042 25.2583L38.6681 27.7606L37.042 30.263H33.7382L32.1573 27.7606L33.7382 25.2583H37.042ZM37.4033 24.6567H33.3639L31.4023 27.7606L33.3639 30.8646H37.4033L39.4231 27.7606L37.4033 24.6567Z" fill="url(#paint81_linear_1110_7995)"/>
<path d="M37.4034 37.7757H33.3639L31.4088 34.6718L33.3639 31.5679H37.4034L39.4231 34.6718L37.4034 37.7757Z" fill="url(#paint82_linear_1110_7995)"/>
<path d="M37.042 32.1699L38.6681 34.6723L37.042 37.1746H33.7382L32.1573 34.6723L33.7382 32.1699H37.042ZM37.4033 31.5684H33.3639L31.4023 34.6723L33.3639 37.7762H37.4033L39.4231 34.6723L37.4033 31.5684Z" fill="url(#paint83_linear_1110_7995)"/>
<path d="M37.4034 44.6878H33.3639L31.4088 41.5839L33.3639 38.48H37.4034L39.4231 41.5839L37.4034 44.6878Z" fill="url(#paint84_linear_1110_7995)"/>
<path d="M37.042 39.0815L38.6681 41.5839L37.042 44.0863H33.7382L32.1573 41.5839L33.7382 39.0815H37.042ZM37.4033 38.48H33.3639L31.4023 41.5839L33.3639 44.6878H37.4033L39.4231 41.5839L37.4033 38.48Z" fill="url(#paint85_linear_1110_7995)"/>
<path d="M37.4034 51.5996H33.3639L31.4088 48.4957L33.3639 45.3857H37.4034L39.4231 48.4957L37.4034 51.5996Z" fill="url(#paint86_linear_1110_7995)"/>
<path d="M37.042 45.9873L38.6681 48.4897L37.042 50.992H33.7382L32.1573 48.4897L33.7382 45.9873H37.042ZM37.4033 45.3857H33.3639L31.4023 48.4897L33.3639 51.5936H37.4033L39.4231 48.4897L37.4033 45.3857Z" fill="url(#paint87_linear_1110_7995)"/>
<path d="M37.4034 58.5107H33.3639L31.4088 55.4068L33.3639 52.2969H37.4034L39.4231 55.4068L37.4034 58.5107Z" fill="url(#paint88_linear_1110_7995)"/>
<path d="M37.042 52.8984L38.6681 55.4008L37.042 57.9032H33.7382L32.1573 55.4008L33.7382 52.8984H37.042ZM37.4033 52.2969H33.3639L31.4023 55.4008L33.3639 58.5047H37.4033L39.4231 55.4008L37.4033 52.2969Z" fill="url(#paint89_linear_1110_7995)"/>
<path d="M43.9077 13.6665H39.8748L37.9131 10.5626L39.8748 7.45264H43.9077L45.9274 10.5626L43.9077 13.6665Z" fill="url(#paint90_linear_1110_7995)"/>
<path d="M43.5464 8.05466L45.1725 10.557L43.5464 13.0594H40.2426L38.6616 10.557L40.2426 8.05466H43.5464ZM43.9077 7.45312H39.8683L37.9067 10.557L39.8683 13.6609H43.9077L45.9274 10.557L43.9077 7.45312Z" fill="url(#paint91_linear_1110_7995)"/>
<path d="M43.9077 20.5786H39.8748L37.9131 17.4687L39.8748 14.3647H43.9077L45.9274 17.4687L43.9077 20.5786Z" fill="url(#paint92_linear_1110_7995)"/>
<path d="M43.5464 14.9658L45.1725 17.4682L43.5464 19.9705H40.2426L38.6616 17.4682L40.2426 14.9658H43.5464ZM43.9077 14.3643H39.8683L37.9067 17.4682L39.8683 20.5721H43.9077L45.9274 17.4682L43.9077 14.3643Z" fill="url(#paint93_linear_1110_7995)"/>
<path d="M43.9077 27.4897H39.8748L37.9131 24.3798L39.8748 21.2759H43.9077L45.9274 24.3798L43.9077 27.4897Z" fill="url(#paint94_linear_1110_7995)"/>
<path d="M43.5464 21.8774L45.1725 24.3798L43.5464 26.8822H40.2426L38.6616 24.3798L40.2426 21.8774H43.5464ZM43.9077 21.2759H39.8683L37.9067 24.3798L39.8683 27.4837H43.9077L45.9274 24.3798L43.9077 21.2759Z" fill="url(#paint95_linear_1110_7995)"/>
<path d="M43.9077 34.3953H39.8748L37.9131 31.2914L39.8748 28.1875H43.9077L45.9274 31.2914L43.9077 34.3953Z" fill="url(#paint96_linear_1110_7995)"/>
<path d="M43.5464 28.789L45.1725 31.2914L43.5464 33.7938H40.2426L38.6616 31.2914L40.2426 28.789H43.5464ZM43.9077 28.1875H39.8683L37.9067 31.2914L39.8683 34.3953H43.9077L45.9274 31.2914L43.9077 28.1875Z" fill="url(#paint97_linear_1110_7995)"/>
<path d="M43.9077 41.3069H39.8748L37.9131 38.203L39.8748 35.0991H43.9077L45.9274 38.203L43.9077 41.3069Z" fill="url(#paint98_linear_1110_7995)"/>
<path d="M43.5464 35.7007L45.1725 38.203L43.5464 40.7054H40.2426L38.6616 38.203L40.2426 35.7007H43.5464ZM43.9077 35.0991H39.8683L37.9067 38.203L39.8683 41.3069H43.9077L45.9274 38.203L43.9077 35.0991Z" fill="url(#paint99_linear_1110_7995)"/>
<path d="M43.9077 48.2187H39.8748L37.9131 45.1148L39.8748 42.0049H43.9077L45.9274 45.1148L43.9077 48.2187Z" fill="url(#paint100_linear_1110_7995)"/>
<path d="M43.5464 42.6064L45.1725 45.1088L43.5464 47.6112H40.2426L38.6616 45.1088L40.2426 42.6064H43.5464ZM43.9077 42.0049H39.8683L37.9067 45.1088L39.8683 48.2127H43.9077L45.9274 45.1088L43.9077 42.0049Z" fill="url(#paint101_linear_1110_7995)"/>
<path d="M43.9077 62.042H39.8748L37.9131 58.932L39.8748 55.8281H43.9077L45.9274 58.932L43.9077 62.042Z" fill="url(#paint102_linear_1110_7995)"/>
<path d="M43.5464 56.4297L45.1725 58.932L43.5464 61.4344H40.2426L38.6616 58.932L40.2426 56.4297H43.5464ZM43.9077 55.8281H39.8683L37.9067 58.932L39.8683 62.0359H43.9077L45.9274 58.932L43.9077 55.8281Z" fill="url(#paint103_linear_1110_7995)"/>
<path d="M50.4508 10.1357H46.4178L44.4562 7.0318L46.4178 3.92188H50.4508L52.4705 7.0318L50.4508 10.1357Z" fill="url(#paint104_linear_1110_7995)"/>
<path d="M50.0895 4.52341L51.7156 7.02578L50.0895 9.52816H46.7857L45.2047 7.02578L46.7857 4.52341H50.0895ZM50.4508 3.92188H46.4114L44.4498 7.02578L46.4114 10.1297H50.4508L52.4705 7.02578L50.4508 3.92188Z" fill="url(#paint105_linear_1110_7995)"/>
<path d="M50.4508 17.0473H46.4178L44.4562 13.9434L46.4178 10.8335H50.4508L52.4705 13.9434L50.4508 17.0473Z" fill="url(#paint106_linear_1110_7995)"/>
<path d="M50.0895 11.435L51.7156 13.9374L50.0895 16.4398H46.7857L45.2047 13.9374L46.7857 11.435H50.0895ZM50.4508 10.8335H46.4114L44.4498 13.9374L46.4114 17.0413H50.4508L52.4705 13.9374L50.4508 10.8335Z" fill="url(#paint107_linear_1110_7995)"/>
<path d="M50.4508 23.9589H46.4178L44.4562 20.849L46.4178 17.7451H50.4508L52.4705 20.849L50.4508 23.9589Z" fill="url(#paint108_linear_1110_7995)"/>
<path d="M50.0895 18.3466L51.7156 20.849L50.0895 23.3514H46.7857L45.2047 20.849L46.7857 18.3466H50.0895ZM50.4508 17.7451H46.4114L44.4498 20.849L46.4114 23.9529H50.4508L52.4705 20.849L50.4508 17.7451Z" fill="url(#paint109_linear_1110_7995)"/>
<path d="M50.4508 30.8706H46.4178L44.4562 27.7606L46.4178 24.6567H50.4508L52.4705 27.7606L50.4508 30.8706Z" fill="url(#paint110_linear_1110_7995)"/>
<path d="M50.0895 25.2583L51.7156 27.7606L50.0895 30.263H46.7857L45.2047 27.7606L46.7857 25.2583H50.0895ZM50.4508 24.6567H46.4114L44.4498 27.7606L46.4114 30.8646H50.4508L52.4705 27.7606L50.4508 24.6567Z" fill="url(#paint111_linear_1110_7995)"/>
<path d="M50.4508 37.7757H46.4178L44.4562 34.6718L46.4178 31.5679H50.4508L52.4705 34.6718L50.4508 37.7757Z" fill="url(#paint112_linear_1110_7995)"/>
<path d="M50.0895 32.1699L51.7156 34.6723L50.0895 37.1746H46.7857L45.2047 34.6723L46.7857 32.1699H50.0895ZM50.4508 31.5684H46.4114L44.4498 34.6723L46.4114 37.7762H50.4508L52.4705 34.6723L50.4508 31.5684Z" fill="url(#paint113_linear_1110_7995)"/>
<path d="M56.9616 13.667H52.9222L50.9606 10.563L52.9222 7.45312H56.9616L58.9749 10.563L56.9616 13.667Z" fill="url(#paint114_linear_1110_7995)"/>
<path d="M56.5938 8.05466L58.2199 10.557L56.5938 13.0594H53.29L51.7091 10.557L53.29 8.05466H56.5938ZM56.9616 7.45312H52.9222L50.9606 10.557L52.9222 13.6609H56.9616L58.9813 10.557L56.9616 7.45312Z" fill="url(#paint115_linear_1110_7995)"/>
<path d="M56.9616 20.5781H52.9222L50.9606 17.4682L52.9222 14.3643H56.9616L58.9749 17.4682L56.9616 20.5781Z" fill="url(#paint116_linear_1110_7995)"/>
<path d="M56.5938 14.9658L58.2199 17.4682L56.5938 19.9705H53.29L51.7091 17.4682L53.29 14.9658H56.5938ZM56.9616 14.3643H52.9222L50.9606 17.4682L52.9222 20.5721H56.9616L58.9813 17.4682L56.9616 14.3643Z" fill="url(#paint117_linear_1110_7995)"/>
<path d="M56.9616 27.4897H52.9222L50.9606 24.3798L52.9222 21.2759H56.9616L58.9749 24.3798L56.9616 27.4897Z" fill="url(#paint118_linear_1110_7995)"/>
<path d="M56.5938 21.8774L58.2199 24.3798L56.5938 26.8822H53.29L51.7091 24.3798L53.29 21.8774H56.5938ZM56.9616 21.2759H52.9222L50.9606 24.3798L52.9222 27.4837H56.9616L58.9813 24.3798L56.9616 21.2759Z" fill="url(#paint119_linear_1110_7995)"/>
<path d="M56.9616 34.3953H52.9222L50.9606 31.2914L52.9222 28.1875H56.9616L58.9749 31.2914L56.9616 34.3953Z" fill="url(#paint120_linear_1110_7995)"/>
<path d="M56.5938 28.789L58.2199 31.2914L56.5938 33.7938H53.29L51.7091 31.2914L53.29 28.789H56.5938ZM56.9616 28.1875H52.9222L50.9606 31.2914L52.9222 34.3953H56.9616L58.9813 31.2914L56.9616 28.1875Z" fill="url(#paint121_linear_1110_7995)"/>
<path d="M63.4982 10.1357H59.4653L57.5036 7.0318L59.4653 3.92188H63.4982L65.5179 7.0318L63.4982 10.1357Z" fill="url(#paint122_linear_1110_7995)"/>
<path d="M63.1369 4.52341L64.763 7.02578L63.1369 9.52816H59.8331L58.2521 7.02578L59.8331 4.52341H63.1369ZM63.4982 3.92188H59.4588L57.4972 7.02578L59.4588 10.1297H63.4982L65.5179 7.02578L63.4982 3.92188Z" fill="url(#paint123_linear_1110_7995)"/>
<path d="M63.4982 17.0473H59.4653L57.5036 13.9434L59.4653 10.8335H63.4982L65.5179 13.9434L63.4982 17.0473Z" fill="url(#paint124_linear_1110_7995)"/>
<path d="M63.1369 11.435L64.763 13.9374L63.1369 16.4398H59.8331L58.2521 13.9374L59.8331 11.435H63.1369ZM63.4982 10.8335H59.4588L57.4972 13.9374L59.4588 17.0413H63.4982L65.5179 13.9374L63.4982 10.8335Z" fill="url(#paint125_linear_1110_7995)"/>
<path d="M63.4982 23.9589H59.4653L57.5036 20.849L59.4653 17.7451H63.4982L65.5179 20.849L63.4982 23.9589Z" fill="url(#paint126_linear_1110_7995)"/>
<path d="M63.1369 18.3466L64.763 20.849L63.1369 23.3514H59.8331L58.2521 20.849L59.8331 18.3466H63.1369ZM63.4982 17.7451H59.4588L57.4972 20.849L59.4588 23.9529H63.4982L65.5179 20.849L63.4982 17.7451Z" fill="#F89D16"/>
</g>
<path opacity="0.39" d="M16.6191 50.8235L16.3803 45.939L14.109 45.3255L12.3796 42.5885L14.109 39.238L11.9021 36.88L13.6831 33.5294L15.3737 30.2511L11.9021 24.711L14.109 21.601L11.9021 18.6235L7.95304 18.2505L6.17854 14.9L2.62308 9.43203L6.62378 3.10391L7.95304 0L11.9021 0.37295L13.6831 3.10391H25.1689L29.4213 6.31609L31.3249 6.45444H34.8803L37.0872 8.81847H40.6426L46.8502 7.19433L48.573 9.43203H52.1285L53.9095 12.169H58.0521L59.9621 15.1646V21.3664L56.1615 24.4102L54.1418 24.4403L52.7931 27.1051L48.1472 27.4419L46.3662 30.1789L46.5727 33.5174L42.4171 36.507L40.6426 39.238L40.6104 43.2983L38.068 45.939L36.0354 49.7467L32.4025 52.4055L30.3247 56.7125L27.7113 54.962L23.3944 54.5169H19.839L16.6191 50.8235Z" fill="url(#paint127_linear_1110_7995)"/>
<defs>
<linearGradient id="paint0_linear_1110_7995" x1="30.32" y1="58.9795" x2="32.2655" y2="58.9795" gradientUnits="userSpaceOnUse">
<stop stop-color="#FCCE0B"/>
<stop offset="1" stop-color="#F4871B"/>
</linearGradient>
<linearGradient id="paint1_linear_1110_7995" x1="35.5066" y1="60.8937" x2="38.2446" y2="60.8937" gradientUnits="userSpaceOnUse">
<stop stop-color="#FCCE0B"/>
<stop offset="1" stop-color="#F4871B"/>
</linearGradient>
<linearGradient id="paint2_linear_1110_7995" x1="53.8941" y1="9.88352" x2="56.6321" y2="9.88352" gradientUnits="userSpaceOnUse">
<stop stop-color="#FCCE0B"/>
<stop offset="1" stop-color="#F4871B"/>
</linearGradient>
<linearGradient id="paint3_linear_1110_7995" x1="31.8637" y1="51.576" x2="35.1068" y2="57.2688" gradientUnits="userSpaceOnUse">
<stop stop-color="#FCCE0B"/>
<stop offset="1" stop-color="#F4871B"/>
</linearGradient>
<linearGradient id="paint4_linear_1110_7995" x1="1.14155" y1="0.541016" x2="4.8462" y2="10.8818" gradientUnits="userSpaceOnUse">
<stop stop-color="#FCCE0B"/>
<stop offset="1" stop-color="#F4871B"/>
</linearGradient>
<linearGradient id="paint5_linear_1110_7995" x1="1.14155" y1="0.541016" x2="4.83984" y2="10.874" gradientUnits="userSpaceOnUse">
<stop stop-color="#FCCE0B"/>
<stop offset="1" stop-color="#F4871B"/>
</linearGradient>
<linearGradient id="paint6_linear_1110_7995" x1="1.14155" y1="7.45313" x2="4.8462" y2="17.7939" gradientUnits="userSpaceOnUse">
<stop stop-color="#FCCE0B"/>
<stop offset="1" stop-color="#F4871B"/>
</linearGradient>
<linearGradient id="paint7_linear_1110_7995" x1="1.14155" y1="7.45313" x2="4.8462" y2="17.7939" gradientUnits="userSpaceOnUse">
<stop stop-color="#FCCE0B"/>
<stop offset="1" stop-color="#F4871B"/>
</linearGradient>
<linearGradient id="paint8_linear_1110_7995" x1="1.14155" y1="14.3643" x2="4.8462" y2="24.705" gradientUnits="userSpaceOnUse">
<stop stop-color="#FCCE0B"/>
<stop offset="1" stop-color="#F4871B"/>
</linearGradient>
<linearGradient id="paint9_linear_1110_7995" x1="1.14155" y1="14.3643" x2="4.83984" y2="24.6973" gradientUnits="userSpaceOnUse">
<stop stop-color="#FCCE0B"/>
<stop offset="1" stop-color="#F4871B"/>
</linearGradient>
<linearGradient id="paint10_linear_1110_7995" x1="7.68463" y1="-2.98389" x2="11.3829" y2="7.34912" gradientUnits="userSpaceOnUse">
<stop stop-color="#FCCE0B"/>
<stop offset="1" stop-color="#F4871B"/>
</linearGradient>
<linearGradient id="paint11_linear_1110_7995" x1="7.68463" y1="-2.98389" x2="11.3829" y2="7.34912" gradientUnits="userSpaceOnUse">
<stop stop-color="#FCCE0B"/>
<stop offset="1" stop-color="#F4871B"/>
</linearGradient>
<linearGradient id="paint12_linear_1110_7995" x1="7.68463" y1="3.92188" x2="11.3893" y2="14.2626" gradientUnits="userSpaceOnUse">
<stop stop-color="#FCCE0B"/>
<stop offset="1" stop-color="#F4871B"/>
</linearGradient>
<linearGradient id="paint13_linear_1110_7995" x1="7.68463" y1="3.92188" x2="11.3829" y2="14.2549" gradientUnits="userSpaceOnUse">
<stop stop-color="#FCCE0B"/>
<stop offset="1" stop-color="#F4871B"/>
</linearGradient>
<linearGradient id="paint14_linear_1110_7995" x1="7.68463" y1="10.8335" x2="11.3893" y2="21.1742" gradientUnits="userSpaceOnUse">
<stop stop-color="#FCCE0B"/>
<stop offset="1" stop-color="#F4871B"/>
</linearGradient>
<linearGradient id="paint15_linear_1110_7995" x1="7.68463" y1="10.8335" x2="11.3829" y2="21.1665" gradientUnits="userSpaceOnUse">
<stop stop-color="#FCCE0B"/>
<stop offset="1" stop-color="#F4871B"/>
</linearGradient>
<linearGradient id="paint16_linear_1110_7995" x1="7.68463" y1="17.7451" x2="11.3893" y2="28.0859" gradientUnits="userSpaceOnUse">
<stop stop-color="#FCCE0B"/>
<stop offset="1" stop-color="#F4871B"/>
</linearGradient>
<linearGradient id="paint17_linear_1110_7995" x1="7.68463" y1="17.7451" x2="11.3829" y2="28.0781" gradientUnits="userSpaceOnUse">
<stop stop-color="#FCCE0B"/>
<stop offset="1" stop-color="#F4871B"/>
</linearGradient>
<linearGradient id="paint18_linear_1110_7995" x1="7.68463" y1="24.6567" x2="11.3893" y2="34.9975" gradientUnits="userSpaceOnUse">
<stop stop-color="#FCCE0B"/>
<stop offset="1" stop-color="#F4871B"/>
</linearGradient>
<linearGradient id="paint19_linear_1110_7995" x1="7.68463" y1="24.6567" x2="11.3829" y2="34.9897" gradientUnits="userSpaceOnUse">
<stop stop-color="#FCCE0B"/>
<stop offset="1" stop-color="#F4871B"/>
</linearGradient>
<linearGradient id="paint20_linear_1110_7995" x1="7.68463" y1="31.5684" x2="11.3829" y2="41.9014" gradientUnits="userSpaceOnUse">
<stop stop-color="#FCCE0B"/>
<stop offset="1" stop-color="#F4871B"/>
</linearGradient>
<linearGradient id="paint21_linear_1110_7995" x1="7.68463" y1="31.5684" x2="11.3829" y2="41.9014" gradientUnits="userSpaceOnUse">
<stop stop-color="#FCCE0B"/>
<stop offset="1" stop-color="#F4871B"/>
</linearGradient>
<linearGradient id="paint22_linear_1110_7995" x1="7.68463" y1="38.48" x2="11.3829" y2="48.813" gradientUnits="userSpaceOnUse">
<stop stop-color="#FCCE0B"/>
<stop offset="1" stop-color="#F4871B"/>
</linearGradient>
<linearGradient id="paint23_linear_1110_7995" x1="7.68463" y1="38.48" x2="11.3829" y2="48.813" gradientUnits="userSpaceOnUse">
<stop stop-color="#FCCE0B"/>
<stop offset="1" stop-color="#F4871B"/>
</linearGradient>
<linearGradient id="paint24_linear_1110_7995" x1="14.1935" y1="0.541016" x2="17.9005" y2="10.8799" gradientUnits="userSpaceOnUse">
<stop stop-color="#FCCE0B"/>
<stop offset="1" stop-color="#F4871B"/>
</linearGradient>
<linearGradient id="paint25_linear_1110_7995" x1="14.189" y1="0.541016" x2="17.8873" y2="10.874" gradientUnits="userSpaceOnUse">
<stop stop-color="#FCCE0B"/>
<stop offset="1" stop-color="#F4871B"/>
</linearGradient>
<linearGradient id="paint26_linear_1110_7995" x1="14.1935" y1="7.45264" x2="17.9005" y2="17.7915" gradientUnits="userSpaceOnUse">
<stop stop-color="#FCCE0B"/>
<stop offset="1" stop-color="#F4871B"/>
</linearGradient>
<linearGradient id="paint27_linear_1110_7995" x1="14.189" y1="7.45313" x2="17.8873" y2="17.7861" gradientUnits="userSpaceOnUse">
<stop stop-color="#FCCE0B"/>
<stop offset="1" stop-color="#F4871B"/>
</linearGradient>
<linearGradient id="paint28_linear_1110_7995" x1="14.1935" y1="14.3647" x2="17.9005" y2="24.7036" gradientUnits="userSpaceOnUse">
<stop stop-color="#FCCE0B"/>
<stop offset="1" stop-color="#F4871B"/>
</linearGradient>
<linearGradient id="paint29_linear_1110_7995" x1="14.189" y1="14.3643" x2="17.8873" y2="24.6973" gradientUnits="userSpaceOnUse">
<stop stop-color="#FCCE0B"/>
<stop offset="1" stop-color="#F4871B"/>
</linearGradient>
<linearGradient id="paint30_linear_1110_7995" x1="14.1935" y1="21.2759" x2="17.9005" y2="31.6147" gradientUnits="userSpaceOnUse">
<stop stop-color="#FCCE0B"/>
<stop offset="1" stop-color="#F4871B"/>
</linearGradient>
<linearGradient id="paint31_linear_1110_7995" x1="14.189" y1="21.2759" x2="17.8873" y2="31.6089" gradientUnits="userSpaceOnUse">
<stop stop-color="#FCCE0B"/>
<stop offset="1" stop-color="#F4871B"/>
</linearGradient>
<linearGradient id="paint32_linear_1110_7995" x1="14.1935" y1="28.1875" x2="17.8941" y2="38.5186" gradientUnits="userSpaceOnUse">
<stop stop-color="#FCCE0B"/>
<stop offset="1" stop-color="#F4871B"/>
</linearGradient>
<linearGradient id="paint33_linear_1110_7995" x1="14.189" y1="28.1875" x2="17.8873" y2="38.5205" gradientUnits="userSpaceOnUse">
<stop stop-color="#FCCE0B"/>
<stop offset="1" stop-color="#F4871B"/>
</linearGradient>
<linearGradient id="paint34_linear_1110_7995" x1="14.1935" y1="35.0991" x2="17.8941" y2="45.4302" gradientUnits="userSpaceOnUse">
<stop stop-color="#FCCE0B"/>
<stop offset="1" stop-color="#F4871B"/>
</linearGradient>
<linearGradient id="paint35_linear_1110_7995" x1="14.189" y1="35.0991" x2="17.8873" y2="45.4321" gradientUnits="userSpaceOnUse">
<stop stop-color="#FCCE0B"/>
<stop offset="1" stop-color="#F4871B"/>
</linearGradient>
<linearGradient id="paint36_linear_1110_7995" x1="14.1935" y1="42.0049" x2="17.9005" y2="52.3437" gradientUnits="userSpaceOnUse">
<stop stop-color="#FCCE0B"/>
<stop offset="1" stop-color="#F4871B"/>
</linearGradient>
<linearGradient id="paint37_linear_1110_7995" x1="14.189" y1="42.0049" x2="17.8873" y2="52.3379" gradientUnits="userSpaceOnUse">
<stop stop-color="#FCCE0B"/>
<stop offset="1" stop-color="#F4871B"/>
</linearGradient>
<linearGradient id="paint38_linear_1110_7995" x1="14.1935" y1="48.9165" x2="17.9004" y2="59.2554" gradientUnits="userSpaceOnUse">
<stop stop-color="#FCCE0B"/>
<stop offset="1" stop-color="#F4871B"/>
</linearGradient>
<linearGradient id="paint39_linear_1110_7995" x1="14.189" y1="48.9165" x2="17.8873" y2="59.2495" gradientUnits="userSpaceOnUse">
<stop stop-color="#FCCE0B"/>
<stop offset="1" stop-color="#F4871B"/>
</linearGradient>
<linearGradient id="paint40_linear_1110_7995" x1="20.7321" y1="3.92188" x2="24.4367" y2="14.2626" gradientUnits="userSpaceOnUse">
<stop stop-color="#FCCE0B"/>
<stop offset="1" stop-color="#F4871B"/>
</linearGradient>
<linearGradient id="paint41_linear_1110_7995" x1="20.7321" y1="3.92188" x2="24.4304" y2="14.2549" gradientUnits="userSpaceOnUse">
<stop stop-color="#FCCE0B"/>
<stop offset="1" stop-color="#F4871B"/>
</linearGradient>
<linearGradient id="paint42_linear_1110_7995" x1="20.7321" y1="10.8335" x2="24.4367" y2="21.1742" gradientUnits="userSpaceOnUse">
<stop stop-color="#FCCE0B"/>
<stop offset="1" stop-color="#F4871B"/>
</linearGradient>
<linearGradient id="paint43_linear_1110_7995" x1="20.7321" y1="10.8335" x2="24.4304" y2="21.1665" gradientUnits="userSpaceOnUse">
<stop stop-color="#FCCE0B"/>
<stop offset="1" stop-color="#F4871B"/>
</linearGradient>
<linearGradient id="paint44_linear_1110_7995" x1="20.7321" y1="17.7451" x2="24.4367" y2="28.0859" gradientUnits="userSpaceOnUse">
<stop stop-color="#FCCE0B"/>
<stop offset="1" stop-color="#F4871B"/>
</linearGradient>
<linearGradient id="paint45_linear_1110_7995" x1="20.7321" y1="17.7451" x2="24.4304" y2="28.0781" gradientUnits="userSpaceOnUse">
<stop stop-color="#FCCE0B"/>
<stop offset="1" stop-color="#F4871B"/>
</linearGradient>
<linearGradient id="paint46_linear_1110_7995" x1="20.7321" y1="24.6567" x2="24.4367" y2="34.9975" gradientUnits="userSpaceOnUse">
<stop stop-color="#FCCE0B"/>
<stop offset="1" stop-color="#F4871B"/>
</linearGradient>
<linearGradient id="paint47_linear_1110_7995" x1="20.7321" y1="24.6567" x2="24.4304" y2="34.9897" gradientUnits="userSpaceOnUse">
<stop stop-color="#FCCE0B"/>
<stop offset="1" stop-color="#F4871B"/>
</linearGradient>
<linearGradient id="paint48_linear_1110_7995" x1="20.7321" y1="31.5684" x2="24.4304" y2="41.9014" gradientUnits="userSpaceOnUse">
<stop stop-color="#FCCE0B"/>
<stop offset="1" stop-color="#F4871B"/>
</linearGradient>
<linearGradient id="paint49_linear_1110_7995" x1="20.7321" y1="31.5684" x2="24.4304" y2="41.9014" gradientUnits="userSpaceOnUse">
<stop stop-color="#FCCE0B"/>
<stop offset="1" stop-color="#F4871B"/>
</linearGradient>
<linearGradient id="paint50_linear_1110_7995" x1="20.7321" y1="38.48" x2="24.4304" y2="48.813" gradientUnits="userSpaceOnUse">
<stop stop-color="#FCCE0B"/>
<stop offset="1" stop-color="#F4871B"/>
</linearGradient>
<linearGradient id="paint51_linear_1110_7995" x1="20.7321" y1="38.48" x2="24.4304" y2="48.813" gradientUnits="userSpaceOnUse">
<stop stop-color="#FCCE0B"/>
<stop offset="1" stop-color="#F4871B"/>
</linearGradient>
<linearGradient id="paint52_linear_1110_7995" x1="20.7321" y1="45.3857" x2="24.4367" y2="55.7265" gradientUnits="userSpaceOnUse">
<stop stop-color="#FCCE0B"/>
<stop offset="1" stop-color="#F4871B"/>
</linearGradient>
<linearGradient id="paint53_linear_1110_7995" x1="20.7321" y1="45.3857" x2="24.4304" y2="55.7188" gradientUnits="userSpaceOnUse">
<stop stop-color="#FCCE0B"/>
<stop offset="1" stop-color="#F4871B"/>
</linearGradient>
<linearGradient id="paint54_linear_1110_7995" x1="20.7321" y1="52.2969" x2="24.4367" y2="62.6376" gradientUnits="userSpaceOnUse">
<stop stop-color="#FCCE0B"/>
<stop offset="1" stop-color="#F4871B"/>
</linearGradient>
<linearGradient id="paint55_linear_1110_7995" x1="20.7321" y1="52.2969" x2="24.4304" y2="62.6299" gradientUnits="userSpaceOnUse">
<stop stop-color="#FCCE0B"/>
<stop offset="1" stop-color="#F4871B"/>
</linearGradient>
<linearGradient id="paint56_linear_1110_7995" x1="27.2409" y1="0.541016" x2="30.9479" y2="10.8799" gradientUnits="userSpaceOnUse">
<stop stop-color="#FCCE0B"/>
<stop offset="1" stop-color="#F4871B"/>
</linearGradient>
<linearGradient id="paint57_linear_1110_7995" x1="27.2364" y1="0.541016" x2="30.9347" y2="10.874" gradientUnits="userSpaceOnUse">
<stop stop-color="#FCCE0B"/>
<stop offset="1" stop-color="#F4871B"/>
</linearGradient>
<linearGradient id="paint58_linear_1110_7995" x1="27.2409" y1="7.45264" x2="30.9479" y2="17.7915" gradientUnits="userSpaceOnUse">
<stop stop-color="#FCCE0B"/>
<stop offset="1" stop-color="#F4871B"/>
</linearGradient>
<linearGradient id="paint59_linear_1110_7995" x1="27.2364" y1="7.45313" x2="30.9347" y2="17.7861" gradientUnits="userSpaceOnUse">
<stop stop-color="#FCCE0B"/>
<stop offset="1" stop-color="#F4871B"/>
</linearGradient>
<linearGradient id="paint60_linear_1110_7995" x1="27.2409" y1="14.3647" x2="30.9479" y2="24.7036" gradientUnits="userSpaceOnUse">
<stop stop-color="#FCCE0B"/>
<stop offset="1" stop-color="#F4871B"/>
</linearGradient>
<linearGradient id="paint61_linear_1110_7995" x1="27.2364" y1="14.3643" x2="30.9347" y2="24.6973" gradientUnits="userSpaceOnUse">
<stop stop-color="#FCCE0B"/>
<stop offset="1" stop-color="#F4871B"/>
</linearGradient>
<linearGradient id="paint62_linear_1110_7995" x1="27.2409" y1="21.2759" x2="30.9479" y2="31.6147" gradientUnits="userSpaceOnUse">
<stop stop-color="#FCCE0B"/>
<stop offset="1" stop-color="#F4871B"/>
</linearGradient>
<linearGradient id="paint63_linear_1110_7995" x1="27.2364" y1="21.2759" x2="30.9347" y2="31.6089" gradientUnits="userSpaceOnUse">
<stop stop-color="#FCCE0B"/>
<stop offset="1" stop-color="#F4871B"/>
</linearGradient>
<linearGradient id="paint64_linear_1110_7995" x1="27.2409" y1="28.1875" x2="30.9415" y2="38.5186" gradientUnits="userSpaceOnUse">
<stop stop-color="#FCCE0B"/>
<stop offset="1" stop-color="#F4871B"/>
</linearGradient>
<linearGradient id="paint65_linear_1110_7995" x1="27.2364" y1="28.1875" x2="30.9347" y2="38.5205" gradientUnits="userSpaceOnUse">
<stop stop-color="#FCCE0B"/>
<stop offset="1" stop-color="#F4871B"/>
</linearGradient>
<linearGradient id="paint66_linear_1110_7995" x1="27.2409" y1="35.0991" x2="30.9415" y2="45.4302" gradientUnits="userSpaceOnUse">
<stop stop-color="#FCCE0B"/>
<stop offset="1" stop-color="#F4871B"/>
</linearGradient>
<linearGradient id="paint67_linear_1110_7995" x1="27.2364" y1="35.0991" x2="30.9347" y2="45.4321" gradientUnits="userSpaceOnUse">
<stop stop-color="#FCCE0B"/>
<stop offset="1" stop-color="#F4871B"/>
</linearGradient>
<linearGradient id="paint68_linear_1110_7995" x1="27.2409" y1="42.0049" x2="30.9479" y2="52.3437" gradientUnits="userSpaceOnUse">
<stop stop-color="#FCCE0B"/>
<stop offset="1" stop-color="#F4871B"/>
</linearGradient>
<linearGradient id="paint69_linear_1110_7995" x1="27.2364" y1="42.0049" x2="30.9347" y2="52.3379" gradientUnits="userSpaceOnUse">
<stop stop-color="#FCCE0B"/>
<stop offset="1" stop-color="#F4871B"/>
</linearGradient>
<linearGradient id="paint70_linear_1110_7995" x1="27.2409" y1="48.9165" x2="30.9479" y2="59.2554" gradientUnits="userSpaceOnUse">
<stop stop-color="#FCCE0B"/>
<stop offset="1" stop-color="#F4871B"/>
</linearGradient>
<linearGradient id="paint71_linear_1110_7995" x1="27.2364" y1="48.9165" x2="30.9347" y2="59.2495" gradientUnits="userSpaceOnUse">
<stop stop-color="#FCCE0B"/>
<stop offset="1" stop-color="#F4871B"/>
</linearGradient>
<linearGradient id="paint72_linear_1110_7995" x1="27.2409" y1="55.8281" x2="30.9479" y2="66.167" gradientUnits="userSpaceOnUse">
<stop stop-color="#FCCE0B"/>
<stop offset="1" stop-color="#F4871B"/>
</linearGradient>
<linearGradient id="paint73_linear_1110_7995" x1="27.2364" y1="55.8281" x2="30.9347" y2="66.1611" gradientUnits="userSpaceOnUse">
<stop stop-color="#FCCE0B"/>
<stop offset="1" stop-color="#F4871B"/>
</linearGradient>
<linearGradient id="paint74_linear_1110_7995" x1="33.784" y1="3.92188" x2="37.491" y2="14.2607" gradientUnits="userSpaceOnUse">
<stop stop-color="#FCCE0B"/>
<stop offset="1" stop-color="#F4871B"/>
</linearGradient>
<linearGradient id="paint75_linear_1110_7995" x1="33.7795" y1="3.92188" x2="37.4778" y2="14.2549" gradientUnits="userSpaceOnUse">
<stop stop-color="#FCCE0B"/>
<stop offset="1" stop-color="#F4871B"/>
</linearGradient>
<linearGradient id="paint76_linear_1110_7995" x1="33.784" y1="10.8335" x2="37.491" y2="21.1723" gradientUnits="userSpaceOnUse">
<stop stop-color="#FCCE0B"/>
<stop offset="1" stop-color="#F4871B"/>
</linearGradient>
<linearGradient id="paint77_linear_1110_7995" x1="33.7795" y1="10.8335" x2="37.4778" y2="21.1665" gradientUnits="userSpaceOnUse">
<stop stop-color="#FCCE0B"/>
<stop offset="1" stop-color="#F4871B"/>
</linearGradient>
<linearGradient id="paint78_linear_1110_7995" x1="33.784" y1="17.7451" x2="37.491" y2="28.084" gradientUnits="userSpaceOnUse">
<stop stop-color="#FCCE0B"/>
<stop offset="1" stop-color="#F4871B"/>
</linearGradient>
<linearGradient id="paint79_linear_1110_7995" x1="33.7795" y1="17.7451" x2="37.4778" y2="28.0781" gradientUnits="userSpaceOnUse">
<stop stop-color="#FCCE0B"/>
<stop offset="1" stop-color="#F4871B"/>
</linearGradient>
<linearGradient id="paint80_linear_1110_7995" x1="33.784" y1="24.6567" x2="37.491" y2="34.9956" gradientUnits="userSpaceOnUse">
<stop stop-color="#FCCE0B"/>
<stop offset="1" stop-color="#F4871B"/>
</linearGradient>
<linearGradient id="paint81_linear_1110_7995" x1="33.7795" y1="24.6567" x2="37.4778" y2="34.9897" gradientUnits="userSpaceOnUse">
<stop stop-color="#FCCE0B"/>
<stop offset="1" stop-color="#F4871B"/>
</linearGradient>
<linearGradient id="paint82_linear_1110_7995" x1="33.784" y1="31.5679" x2="37.4846" y2="41.899" gradientUnits="userSpaceOnUse">
<stop stop-color="#FCCE0B"/>
<stop offset="1" stop-color="#F4871B"/>
</linearGradient>
<linearGradient id="paint83_linear_1110_7995" x1="33.7795" y1="31.5684" x2="37.4778" y2="41.9014" gradientUnits="userSpaceOnUse">
<stop stop-color="#FCCE0B"/>
<stop offset="1" stop-color="#F4871B"/>
</linearGradient>
<linearGradient id="paint84_linear_1110_7995" x1="33.784" y1="38.48" x2="37.4846" y2="48.8111" gradientUnits="userSpaceOnUse">
<stop stop-color="#FCCE0B"/>
<stop offset="1" stop-color="#F4871B"/>
</linearGradient>
<linearGradient id="paint85_linear_1110_7995" x1="33.7795" y1="38.48" x2="37.4778" y2="48.813" gradientUnits="userSpaceOnUse">
<stop stop-color="#FCCE0B"/>
<stop offset="1" stop-color="#F4871B"/>
</linearGradient>
<linearGradient id="paint86_linear_1110_7995" x1="33.784" y1="45.3857" x2="37.491" y2="55.7246" gradientUnits="userSpaceOnUse">
<stop stop-color="#FCCE0B"/>
<stop offset="1" stop-color="#F4871B"/>
</linearGradient>
<linearGradient id="paint87_linear_1110_7995" x1="33.7795" y1="45.3857" x2="37.4778" y2="55.7188" gradientUnits="userSpaceOnUse">
<stop stop-color="#FCCE0B"/>
<stop offset="1" stop-color="#F4871B"/>
</linearGradient>
<linearGradient id="paint88_linear_1110_7995" x1="33.784" y1="52.2969" x2="37.491" y2="62.6357" gradientUnits="userSpaceOnUse">
<stop stop-color="#FCCE0B"/>
<stop offset="1" stop-color="#F4871B"/>
</linearGradient>
<linearGradient id="paint89_linear_1110_7995" x1="33.7795" y1="52.2969" x2="37.4778" y2="62.6299" gradientUnits="userSpaceOnUse">
<stop stop-color="#FCCE0B"/>
<stop offset="1" stop-color="#F4871B"/>
</linearGradient>
<linearGradient id="paint90_linear_1110_7995" x1="40.2884" y1="7.45264" x2="43.9954" y2="17.7915" gradientUnits="userSpaceOnUse">
<stop stop-color="#FCCE0B"/>
<stop offset="1" stop-color="#F4871B"/>
</linearGradient>
<linearGradient id="paint91_linear_1110_7995" x1="40.2839" y1="7.45313" x2="43.9822" y2="17.7861" gradientUnits="userSpaceOnUse">
<stop stop-color="#FCCE0B"/>
<stop offset="1" stop-color="#F4871B"/>
</linearGradient>
<linearGradient id="paint92_linear_1110_7995" x1="40.2884" y1="14.3647" x2="43.9954" y2="24.7036" gradientUnits="userSpaceOnUse">
<stop stop-color="#FCCE0B"/>
<stop offset="1" stop-color="#F4871B"/>
</linearGradient>
<linearGradient id="paint93_linear_1110_7995" x1="40.2839" y1="14.3643" x2="43.9822" y2="24.6973" gradientUnits="userSpaceOnUse">
<stop stop-color="#FCCE0B"/>
<stop offset="1" stop-color="#F4871B"/>
</linearGradient>
<linearGradient id="paint94_linear_1110_7995" x1="40.2884" y1="21.2759" x2="43.9954" y2="31.6147" gradientUnits="userSpaceOnUse">
<stop stop-color="#FCCE0B"/>
<stop offset="1" stop-color="#F4871B"/>
</linearGradient>
<linearGradient id="paint95_linear_1110_7995" x1="40.2839" y1="21.2759" x2="43.9822" y2="31.6089" gradientUnits="userSpaceOnUse">
<stop stop-color="#FCCE0B"/>
<stop offset="1" stop-color="#F4871B"/>
</linearGradient>
<linearGradient id="paint96_linear_1110_7995" x1="40.2884" y1="28.1875" x2="43.989" y2="38.5186" gradientUnits="userSpaceOnUse">
<stop stop-color="#FCCE0B"/>
<stop offset="1" stop-color="#F4871B"/>
</linearGradient>
<linearGradient id="paint97_linear_1110_7995" x1="40.2839" y1="28.1875" x2="43.9822" y2="38.5205" gradientUnits="userSpaceOnUse">
<stop stop-color="#FCCE0B"/>
<stop offset="1" stop-color="#F4871B"/>
</linearGradient>
<linearGradient id="paint98_linear_1110_7995" x1="40.2884" y1="35.0991" x2="43.989" y2="45.4302" gradientUnits="userSpaceOnUse">
<stop stop-color="#FCCE0B"/>
<stop offset="1" stop-color="#F4871B"/>
</linearGradient>
<linearGradient id="paint99_linear_1110_7995" x1="40.2839" y1="35.0991" x2="43.9822" y2="45.4321" gradientUnits="userSpaceOnUse">
<stop stop-color="#FCCE0B"/>
<stop offset="1" stop-color="#F4871B"/>
</linearGradient>
<linearGradient id="paint100_linear_1110_7995" x1="40.2884" y1="42.0049" x2="43.9954" y2="52.3437" gradientUnits="userSpaceOnUse">
<stop stop-color="#FCCE0B"/>
<stop offset="1" stop-color="#F4871B"/>
</linearGradient>
<linearGradient id="paint101_linear_1110_7995" x1="40.2839" y1="42.0049" x2="43.9822" y2="52.3379" gradientUnits="userSpaceOnUse">
<stop stop-color="#FCCE0B"/>
<stop offset="1" stop-color="#F4871B"/>
</linearGradient>
<linearGradient id="paint102_linear_1110_7995" x1="40.2884" y1="55.8281" x2="43.9954" y2="66.167" gradientUnits="userSpaceOnUse">
<stop stop-color="#FCCE0B"/>
<stop offset="1" stop-color="#F4871B"/>
</linearGradient>
<linearGradient id="paint103_linear_1110_7995" x1="40.2839" y1="55.8281" x2="43.9822" y2="66.1611" gradientUnits="userSpaceOnUse">
<stop stop-color="#FCCE0B"/>
<stop offset="1" stop-color="#F4871B"/>
</linearGradient>
<linearGradient id="paint104_linear_1110_7995" x1="46.8315" y1="3.92188" x2="50.5384" y2="14.2607" gradientUnits="userSpaceOnUse">
<stop stop-color="#FCCE0B"/>
<stop offset="1" stop-color="#F4871B"/>
</linearGradient>
<linearGradient id="paint105_linear_1110_7995" x1="46.827" y1="3.92188" x2="50.5253" y2="14.2549" gradientUnits="userSpaceOnUse">
<stop stop-color="#FCCE0B"/>
<stop offset="1" stop-color="#F4871B"/>
</linearGradient>
<linearGradient id="paint106_linear_1110_7995" x1="46.8315" y1="10.8335" x2="50.5384" y2="21.1723" gradientUnits="userSpaceOnUse">
<stop stop-color="#FCCE0B"/>
<stop offset="1" stop-color="#F4871B"/>
</linearGradient>
<linearGradient id="paint107_linear_1110_7995" x1="46.827" y1="10.8335" x2="50.5253" y2="21.1665" gradientUnits="userSpaceOnUse">
<stop stop-color="#FCCE0B"/>
<stop offset="1" stop-color="#F4871B"/>
</linearGradient>
<linearGradient id="paint108_linear_1110_7995" x1="46.8315" y1="17.7451" x2="50.5384" y2="28.084" gradientUnits="userSpaceOnUse">
<stop stop-color="#FCCE0B"/>
<stop offset="1" stop-color="#F4871B"/>
</linearGradient>
<linearGradient id="paint109_linear_1110_7995" x1="46.827" y1="17.7451" x2="50.5253" y2="28.0781" gradientUnits="userSpaceOnUse">
<stop stop-color="#FCCE0B"/>
<stop offset="1" stop-color="#F4871B"/>
</linearGradient>
<linearGradient id="paint110_linear_1110_7995" x1="46.8315" y1="24.6567" x2="50.5384" y2="34.9956" gradientUnits="userSpaceOnUse">
<stop stop-color="#FCCE0B"/>
<stop offset="1" stop-color="#F4871B"/>
</linearGradient>
<linearGradient id="paint111_linear_1110_7995" x1="46.827" y1="24.6567" x2="50.5253" y2="34.9897" gradientUnits="userSpaceOnUse">
<stop stop-color="#FCCE0B"/>
<stop offset="1" stop-color="#F4871B"/>
</linearGradient>
<linearGradient id="paint112_linear_1110_7995" x1="46.8315" y1="31.5679" x2="50.5321" y2="41.899" gradientUnits="userSpaceOnUse">
<stop stop-color="#FCCE0B"/>
<stop offset="1" stop-color="#F4871B"/>
</linearGradient>
<linearGradient id="paint113_linear_1110_7995" x1="46.827" y1="31.5684" x2="50.5253" y2="41.9014" gradientUnits="userSpaceOnUse">
<stop stop-color="#FCCE0B"/>
<stop offset="1" stop-color="#F4871B"/>
</linearGradient>
<linearGradient id="paint114_linear_1110_7995" x1="53.3358" y1="7.45313" x2="57.0428" y2="17.792" gradientUnits="userSpaceOnUse">
<stop stop-color="#FCCE0B"/>
<stop offset="1" stop-color="#F4871B"/>
</linearGradient>
<linearGradient id="paint115_linear_1110_7995" x1="53.3377" y1="7.45313" x2="57.036" y2="17.7861" gradientUnits="userSpaceOnUse">
<stop stop-color="#FCCE0B"/>
<stop offset="1" stop-color="#F4871B"/>
</linearGradient>
<linearGradient id="paint116_linear_1110_7995" x1="53.3358" y1="14.3643" x2="57.0428" y2="24.7031" gradientUnits="userSpaceOnUse">
<stop stop-color="#FCCE0B"/>
<stop offset="1" stop-color="#F4871B"/>
</linearGradient>
<linearGradient id="paint117_linear_1110_7995" x1="53.3377" y1="14.3643" x2="57.036" y2="24.6973" gradientUnits="userSpaceOnUse">
<stop stop-color="#FCCE0B"/>
<stop offset="1" stop-color="#F4871B"/>
</linearGradient>
<linearGradient id="paint118_linear_1110_7995" x1="53.3358" y1="21.2759" x2="57.0428" y2="31.6147" gradientUnits="userSpaceOnUse">
<stop stop-color="#FCCE0B"/>
<stop offset="1" stop-color="#F4871B"/>
</linearGradient>
<linearGradient id="paint119_linear_1110_7995" x1="53.3377" y1="21.2759" x2="57.036" y2="31.6089" gradientUnits="userSpaceOnUse">
<stop stop-color="#FCCE0B"/>
<stop offset="1" stop-color="#F4871B"/>
</linearGradient>
<linearGradient id="paint120_linear_1110_7995" x1="53.3358" y1="28.1875" x2="57.0364" y2="38.5186" gradientUnits="userSpaceOnUse">
<stop stop-color="#FCCE0B"/>
<stop offset="1" stop-color="#F4871B"/>
</linearGradient>
<linearGradient id="paint121_linear_1110_7995" x1="53.3377" y1="28.1875" x2="57.036" y2="38.5205" gradientUnits="userSpaceOnUse">
<stop stop-color="#FCCE0B"/>
<stop offset="1" stop-color="#F4871B"/>
</linearGradient>
<linearGradient id="paint122_linear_1110_7995" x1="59.8789" y1="3.92188" x2="63.5859" y2="14.2607" gradientUnits="userSpaceOnUse">
<stop stop-color="#FCCE0B"/>
<stop offset="1" stop-color="#F4871B"/>
</linearGradient>
<linearGradient id="paint123_linear_1110_7995" x1="59.8744" y1="3.92188" x2="63.5727" y2="14.2549" gradientUnits="userSpaceOnUse">
<stop stop-color="#FCCE0B"/>
<stop offset="1" stop-color="#F4871B"/>
</linearGradient>
<linearGradient id="paint124_linear_1110_7995" x1="59.8789" y1="10.8335" x2="63.5859" y2="21.1723" gradientUnits="userSpaceOnUse">
<stop stop-color="#FCCE0B"/>
<stop offset="1" stop-color="#F4871B"/>
</linearGradient>
<linearGradient id="paint125_linear_1110_7995" x1="59.8744" y1="10.8335" x2="63.5727" y2="21.1665" gradientUnits="userSpaceOnUse">
<stop stop-color="#FCCE0B"/>
<stop offset="1" stop-color="#F4871B"/>
</linearGradient>
<linearGradient id="paint126_linear_1110_7995" x1="59.8789" y1="17.7451" x2="63.5859" y2="28.084" gradientUnits="userSpaceOnUse">
<stop stop-color="#FCCE0B"/>
<stop offset="1" stop-color="#F4871B"/>
</linearGradient>
<linearGradient id="paint127_linear_1110_7995" x1="-15" y1="28" x2="67" y2="28" gradientUnits="userSpaceOnUse">
<stop offset="0.00520833" stop-color="#FCCE0B" stop-opacity="0"/>
<stop offset="0.338542" stop-color="#F8A513" stop-opacity="0.4078"/>
<stop offset="0.575553" stop-color="#F58419" stop-opacity="0.7899"/>
<stop offset="0.890625" stop-color="#F4781B"/>
</linearGradient>
</defs>
</svg>
