<svg width="148" height="286" viewBox="0 0 148 286" fill="none" xmlns="http://www.w3.org/2000/svg">
<g clip-path="url(#clip0_1110_4881)">
<g opacity="0.1">
<path d="M1.34998 285.01C0.859977 285.01 0.389977 284.74 0.149977 284.27C-0.180023 283.61 0.079977 282.8 0.739977 282.46C1.87998 281.88 3.05998 281.26 4.27998 280.6C4.92998 280.25 5.74998 280.49 6.09998 281.14C6.44998 281.79 6.20998 282.61 5.55998 282.96C4.30998 283.64 3.10998 284.27 1.94998 284.86C1.75998 284.96 1.54998 285.01 1.34998 285.01ZM11.93 279.1C11.47 279.1 11.03 278.87 10.78 278.45C10.4 277.81 10.6 276.99 11.24 276.6C12.36 275.93 13.5 275.22 14.66 274.49C15.29 274.09 16.12 274.28 16.51 274.91C16.91 275.54 16.72 276.37 16.09 276.76C14.92 277.5 13.76 278.21 12.63 278.89C12.41 279.04 12.17 279.1 11.93 279.1ZM22.13 272.57C21.7 272.57 21.27 272.36 21.01 271.98C20.59 271.36 20.76 270.53 21.37 270.11C22.46 269.37 23.57 268.61 24.68 267.84C25.29 267.42 26.13 267.57 26.55 268.17C26.97 268.78 26.82 269.62 26.22 270.04C25.09 270.83 23.98 271.59 22.87 272.34C22.66 272.49 22.39 272.57 22.13 272.57ZM32.03 265.57C31.62 265.57 31.21 265.38 30.95 265.02C30.51 264.42 30.64 263.58 31.23 263.14C32.3 262.35 33.37 261.55 34.45 260.73C35.04 260.28 35.89 260.4 36.33 260.99C36.78 261.58 36.66 262.43 36.07 262.87C34.98 263.7 33.9 264.5 32.82 265.3C32.59 265.49 32.31 265.57 32.03 265.57ZM41.64 258.2C41.24 258.2 40.85 258.03 40.59 257.69C40.13 257.11 40.22 256.26 40.8 255.8C41.84 254.97 42.88 254.13 43.93 253.27C44.51 252.8 45.35 252.89 45.82 253.46C46.29 254.04 46.2 254.88 45.63 255.35C44.58 256.21 43.52 257.06 42.48 257.9C42.23 258.1 41.94 258.2 41.64 258.2ZM50.98 250.48C50.6 250.48 50.23 250.32 49.96 250.01C49.48 249.45 49.54 248.6 50.1 248.11C51.11 247.24 52.12 246.36 53.13 245.47C53.69 244.98 54.54 245.03 55.03 245.59C55.52 246.15 55.47 247 54.91 247.49C53.89 248.39 52.87 249.27 51.85 250.15C51.6 250.37 51.29 250.48 50.98 250.48ZM60.02 242.42C59.66 242.42 59.3 242.27 59.03 241.99C58.53 241.44 58.56 240.59 59.1 240.09C60.08 239.18 61.06 238.27 62.03 237.34C62.57 236.83 63.42 236.85 63.93 237.39C64.44 237.93 64.42 238.78 63.88 239.29C62.9 240.22 61.91 241.15 60.92 242.06C60.68 242.3 60.35 242.42 60.02 242.42ZM68.76 234.03C68.42 234.03 68.07 233.9 67.81 233.64C67.29 233.11 67.29 232.26 67.81 231.74C68.76 230.8 69.7 229.84 70.64 228.88C71.16 228.35 72.01 228.34 72.54 228.86C73.07 229.38 73.08 230.23 72.56 230.76C71.61 231.73 70.66 232.69 69.71 233.64C69.45 233.9 69.1 234.03 68.76 234.03ZM77.16 225.3C76.83 225.3 76.51 225.18 76.25 224.94C75.7 224.44 75.67 223.59 76.17 223.04C77.08 222.06 77.98 221.07 78.87 220.07C79.37 219.52 80.22 219.47 80.77 219.97C81.32 220.47 81.37 221.32 80.87 221.87C79.97 222.88 79.06 223.88 78.14 224.87C77.88 225.16 77.52 225.3 77.16 225.3ZM85.17 216.22C84.86 216.22 84.56 216.12 84.3 215.9C83.73 215.42 83.66 214.57 84.14 214.01C85 212.99 85.86 211.96 86.7 210.92C87.17 210.34 88.02 210.26 88.59 210.73C89.17 211.2 89.25 212.05 88.78 212.62C87.93 213.67 87.06 214.71 86.19 215.75C85.93 216.05 85.55 216.22 85.17 216.22ZM92.74 206.77C92.46 206.77 92.17 206.68 91.93 206.5C91.34 206.05 91.22 205.21 91.67 204.62C92.48 203.56 93.27 202.49 94.06 201.41C94.5 200.81 95.34 200.68 95.94 201.12C96.54 201.56 96.67 202.4 96.23 203C95.43 204.09 94.63 205.17 93.81 206.25C93.54 206.59 93.14 206.77 92.74 206.77ZM99.78 196.94C99.52 196.94 99.26 196.87 99.03 196.71C98.41 196.3 98.25 195.46 98.66 194.84C99.41 193.73 100.14 192.61 100.86 191.49C101.26 190.87 102.09 190.68 102.72 191.09C103.34 191.49 103.53 192.32 103.12 192.95C102.39 194.09 101.64 195.22 100.89 196.34C100.64 196.73 100.21 196.94 99.78 196.94ZM106.21 186.68C105.98 186.68 105.75 186.62 105.54 186.5C104.9 186.13 104.68 185.3 105.05 184.66C105.72 183.5 106.38 182.34 107.02 181.18C107.38 180.53 108.2 180.29 108.85 180.65C109.5 181.01 109.74 181.82 109.38 182.48C108.73 183.67 108.06 184.85 107.38 186.02C107.12 186.44 106.67 186.68 106.21 186.68ZM111.89 175.99C111.69 175.99 111.5 175.95 111.31 175.86C110.64 175.54 110.36 174.73 110.68 174.07C111.26 172.87 111.82 171.66 112.36 170.45C112.66 169.77 113.46 169.47 114.14 169.77C114.82 170.07 115.12 170.87 114.82 171.55C114.27 172.79 113.7 174.02 113.11 175.24C112.87 175.71 112.39 175.99 111.89 175.99ZM116.65 164.87C116.49 164.87 116.33 164.84 116.18 164.78C115.48 164.52 115.13 163.75 115.39 163.05C115.86 161.8 116.3 160.54 116.72 159.29C116.95 158.59 117.72 158.2 118.42 158.44C119.12 158.68 119.5 159.44 119.27 160.14C118.84 161.42 118.39 162.71 117.91 163.99C117.7 164.53 117.19 164.87 116.65 164.87ZM120.27 153.33C120.16 153.33 120.05 153.32 119.94 153.29C119.22 153.11 118.78 152.38 118.97 151.66C119.3 150.36 119.6 149.06 119.87 147.79C120.02 147.06 120.74 146.6 121.46 146.75C122.19 146.9 122.65 147.62 122.5 148.34C122.22 149.65 121.91 150.99 121.57 152.32C121.42 152.93 120.87 153.33 120.27 153.33ZM122.51 141.46C122.46 141.46 122.4 141.46 122.35 141.45C121.61 141.36 121.09 140.69 121.18 139.95C121.34 138.63 121.47 137.3 121.57 136C121.63 135.26 122.28 134.7 123.01 134.76C123.75 134.82 124.31 135.46 124.25 136.2C124.15 137.54 124.01 138.91 123.85 140.27C123.76 140.96 123.18 141.46 122.51 141.46ZM123.12 129.4C122.39 129.4 121.79 128.82 121.78 128.09C121.77 127.53 121.75 126.98 121.72 126.42C121.68 125.64 121.64 124.87 121.6 124.11C121.55 123.37 122.12 122.73 122.86 122.69C123.59 122.64 124.24 123.21 124.28 123.95C124.33 124.72 124.37 125.51 124.41 126.31C124.44 126.88 124.46 127.46 124.47 128.03C124.49 128.77 123.9 129.39 123.16 129.41C123.14 129.4 123.13 129.4 123.12 129.4ZM122.2 117.34C121.53 117.34 120.95 116.84 120.87 116.16C120.71 114.83 120.52 113.5 120.31 112.22C120.19 111.49 120.69 110.8 121.42 110.68C122.16 110.56 122.84 111.06 122.96 111.79C123.17 113.11 123.36 114.47 123.53 115.83C123.62 116.57 123.1 117.24 122.36 117.33C122.31 117.33 122.25 117.34 122.2 117.34ZM66.02 115.57C65.28 115.57 64.68 114.97 64.68 114.23C64.68 113.49 65.28 112.88 66.02 112.88C67.26 112.88 68.56 112.79 69.88 112.62C70.61 112.53 71.29 113.05 71.38 113.79C71.47 114.53 70.95 115.2 70.21 115.29C68.78 115.47 67.37 115.56 66.02 115.57ZM58.1 114.3C57.94 114.3 57.78 114.27 57.63 114.21C56.16 113.66 54.85 112.94 53.75 112.08C53.17 111.62 53.06 110.78 53.52 110.19C53.98 109.61 54.82 109.5 55.41 109.96C56.29 110.65 57.36 111.24 58.57 111.69C59.27 111.95 59.62 112.73 59.36 113.42C59.15 113.97 58.64 114.3 58.1 114.3ZM77.9 113.53C77.33 113.53 76.8 113.17 76.62 112.6C76.39 111.89 76.78 111.14 77.49 110.91C78.71 110.52 79.95 110.07 81.18 109.56C81.87 109.28 82.65 109.61 82.93 110.3C83.21 110.99 82.88 111.77 82.2 112.05C80.91 112.58 79.6 113.06 78.31 113.47C78.18 113.51 78.04 113.53 77.9 113.53ZM88.92 108.57C88.46 108.57 88.01 108.33 87.76 107.9C87.39 107.26 87.6 106.44 88.25 106.06C89.37 105.41 90.5 104.7 91.6 103.97C92.22 103.56 93.05 103.72 93.47 104.34C93.88 104.96 93.72 105.79 93.1 106.21C91.95 106.98 90.78 107.71 89.61 108.39C89.38 108.52 89.15 108.57 88.92 108.57ZM50.96 105.45C50.25 105.45 49.66 104.89 49.62 104.18C49.61 103.97 49.6 103.76 49.6 103.55C49.6 102.35 49.77 101.08 50.12 99.78C50.31 99.06 51.05 98.63 51.76 98.82C52.48 99.01 52.91 99.75 52.72 100.46C52.44 101.54 52.29 102.57 52.29 103.54C52.29 103.71 52.29 103.87 52.3 104.03C52.34 104.77 51.77 105.4 51.03 105.44C51.01 105.45 50.99 105.45 50.96 105.45ZM120.02 105.45C119.42 105.45 118.87 105.04 118.72 104.43C118.39 103.13 118.03 101.85 117.65 100.62C117.43 99.91 117.83 99.16 118.54 98.94C119.25 98.72 120 99.12 120.22 99.83C120.61 101.11 120.99 102.43 121.32 103.78C121.5 104.5 121.06 105.23 120.34 105.41C120.24 105.43 120.13 105.45 120.02 105.45ZM98.76 101.56C98.38 101.56 98 101.4 97.74 101.09C97.26 100.53 97.32 99.68 97.89 99.19C98.88 98.34 99.87 97.45 100.83 96.54C101.37 96.03 102.22 96.05 102.73 96.58C103.24 97.12 103.22 97.97 102.69 98.48C101.7 99.43 100.67 100.35 99.64 101.23C99.38 101.46 99.07 101.56 98.76 101.56ZM54.9 94.23C54.64 94.23 54.38 94.16 54.15 94C53.53 93.58 53.37 92.75 53.79 92.13C54.01 91.81 54.23 91.49 54.46 91.16C55.04 90.36 55.64 89.56 56.27 88.8C56.74 88.22 57.58 88.14 58.16 88.6C58.74 89.07 58.82 89.92 58.36 90.49C57.77 91.22 57.19 91.97 56.65 92.73C56.43 93.03 56.22 93.33 56.02 93.63C55.76 94.02 55.33 94.23 54.9 94.23ZM116.08 94.03C115.57 94.03 115.08 93.74 114.86 93.25C114.3 92.04 113.7 90.87 113.08 89.76C112.71 89.11 112.94 88.29 113.59 87.93C114.24 87.56 115.06 87.79 115.42 88.44C116.08 89.61 116.71 90.85 117.3 92.13C117.61 92.8 117.32 93.6 116.64 93.91C116.46 93.99 116.27 94.03 116.08 94.03ZM107.28 92.99C106.97 92.99 106.66 92.89 106.41 92.67C105.84 92.19 105.78 91.34 106.26 90.77C107.11 89.77 107.95 88.73 108.75 87.69C109.2 87.1 110.05 86.99 110.64 87.44C111.23 87.89 111.34 88.74 110.89 89.33C110.06 90.41 109.19 91.49 108.32 92.52C108.04 92.83 107.66 92.99 107.28 92.99ZM62.88 85.17C62.51 85.17 62.14 85.02 61.87 84.72C61.38 84.17 61.43 83.32 61.98 82.82C63.01 81.9 64.09 81.02 65.19 80.19C65.78 79.74 66.63 79.86 67.07 80.46C67.52 81.05 67.4 81.9 66.8 82.34C65.76 83.12 64.74 83.96 63.76 84.83C63.52 85.06 63.2 85.17 62.88 85.17ZM109.62 83.86C109.25 83.86 108.88 83.71 108.61 83.4C107.74 82.42 106.83 81.5 105.89 80.67C105.33 80.18 105.28 79.33 105.77 78.77C106.26 78.21 107.11 78.16 107.67 78.65C108.7 79.55 109.69 80.55 110.63 81.62C111.12 82.18 111.07 83.03 110.51 83.52C110.26 83.75 109.94 83.86 109.62 83.86ZM114.41 83.24C114.17 83.24 113.92 83.17 113.69 83.03C113.06 82.63 112.87 81.8 113.27 81.18C113.96 80.08 114.65 78.93 115.31 77.77C115.68 77.12 116.5 76.9 117.14 77.27C117.79 77.64 118.01 78.46 117.64 79.1C116.96 80.29 116.25 81.47 115.54 82.61C115.3 83.02 114.86 83.24 114.41 83.24ZM72.84 78.34C72.35 78.34 71.88 78.07 71.64 77.6C71.3 76.94 71.57 76.13 72.23 75.79C73.48 75.16 74.76 74.58 76.03 74.09C76.72 73.82 77.5 74.16 77.77 74.85C78.04 75.54 77.7 76.32 77.01 76.59C75.82 77.06 74.62 77.59 73.45 78.19C73.25 78.29 73.04 78.34 72.84 78.34ZM100.06 76.62C99.87 76.62 99.68 76.58 99.5 76.5C98.34 75.97 97.14 75.53 95.91 75.19C95.19 74.99 94.78 74.25 94.98 73.53C95.18 72.81 95.93 72.4 96.64 72.6C98 72.98 99.33 73.47 100.62 74.06C101.3 74.37 101.59 75.17 101.29 75.84C101.05 76.33 100.57 76.62 100.06 76.62ZM84.29 74.58C83.64 74.58 83.06 74.1 82.96 73.43C82.85 72.7 83.36 72.01 84.09 71.9C85.49 71.69 86.9 71.57 88.28 71.54C89.02 71.51 89.64 72.12 89.65 72.86C89.66 73.6 89.07 74.22 88.33 74.23C87.07 74.25 85.78 74.37 84.49 74.56C84.42 74.58 84.35 74.58 84.29 74.58ZM120.18 72.62C119.99 72.62 119.8 72.58 119.61 72.49C118.94 72.18 118.64 71.38 118.96 70.7C119.51 69.51 120.05 68.28 120.57 67.06C120.86 66.37 121.65 66.05 122.33 66.34C123.02 66.63 123.34 67.41 123.05 68.1C122.53 69.35 121.97 70.61 121.4 71.84C121.17 72.33 120.69 72.62 120.18 72.62ZM124.64 61.38C124.5 61.38 124.35 61.36 124.21 61.31C123.51 61.07 123.13 60.31 123.36 59.61C123.78 58.36 124.18 57.09 124.56 55.81C124.77 55.1 125.52 54.69 126.23 54.9C126.94 55.11 127.35 55.86 127.14 56.57C126.75 57.88 126.34 59.18 125.91 60.46C125.73 61.02 125.2 61.38 124.64 61.38ZM127.9 49.74C127.8 49.74 127.7 49.73 127.6 49.71C126.88 49.54 126.42 48.82 126.59 48.1C126.88 46.82 127.16 45.52 127.42 44.2C127.56 43.47 128.27 43 129 43.14C129.73 43.28 130.2 43.99 130.06 44.72C129.79 46.07 129.51 47.4 129.21 48.7C129.06 49.32 128.51 49.74 127.9 49.74ZM130.07 37.84C130.01 37.84 129.95 37.84 129.88 37.83C129.14 37.73 128.63 37.05 128.73 36.31C128.91 35.01 129.08 33.69 129.23 32.34C129.31 31.6 129.98 31.07 130.72 31.15C131.46 31.23 131.99 31.9 131.91 32.64C131.76 34 131.59 35.35 131.4 36.68C131.31 37.36 130.73 37.84 130.07 37.84Z" fill="#1C184D"/>
</g>
<path opacity="0.1" d="M135.9 18.33L136.46 15.64L138.1 8.24002L147.16 14.26L146.8 20.37L141.37 22.42L135.9 18.33Z" fill="#1C184D"/>
<path opacity="0.1" d="M125.3 17.04L125.04 14.51L124.27 7.01001L114.65 11.92L114.31 17.99L119.12 20.89L125.3 17.04Z" fill="#1C184D"/>
<path d="M128.31 6.89001C127.87 6.87001 127.48 6.57001 127.36 6.12001C126.8 4.10001 125.19 2.55001 123.16 2.06001C122.6 1.93001 122.25 1.36001 122.38 0.800008C122.51 0.240008 123.08 -0.109992 123.64 0.0200076C126.41 0.680008 128.61 2.81001 129.38 5.55001C129.54 6.11001 129.21 6.69001 128.65 6.84001C128.54 6.89001 128.42 6.90001 128.31 6.89001Z" fill="#7E7A99"/>
<path d="M133.02 7.16C133.46 7.18 133.88 6.93 134.05 6.51C134.83 4.57 136.61 3.21 138.68 2.95C139.25 2.88 139.66 2.36 139.59 1.78C139.52 1.21 139 0.799998 138.42 0.869998C135.59 1.22 133.17 3.08 132.1 5.72C131.88 6.26 132.14 6.87 132.68 7.09C132.8 7.13 132.91 7.15 133.02 7.16Z" fill="#7E7A99"/>
<path d="M137.29 19.35L130.39 14.02L122.93 18.54L123.1 15.52L130.56 11L137.46 16.33L137.29 19.35Z" fill="#FFCC00"/>
<path d="M137.46 16.33L130.56 11L123.1 15.52L123.28 12.5L130.85 5.98001L137.63 13.31L137.46 16.33Z" fill="#7E7A99"/>
<path d="M137.63 13.31L130.73 7.98002L123.28 12.5L123.56 7.48002L131.02 2.96002L137.92 8.29002L137.63 13.31Z" fill="#FFCC00"/>
<path d="M131.02 2.95001L130.73 7.98001L137.64 13.3L137.92 8.27001L131.02 2.95001Z" fill="#F89D16"/>
<path d="M130.56 11L130.39 14.02L137.29 19.31L137.46 16.34L130.56 11Z" fill="#F89D16"/>
<path d="M137.11 22.38L130.21 17.05L122.76 21.56L122.93 18.54L130.39 14.02L137.29 19.35L137.11 22.38Z" fill="#7E7A99"/>
<path d="M122.83 21.47L130.22 17.05L137.06 22.27L131.85 25.65L129.55 28.78L127.57 25.38L122.83 21.47Z" fill="#FFCC00"/>
<path d="M127.57 25.38L129.81 24.04L131.85 25.65L129.55 28.78L127.57 25.38Z" fill="#7E7A99"/>
</g>
<defs>
<clipPath id="clip0_1110_4881">
<rect width="147.16" height="285.01" fill="white"/>
</clipPath>
</defs>
</svg>
