<svg width="1666" height="312" viewBox="0 0 1666 312" fill="none" xmlns="http://www.w3.org/2000/svg">
<g clip-path="url(#clip0_1110_14847)">
<g opacity="0.1">
<path d="M1694.79 270.02C1694.79 270.02 1251.16 404.42 1006.68 182.69C762.2 -39.0399 595.08 -24.5999 492.47 53.3601C389.86 131.32 266.97 248.51 48.41 275.1" stroke="#1C184D" stroke-width="2.6891" stroke-miterlimit="10" stroke-linecap="round" stroke-dasharray="4.03 4.03"/>
</g>
<path opacity="0.1" d="M19.22 266.59L16.58 265.82L9.32001 263.63L16.01 255.05L22.08 255.87L23.72 261.44L19.22 266.59Z" fill="#1C184D"/>
<path opacity="0.1" d="M17.14 277.05L14.6 277.12L7.06 277.33L11.23 287.29L17.25 288.09L20.51 283.51L17.14 277.05Z" fill="#1C184D"/>
<path d="M7.25001 273.29C7.19001 273.72 6.87001 274.09 6.41001 274.18C4.36001 274.59 2.69001 276.08 2.05001 278.07C1.87001 278.62 1.28001 278.92 0.73001 278.75C0.18001 278.57 -0.12999 277.98 0.0500101 277.43C0.92001 274.72 3.20001 272.68 6.00001 272.13C6.57001 272.02 7.12001 272.39 7.23001 272.95C7.26001 273.06 7.26001 273.18 7.25001 273.29Z" fill="#7E7A99"/>
<path d="M7.87001 268.61C7.93001 268.18 7.71001 267.74 7.30001 267.53C5.43001 266.6 4.20001 264.73 4.10001 262.64C4.07001 262.06 3.58001 261.61 3.00001 261.64C2.42001 261.67 1.97001 262.16 2.00001 262.74C2.13001 265.59 3.80001 268.14 6.36001 269.41C6.88001 269.67 7.51001 269.45 7.77001 268.94C7.82001 268.83 7.85001 268.72 7.87001 268.61Z" fill="#7E7A99"/>
<path d="M20.35 265.27L14.51 271.75L18.46 279.53L15.45 279.13L11.51 271.35L17.35 264.87L20.35 265.27Z" fill="#FFCC00"/>
<path d="M17.35 264.87L11.51 271.35L15.45 279.13L12.45 278.73L6.53 270.69L14.34 264.48L17.35 264.87Z" fill="#7E7A99"/>
<path d="M14.34 264.48L8.51 270.95L12.45 278.73L7.47 278.07L3.53 270.29L9.36 263.81L14.34 264.48Z" fill="#FFCC00"/>
<path d="M3.52002 270.29L8.51002 270.95L14.33 264.47L9.34002 263.81L3.52002 270.29Z" fill="#F89D16"/>
<path d="M11.51 271.35L14.51 271.75L20.3 265.27L17.36 264.88L11.51 271.35Z" fill="#F89D16"/>
<path d="M23.35 265.68L17.51 272.15L21.46 279.93L18.46 279.53L14.51 271.76L20.35 265.28L23.35 265.68Z" fill="#7E7A99"/>
<path d="M21.36 279.85L17.52 272.15L23.24 265.73L26.22 271.17L29.16 273.7L25.63 275.42L21.36 279.85Z" fill="#FFCC00"/>
<path d="M25.63 275.42L24.46 273.09L26.22 271.17L29.16 273.7L25.63 275.42Z" fill="#7E7A99"/>
</g>
<defs>
<clipPath id="clip0_1110_14847">
<rect width="1696.13" height="311.72" fill="white"/>
</clipPath>
</defs>
</svg>
