<svg width="185" height="283" viewBox="0 0 185 283" fill="none" xmlns="http://www.w3.org/2000/svg">
<g clip-path="url(#clip0_1109_4684)">
<path opacity="0.53" d="M153.87 15.95C89.36 26.97 60.96 83.62 95.03 105.92C129.1 128.22 150.07 93.13 123.55 76.79C56.13 35.24 -43.25 136.73 22.63 282.43" stroke="url(#paint0_linear_1109_4684)" stroke-width="2" stroke-miterlimit="10" stroke-dasharray="4.03 4.03"/>
<path opacity="0.1" d="M166.93 21.58L169.65 21.99L177.14 23.2L171.64 32.59L165.52 32.58L163.16 27.28L166.93 21.58Z" fill="#1C184D"/>
<path opacity="0.1" d="M167.61 10.93L170.12 10.52L177.56 9.32L172.11 0H166.04L163.41 4.98L167.61 10.93Z" fill="#1C184D"/>
<path d="M177.92 13.3501C177.92 12.9101 178.19 12.5101 178.63 12.3601C180.61 11.6801 182.07 9.99006 182.44 7.93006C182.54 7.36006 183.09 6.98006 183.66 7.08006C184.23 7.18006 184.61 7.73006 184.51 8.30006C184.01 11.1101 182.01 13.4201 179.31 14.3401C178.76 14.5301 178.17 14.2301 177.98 13.6901C177.94 13.5801 177.92 13.4601 177.92 13.3501Z" fill="#7E7A99"/>
<path d="M177.92 18.07C177.92 18.51 178.2 18.91 178.63 19.06C180.61 19.73 182.07 21.43 182.45 23.48C182.55 24.05 183.1 24.43 183.67 24.32C184.24 24.22 184.62 23.67 184.51 23.1C184 20.29 182.01 17.98 179.3 17.07C178.75 16.88 178.16 17.18 177.97 17.73C177.94 17.84 177.92 17.96 177.92 18.07Z" fill="#7E7A99"/>
<path d="M165.99 23.03L170.92 15.84L165.98 8.65002H169.01L173.94 15.83L169.02 23.03H165.99Z" fill="#FFCC00"/>
<path d="M169.02 23.03L173.95 15.83L169.01 8.65001L172.03 8.64001L178.97 15.83L172.05 23.02L169.02 23.03Z" fill="#7E7A99"/>
<path d="M172.05 23.02L176.97 15.83L172.03 8.64001H177.06L182 15.83L177.07 23.02H172.05Z" fill="#FFCC00"/>
<path d="M182.01 15.83H176.97L172.06 23.03L177.1 23.02L182.01 15.83Z" fill="#F89D16"/>
<path d="M173.95 15.83L170.92 15.84L166.03 23.03L169.01 23.02L173.95 15.83Z" fill="#F89D16"/>
<path d="M162.96 23.03L167.89 15.83L162.95 8.65001L165.98 8.64001L170.92 15.83L165.99 23.02L162.96 23.03Z" fill="#7E7A99"/>
<path d="M163.05 8.71997L167.89 15.84L163.07 22.96L159.39 17.96L156.14 15.84L159.42 13.68L163.05 8.71997Z" fill="#FFCC00"/>
<path d="M159.42 13.6801L160.88 15.8301L159.39 17.9601L156.14 15.8401L159.42 13.6801Z" fill="#7E7A99"/>
</g>
<defs>
<linearGradient id="paint0_linear_1109_4684" x1="74.2897" y1="-92.7937" x2="74.2897" y2="305.437" gradientUnits="userSpaceOnUse">
<stop stop-color="#7B7AFF"/>
<stop offset="1" stop-color="#4138B1"/>
</linearGradient>
<clipPath id="clip0_1109_4684">
<rect width="184.53" height="282.84" fill="white"/>
</clipPath>
</defs>
</svg>
