<svg width="399" height="362" viewBox="0 0 399 362" fill="none" xmlns="http://www.w3.org/2000/svg">
<g clip-path="url(#clip0_1107_1554)">
<path d="M80.9798 239.6L5.27979 361.9L78.6998 327.69L78.7298 328.08L135.44 356.46L135.83 356.43L204.69 318.35L274.68 346.4L324.32 310.34L324.29 309.95L398.02 333.54L309.8 223.07L268.3 217.19L237.63 229.02L237.4 228.3L203.52 223.34L197.75 222.49L192.43 224.01L157.25 234.09L157.12 234.84L123.39 227.66L80.9798 239.6Z" fill="url(#paint0_linear_1107_1554)"/>
<path d="M0.00976562 330.731L85.0898 215.591L127.5 206.851L75.8798 302.991L0.00976562 330.731Z" fill="#352B98"/>
<path d="M130.57 335.511L161.55 216.091L203.18 206.561L202.55 303.041L130.57 335.511Z" fill="#352B98"/>
<path d="M130.57 335.511L75.8799 302.991L127.5 206.851L161.56 216.881L130.57 335.511Z" fill="#5E59D8"/>
<path d="M393.75 333.32L314.48 217.1L274.16 207.82L321.76 304.61L393.75 333.32Z" fill="#5E59D8"/>
<path d="M269.78 336.43L241.91 216.63L203.19 206.57L201.89 303.04L269.78 336.43Z" fill="#5E59D8"/>
<path d="M269.79 336.421L322.09 304.601L274.34 207.811L241.9 217.401L269.79 336.421Z" fill="#352B98"/>
<g opacity="0.5">
<mask id="mask0_1107_1554" style="mask-type:alpha" maskUnits="userSpaceOnUse" x="18" y="190" width="351" height="115">
<path fill-rule="evenodd" clip-rule="evenodd" d="M18.2197 304.57C24.3197 292.89 40.2997 270.34 55.3997 273.62C74.2797 277.71 96.5497 277.86 106.26 271.12C110.93 267.88 116.29 262.42 121.49 257.12C127.11 251.39 132.54 245.86 136.7 243.53C140.3 241.51 145 241.11 149.61 240.71C155.26 240.22 160.8 239.75 164.06 236.33C168.8 231.37 171.18 218.04 171.78 211.99L89.5597 190.46L44.4597 211.15L18.2197 304.57ZM251.71 208.43C253.22 211.99 255.35 217.03 255.97 222.72C256.24 225.23 253.81 229.31 250.79 234.36C244.96 244.12 236.96 257.5 242.16 270.23C246.87 281.78 266.01 279.45 282.69 277.41C293.91 276.04 304.03 274.81 307.91 278.02C310.38 280.07 312.82 282.52 315.31 285.03C322.57 292.33 330.3 300.12 340.66 299.76C351.8 299.38 363.63 292.54 368.15 289.17L336.22 206.23L256.18 191.54L250.6 205.67C250.88 206.47 251.27 207.39 251.71 208.43Z" fill="#7B9DCB"/>
</mask>
<g mask="url(#mask0_1107_1554)">
<path d="M85.0795 215.611L-0.000488281 331.581L75.8795 303.241V303.631L130.18 336.381H130.57L202.21 303.831L269.78 337.301L322.1 305.251V304.861L393.74 334.171L314.48 217.121L273.57 208.001L242.07 217.381L241.9 216.641L208.52 209.031L202.83 207.731L197.41 208.831L161.55 216.111L161.36 216.851L128.3 207.041L85.0795 215.611Z" fill="#CCD2F6"/>
</g>
</g>
<path d="M208.95 240.65C213.843 240.65 217.81 236.683 217.81 231.79C217.81 226.897 213.843 222.93 208.95 222.93C204.057 222.93 200.09 226.897 200.09 231.79C200.09 236.683 204.057 240.65 208.95 240.65Z" fill="url(#paint1_linear_1107_1554)"/>
<path d="M223.33 37.6804C223.33 37.6804 237.02 55.5604 228.19 80.5104C219.36 105.46 198.83 116.49 181.83 117.16L179.18 126.87L215.83 132.83L249.17 86.2504L255.79 53.8004L233.27 32.1704L223.33 37.6804Z" fill="#F47832"/>
<path d="M207.43 200.3C207.43 200.3 192.86 191.4 191.31 190.13C189.76 188.86 148.04 140.07 148.04 140.07C148.04 140.07 139.43 132.78 137.66 112.92C135.89 93.0602 147.8 60.6002 159.4 44.4802C171 28.3602 195.9 0.550229 219 0.330229C219 0.330229 228.85 -1.65977 237.9 4.08023C246.95 9.82023 251.37 11.8102 251.37 11.8102L210.09 29.0302L165.94 87.3102L182.28 145.37L207.43 200.3Z" fill="#F47832"/>
<path d="M218.269 13.0602C207.759 18.9502 179.329 31.3102 162.259 73.7002C145.189 116.09 153.209 137.57 158.679 144.93C168.039 157.52 208.219 201.63 206.999 200.27C206.999 200.27 266.459 102.55 268.809 49.5602C270.799 4.83017 228.779 7.18017 218.269 13.0602ZM243.639 77.8202C238.319 103.63 219.759 128 195.689 125.7C189.399 125.1 183.759 121.56 180.709 116.03C177.399 110.03 174.979 100.21 178.889 85.1802C186.539 55.7502 217.969 25.3802 236.259 41.4502C236.249 41.4502 249.529 49.2702 243.639 77.8202Z" fill="url(#paint2_linear_1107_1554)"/>
<path d="M214.58 249.01L255.78 264.4L294.67 249.01L316.43 253.72L331.14 276.68L305.53 271.04L258.73 291.39L202.3 272.17L140.91 295.92L94.24 268.79L27.96 293.16" stroke="url(#paint3_linear_1107_1554)" stroke-width="4" stroke-miterlimit="10" stroke-dasharray="4.03 4.03"/>
</g>
<defs>
<linearGradient id="paint0_linear_1107_1554" x1="0.612414" y1="302.676" x2="393.134" y2="271.728" gradientUnits="userSpaceOnUse">
<stop stop-color="#C3C1CB"/>
<stop offset="1" stop-color="#ECECEC"/>
</linearGradient>
<linearGradient id="paint1_linear_1107_1554" x1="205.342" y1="222.93" x2="218.018" y2="250.342" gradientUnits="userSpaceOnUse">
<stop stop-color="#FCCE0B"/>
<stop offset="1" stop-color="#F4871B"/>
</linearGradient>
<linearGradient id="paint2_linear_1107_1554" x1="186.597" y1="9.896" x2="358.399" y2="238.068" gradientUnits="userSpaceOnUse">
<stop stop-color="#FCCE0B"/>
<stop offset="1" stop-color="#F4871B"/>
</linearGradient>
<linearGradient id="paint3_linear_1107_1554" x1="117.816" y1="249.01" x2="124.087" y2="336.646" gradientUnits="userSpaceOnUse">
<stop stop-color="#FCCE0B"/>
<stop offset="1" stop-color="#F4871B"/>
</linearGradient>
<clipPath id="clip0_1107_1554">
<rect width="398.01" height="361.91" fill="white"/>
</clipPath>
</defs>
</svg>
