<svg width="103" height="120" viewBox="0 0 103 120" fill="none" xmlns="http://www.w3.org/2000/svg">
<g clip-path="url(#clip0_1114_8670)">
<path opacity="0.1" d="M15.4399 97.86L12.9999 99.13L6.2399 102.56L5.1499 91.74L10.0999 88.13L15.1299 91.03L15.4399 97.86Z" fill="#1C184D"/>
<path opacity="0.1" d="M21.1599 106.87L19.3699 108.67L14.0599 114.03L23.9599 118.35L28.8699 114.77L28.0599 109.2L21.1599 106.87Z" fill="#1C184D"/>
<path d="M11.3999 110.98C11.6599 111.33 11.6799 111.82 11.4099 112.2C10.2099 113.91 10.0299 116.14 10.9399 118.02C11.1899 118.54 10.9799 119.17 10.4499 119.42C9.92989 119.67 9.29989 119.46 9.04989 118.93C7.79989 116.37 8.04989 113.32 9.68989 110.99C10.0199 110.52 10.6799 110.4 11.1499 110.73C11.2599 110.81 11.3399 110.89 11.3999 110.98Z" fill="#605C98"/>
<path d="M8.61995 107.17C8.35995 106.82 7.89995 106.65 7.45995 106.79C5.45995 107.41 3.27995 106.91 1.76995 105.46C1.34995 105.06 0.689945 105.08 0.289945 105.5C-0.110055 105.92 -0.100055 106.58 0.329946 106.98C2.38995 108.95 5.36995 109.64 8.08995 108.79C8.63995 108.62 8.94995 108.03 8.77995 107.48C8.73995 107.36 8.68995 107.26 8.61995 107.17Z" fill="#605C98"/>
<path d="M15.3399 96.13L15.5999 104.85L23.8199 107.75L21.3799 109.53L13.1499 106.63L12.8899 97.92L15.3399 96.13Z" fill="#FFCB00"/>
<path d="M12.89 97.92L13.15 106.63L21.38 109.53L18.93 111.32L9.08997 109.6L10.45 99.71L12.89 97.92Z" fill="#605C98"/>
<path d="M10.4499 99.71L10.7099 108.42L18.9299 111.32L14.8699 114.28L6.64989 111.38L6.38989 102.67L10.4499 99.71Z" fill="#FFCB00"/>
<path d="M6.64 111.39L10.71 108.42L10.44 99.71L6.37 102.68L6.64 111.39Z" fill="#F7B000"/>
<path d="M13.1499 106.63L15.5999 104.85L15.3099 96.16L12.9099 97.91L13.1499 106.63Z" fill="#F7B000"/>
<path d="M17.79 94.35L18.05 103.07L26.27 105.97L23.83 107.75L15.6 104.85L15.34 96.14L17.79 94.35Z" fill="#605C98"/>
<path d="M26.15 105.97L18.05 103.06L17.74 94.47L23.66 96.34L27.54 96.14L26.16 99.82L26.15 105.97Z" fill="#FFCB00"/>
<path d="M26.1599 99.82L23.7099 98.94L23.6599 96.34L27.5399 96.14L26.1599 99.82Z" fill="#605C98"/>
<g opacity="0.1">
<path d="M33.6399 88.27C49.0599 71.67 70.7599 -2.34002 15.2799 1.48998C-18.0401 3.78998 29.2099 94.08 100.71 94.73" stroke="#1C184D" stroke-width="2.6891" stroke-miterlimit="10" stroke-linecap="round" stroke-dasharray="4.03 4.03"/>
</g>
</g>
<defs>
<clipPath id="clip0_1114_8670">
<rect width="102.06" height="119.53" fill="white"/>
</clipPath>
</defs>
</svg>
