<svg width="701" height="470" viewBox="0 0 701 470" fill="none" xmlns="http://www.w3.org/2000/svg">
<g clip-path="url(#clip0_1110_4955)">
<g opacity="0.1">
<path d="M29.0099 15.68C92.4499 15.68 142.78 195.43 165.42 238.64C234.4 370.29 367.9 621.76 658.3 339.95C673.42 325.27 689.62 311.04 708.94 302.62C719.2 298.15 730.73 295.7 741.89 296.16C761.1 296.96 760.24 326.12 741.02 325.79C736.5 325.71 732.03 324.66 728.09 322.48C712.62 313.94 706.23 294.07 708.72 276.58C711.21 259.09 720.85 243.51 730.97 229.03C770.24 172.87 825.03 121.97 892.76 111.55" stroke="#1C184D" stroke-width="2.6891" stroke-miterlimit="10" stroke-linecap="round" stroke-dasharray="4.03 4.03"/>
</g>
<path opacity="0.1" d="M17.5999 21.58L14.8799 21.99L7.38989 23.2L12.8899 32.59L19.0099 32.58L21.3699 27.28L17.5999 21.58Z" fill="#1C184D"/>
<path opacity="0.1" d="M16.92 10.93L14.41 10.52L6.96997 9.32L12.42 0H18.49L21.12 4.98L16.92 10.93Z" fill="#1C184D"/>
<path d="M6.6099 13.35C6.6099 12.91 6.3399 12.51 5.8999 12.36C3.9199 11.68 2.4599 9.99 2.0899 7.93C1.9899 7.36 1.4399 6.98 0.869898 7.08C0.309898 7.18 -0.0701022 7.73 0.0298978 8.3C0.529898 11.11 2.5299 13.42 5.2299 14.34C5.7799 14.53 6.3699 14.23 6.5599 13.69C6.5999 13.58 6.6099 13.46 6.6099 13.35Z" fill="#7E7A99"/>
<path d="M6.60994 18.07C6.60994 18.51 6.32994 18.91 5.89994 19.06C3.91994 19.73 2.45994 21.43 2.07994 23.48C1.97994 24.05 1.42994 24.43 0.859945 24.32C0.289945 24.22 -0.0900553 23.67 0.0199447 23.1C0.529945 20.29 2.51994 17.98 5.22994 17.07C5.77994 16.88 6.36994 17.18 6.55994 17.73C6.58994 17.84 6.60994 17.96 6.60994 18.07Z" fill="#7E7A99"/>
<path d="M18.54 23.03L13.62 15.84L18.55 8.64999H15.52L10.59 15.83L15.51 23.03H18.54Z" fill="#FFCC00"/>
<path d="M15.5099 23.03L10.5899 15.83L15.5199 8.65L12.4999 8.64L5.55994 15.83L12.4799 23.02L15.5099 23.03Z" fill="#7E7A99"/>
<path d="M12.4799 23.02L7.55991 15.83L12.4999 8.64H7.46991L2.52991 15.83L7.45991 23.02H12.4799Z" fill="#FFCC00"/>
<path d="M2.5199 15.83H7.5599L12.4699 23.03L7.4399 23.02L2.5199 15.83Z" fill="#F89D16"/>
<path d="M10.59 15.83L13.62 15.84L18.5 23.03L15.52 23.02L10.59 15.83Z" fill="#F89D16"/>
<path d="M21.57 23.03L16.64 15.83L21.58 8.65L18.55 8.64L13.62 15.83L18.54 23.02L21.57 23.03Z" fill="#7E7A99"/>
<path d="M21.4799 8.72L16.6399 15.84L21.4599 22.96L25.1399 17.96L28.3899 15.84L25.1099 13.68L21.4799 8.72Z" fill="#FFCC00"/>
<path d="M25.1099 13.68L23.6499 15.83L25.1399 17.96L28.3899 15.84L25.1099 13.68Z" fill="#7E7A99"/>
</g>
<defs>
<clipPath id="clip0_1110_4955">
<rect width="894.11" height="469.54" fill="white"/>
</clipPath>
</defs>
</svg>
