<svg width="467" height="384" viewBox="0 0 467 384" fill="none" xmlns="http://www.w3.org/2000/svg">
<g clip-path="url(#clip0_1107_1570)">
<path d="M118.8 11.4098C126.83 2.34978 139.08 -1.73022 150.94 0.689785L313.83 33.9998C325.69 36.4198 335.35 44.9898 339.18 56.4698L391.8 214.21C395.63 225.69 393.04 238.35 385.02 247.41L274.75 371.84C266.72 380.9 254.47 384.98 242.61 382.56L79.7199 349.25C67.8599 346.82 58.1999 338.26 54.3699 326.78L1.7399 169.04C-2.0901 157.56 0.489898 144.9 8.5199 135.85L118.8 11.4098Z" fill="#F2F3F9"/>
<path d="M259.88 104.4C167.87 104.4 93.2901 152.91 93.2901 212.74C93.2901 235.32 103.91 256.28 122.08 273.64C120.57 273.55 119.04 273.49 117.49 273.49C117.46 273.49 117.42 273.49 117.39 273.49C116.76 273.49 116.13 273.5 115.5 273.51H115.51C94.1001 274.03 77.0601 282.92 77.0601 293.8C77.0601 304.69 94.1001 313.57 115.51 314.09H115.5C116.12 314.11 116.75 314.11 117.38 314.11C117.42 314.11 117.45 314.11 117.49 314.11C136.97 314.11 153.22 307.19 157.06 297.97C185.38 312.44 221.08 321.06 259.88 321.06C351.89 321.06 426.47 272.55 426.47 212.72C426.48 152.91 351.89 104.4 259.88 104.4ZM117.39 310.85C99.0501 310.85 84.1901 303.34 84.1901 294.07C84.1901 284.8 99.0501 277.29 117.39 277.29C120.7 277.29 123.89 277.55 126.91 278C128.61 279.46 130.36 280.89 132.17 282.29L129.96 283.22C129.96 283.22 128.07 283.97 126.19 285.91C124.3 287.85 122.84 286.21 120.95 288.15C119.06 290.09 118.02 294.42 122.84 297.56C127.66 300.7 130.8 301.29 133.31 299.65C135.82 298.01 134.78 297.11 136.87 297.56C138.96 298.01 141.69 297.56 141.69 297.56L149.55 294.07L149.72 294C150.01 294.17 150.29 294.33 150.58 294.5C150.11 303.57 135.44 310.85 117.39 310.85Z" fill="url(#paint0_linear_1107_1570)"/>
<path d="M464.32 158.77C454.78 220.44 386.22 271.76 289.89 271.76C193.56 271.76 125.99 220.28 115.46 158.77C103.35 88.0798 193.56 45.7798 289.89 45.7798C386.22 45.7798 474.63 92.1098 464.32 158.77Z" fill="url(#paint1_linear_1107_1570)"/>
<path d="M394.5 161.609C368.42 154.859 336.09 150.959 299.34 150.959C269.29 150.959 148.23 172.679 122.64 179.289L115.47 161.599L118.05 230.439C133.1 258.149 199.68 301.539 297.99 301.539C396.3 301.539 464.33 250.179 464.33 214.519V161.609H394.5Z" fill="url(#paint2_linear_1107_1570)"/>
<path opacity="0.88" d="M394.5 161.609C368.42 154.859 336.09 150.959 299.34 150.959C269.29 150.959 148.23 172.679 122.64 179.289L115.47 161.599L118.05 230.439C129.95 254.889 184.86 301.929 283.17 301.929C381.48 301.929 464.33 250.169 464.33 214.509V161.599H394.5V161.609Z" fill="url(#paint3_linear_1107_1570)"/>
<path d="M289.22 243.659C382.954 243.659 458.94 204.874 458.94 157.029C458.94 109.185 382.954 70.3994 289.22 70.3994C195.486 70.3994 119.5 109.185 119.5 157.029C119.5 204.874 195.486 243.659 289.22 243.659Z" fill="url(#paint4_radial_1107_1570)"/>
<path opacity="0.75" d="M155.77 162.359C155.77 115.229 207.54 71.8194 298.68 70.5294C295.55 70.4394 292.4 70.3994 289.22 70.3994C195.49 70.3994 119.5 109.189 119.5 157.029C119.5 193.719 164.18 225.079 227.27 237.709C183.06 221.289 155.77 192.979 155.77 162.359Z" fill="url(#paint5_linear_1107_1570)"/>
<path d="M289.02 47.3896C312.69 47.3896 335.64 50.0596 357.23 55.3196C378.03 60.3896 396.69 67.6396 412.69 76.8596C428.55 85.9996 440.98 96.6096 449.62 108.39C458.42 120.37 462.88 133.06 462.88 146.09C462.88 159.12 458.42 171.81 449.62 183.79C440.98 195.57 428.55 206.17 412.69 215.32C396.69 224.54 378.03 231.79 357.23 236.86C335.63 242.12 312.68 244.79 289.02 244.79C265.36 244.79 242.4 242.12 220.81 236.86C200.01 231.79 181.35 224.54 165.35 215.32C149.49 206.18 137.06 195.57 128.42 183.79C119.62 171.81 115.16 159.12 115.16 146.09C115.16 133.06 119.62 120.37 128.42 108.39C137.06 96.6096 149.49 86.0096 165.35 76.8596C181.35 67.6396 200.01 60.3896 220.81 55.3196C242.4 50.0596 265.35 47.3896 289.02 47.3896ZM289.02 43.8496C191.05 43.8496 111.62 89.6196 111.62 146.09C111.62 202.55 191.04 248.33 289.02 248.33C386.99 248.33 466.42 202.56 466.42 146.09C466.42 89.6296 386.99 43.8496 289.02 43.8496Z" fill="white"/>
<g opacity="0.56">
<path d="M305.52 113.199L301.98 138.899L301.89 139.539L302.52 139.389L360.65 125.189L319.43 148.739L318.23 149.429L319.61 149.569L373.75 154.959L311.87 157.959L310.85 158.009L311.58 158.719L338.48 184.789L290.86 160.699L290.5 160.519L290.29 160.859L269.01 194.619L273.76 164.149L273.86 163.499L273.22 163.649L202.56 180.329L258.24 153.969L259.68 153.289L258.09 153.129L207.16 148.049H267.03H268.16L267.33 147.279L238.58 120.829L288.88 136.309L289.19 136.399L289.37 136.139L305.52 113.199ZM306.21 111.459L289.02 135.879L236.86 119.829L267.05 147.599H198.29L258.06 153.559L198.59 181.709L273.32 164.069L268.24 196.649L290.66 161.079L340.88 186.489L311.88 158.389L379.74 155.099L319.65 149.119L363.59 124.009L302.4 138.959L306.21 111.459Z" fill="white"/>
</g>
<path d="M365.78 91.3794L315.5 148.279L381.78 175.529L298.37 162.859L221.24 200.799L266.19 156.049L206 133.529L286.72 146.089L365.78 91.3794Z" fill="#F2F3F9"/>
<path d="M385.49 135.559L302.65 156.399L309.14 200.799L279.44 167.729H192.55L270.6 148.289V112.009L294.76 140.519L385.49 135.559Z" fill="#F2F3F9"/>
<path d="M365.78 91.3794L306.18 146.089L377.78 175.529L307.6 159.819L217.24 200.799L272.46 159.899L202 133.529L268.63 150.959L365.78 91.3794Z" fill="white"/>
<path d="M385.49 135.559L302.65 156.399L309.14 200.799L289.89 167.029L192.55 167.729L279.44 146.089L270.6 112.009L291.31 136.449L385.49 135.559Z" fill="white"/>
<path d="M281.14 136.58L372.45 86.2397L293.19 147.3L281.14 136.58Z" fill="#E94561"/>
<path d="M372.449 86.2397L293.329 152.27L293.189 147.3L372.449 86.2397Z" fill="#C50003"/>
<path d="M290.1 155.93H279.37V161.98H290.1V155.93Z" fill="#352B98"/>
<path d="M290.1 160.03L289.04 159.88C285.46 159.39 282.06 158.06 279.12 156.02H290.09V160.03H290.1Z" fill="#1C184D"/>
<path d="M297.98 141.919H268.27L267.96 151.629C267.96 151.679 267.95 151.729 267.95 151.779C267.95 151.799 267.95 151.819 267.96 151.839L267.95 151.999H267.97C268.34 154.559 274.91 156.599 282.97 156.599C296.16 156.599 297.46 151.659 297.7 150.849L297.98 141.919Z" fill="#352B98"/>
<path d="M283.16 150.1C289.29 150.1 294.26 146.863 294.26 142.87C294.26 138.877 289.29 135.64 283.16 135.64C277.029 135.64 272.06 138.877 272.06 142.87C272.06 146.863 277.029 150.1 283.16 150.1Z" fill="#352B98"/>
<path d="M283.95 149.65C289.334 149.65 293.7 147.568 293.7 145C293.7 142.431 289.334 140.35 283.95 140.35C278.565 140.35 274.2 142.431 274.2 145C274.2 147.568 278.565 149.65 283.95 149.65Z" fill="#1C184D"/>
<path d="M283.13 134.41C274.93 134.41 268.28 137.82 268.28 142.03C268.28 146.24 274.93 149.65 283.13 149.65C291.33 149.65 297.98 146.24 297.98 142.03C297.98 137.82 291.33 134.41 283.13 134.41ZM283.13 147.3C277.5 147.3 272.93 144.89 272.93 141.92C272.93 138.95 277.5 136.54 283.13 136.54C288.76 136.54 293.33 138.95 293.33 141.92C293.33 144.89 288.76 147.3 283.13 147.3Z" fill="#F2F3F9"/>
<path d="M268.36 146.15C268.36 146.15 268.58 150.63 281.14 153.55L185.41 196.15L268.36 146.15Z" fill="#F47832"/>
<path d="M281.14 153.55V156.69L185.41 196.14L281.14 153.55Z" fill="#F47832"/>
<path d="M290.57 73.0195V80.9595" stroke="white" stroke-width="3"/>
<path d="M181.54 92.3096L192.04 98.3896" stroke="white" stroke-width="3"/>
<path d="M123.53 141.16L139.61 142.54" stroke="white" stroke-width="3"/>
<path d="M143.68 196.71L157.82 192.74" stroke="white" stroke-width="3"/>
<path d="M232.56 232.96L238.14 225.51" stroke="white" stroke-width="3"/>
<path d="M348.58 232.96L343 225.51" stroke="white" stroke-width="3"/>
<path d="M437.46 196.71L423.32 192.74" stroke="white" stroke-width="3"/>
<path d="M457.61 141.16L441.53 142.54" stroke="white" stroke-width="3"/>
<path d="M399.6 92.3096L389.1 98.3896" stroke="white" stroke-width="3"/>
<path d="M289.71 70.6294V80.0394" stroke="white" stroke-width="0.75"/>
<path d="M302.09 70.9092L299.62 80.2392" stroke="white" stroke-width="0.75"/>
<path d="M317.71 71.9492L313.6 81.1192" stroke="white" stroke-width="0.75"/>
<path d="M333.09 73.7495L327.36 82.6795" stroke="white" stroke-width="0.75"/>
<path d="M348.07 76.2896L340.78 84.8996" stroke="white" stroke-width="0.75"/>
<path d="M362.54 79.5396L353.75 87.7596" stroke="white" stroke-width="0.75"/>
<path d="M376.37 83.4795L366.15 91.2395" stroke="white" stroke-width="0.75"/>
<path d="M389.43 88.0796L377.88 95.3096" stroke="white" stroke-width="0.75"/>
<path d="M401.62 93.2993L388.83 99.9293" stroke="white" stroke-width="0.75"/>
<path d="M412.83 99.0796L398.91 105.06" stroke="white" stroke-width="0.75"/>
<path d="M422.96 105.379L408.03 110.659" stroke="white" stroke-width="0.75"/>
<path d="M431.92 112.149L416.12 116.679" stroke="white" stroke-width="0.75"/>
<path d="M439.64 119.33L423.1 123.07" stroke="white" stroke-width="0.75"/>
<path d="M446.04 126.85L428.91 129.77" stroke="white" stroke-width="0.75"/>
<path d="M451.08 134.649L433.5 136.719" stroke="white" stroke-width="0.75"/>
<path d="M454.71 142.659L436.83 143.869" stroke="white" stroke-width="0.75"/>
<path d="M456.89 150.81L438.88 151.14" stroke="white" stroke-width="0.75"/>
<path d="M457.61 159.029L439.62 158.489" stroke="white" stroke-width="0.75"/>
<path d="M456.87 167.249L439.05 165.839" stroke="white" stroke-width="0.75"/>
<path d="M454.66 175.4L437.17 173.12" stroke="white" stroke-width="0.75"/>
<path d="M451.01 183.4L434 180.29" stroke="white" stroke-width="0.75"/>
<path d="M445.95 191.2L429.57 187.27" stroke="white" stroke-width="0.75"/>
<path d="M439.53 198.709L423.92 194.009" stroke="white" stroke-width="0.75"/>
<path d="M431.79 205.879L417.09 200.439" stroke="white" stroke-width="0.75"/>
<path d="M422.81 212.649L409.14 206.509" stroke="white" stroke-width="0.75"/>
<path d="M412.67 218.939L400.15 212.169" stroke="white" stroke-width="0.75"/>
<path d="M401.44 224.719L390.19 217.359" stroke="white" stroke-width="0.75"/>
<path d="M389.24 229.919L379.34 222.049" stroke="white" stroke-width="0.75"/>
<path d="M376.16 234.509L367.71 226.189" stroke="white" stroke-width="0.75"/>
<path d="M362.32 238.44L355.39 229.75" stroke="white" stroke-width="0.75"/>
<path d="M347.84 241.689L342.49 232.699" stroke="white" stroke-width="0.75"/>
<path d="M332.85 244.21L329.12 235" stroke="white" stroke-width="0.75"/>
<path d="M317.47 246L315.4 236.64" stroke="white" stroke-width="0.75"/>
<path d="M301.84 247.029L301.44 237.609" stroke="white" stroke-width="0.75"/>
<path d="M286.1 247.289L287.38 237.899" stroke="white" stroke-width="0.75"/>
<path d="M270.37 246.79L273.32 237.5" stroke="white" stroke-width="0.75"/>
<path d="M254.81 245.529L259.4 236.419" stroke="white" stroke-width="0.75"/>
<path d="M239.53 243.509L245.72 234.669" stroke="white" stroke-width="0.75"/>
<path d="M224.68 240.769L232.42 232.259" stroke="white" stroke-width="0.75"/>
<path d="M210.39 237.309L219.61 229.219" stroke="white" stroke-width="0.75"/>
<path d="M196.77 233.17L207.39 225.56" stroke="white" stroke-width="0.75"/>
<path d="M183.95 228.38L195.88 221.33" stroke="white" stroke-width="0.75"/>
<path d="M172.04 222.999L185.18 216.549" stroke="white" stroke-width="0.75"/>
<path d="M161.14 217.059L175.37 211.279" stroke="white" stroke-width="0.75"/>
<path d="M151.34 210.609L166.54 205.549" stroke="white" stroke-width="0.75"/>
<path d="M142.74 203.719L158.77 199.419" stroke="white" stroke-width="0.75"/>
<path d="M135.4 196.439L152.13 192.929" stroke="white" stroke-width="0.75"/>
<path d="M129.39 188.829L146.67 186.149" stroke="white" stroke-width="0.75"/>
<path d="M124.76 180.959L142.44 179.139" stroke="white" stroke-width="0.75"/>
<path d="M121.55 172.899L139.48 171.949" stroke="white" stroke-width="0.75"/>
<path d="M119.79 164.719L137.81 164.639" stroke="white" stroke-width="0.75"/>
<path d="M119.5 156.5L137.46 157.29" stroke="white" stroke-width="0.75"/>
<path d="M120.67 148.29L138.41 149.95" stroke="white" stroke-width="0.75"/>
<path d="M123.3 140.169L140.67 142.689" stroke="white" stroke-width="0.75"/>
<path d="M127.36 132.219L144.21 135.579" stroke="white" stroke-width="0.75"/>
<path d="M132.83 124.5L149 128.66" stroke="white" stroke-width="0.75"/>
<path d="M139.64 117.08L155 122.01" stroke="white" stroke-width="0.75"/>
<path d="M147.75 110.029L162.16 115.679" stroke="white" stroke-width="0.75"/>
<path d="M157.08 103.389L170.42 109.719" stroke="white" stroke-width="0.75"/>
<path d="M167.55 97.2393L179.71 104.189" stroke="white" stroke-width="0.75"/>
<path d="M179.07 91.6294L189.94 99.1394" stroke="white" stroke-width="0.75"/>
<path d="M191.54 86.5996L201.02 94.6096" stroke="white" stroke-width="0.75"/>
<path d="M204.85 82.1992L212.87 90.6292" stroke="white" stroke-width="0.75"/>
<path d="M218.89 78.4595L225.37 87.2495" stroke="white" stroke-width="0.75"/>
<path d="M233.53 75.4292L238.42 84.4892" stroke="white" stroke-width="0.75"/>
<path d="M248.65 73.1196L251.9 82.3796" stroke="white" stroke-width="0.75"/>
<path d="M264.12 71.5493L265.7 80.9293" stroke="white" stroke-width="0.75"/>
<path d="M279.79 70.7393L279.7 80.1593" stroke="white" stroke-width="0.75"/>
<path d="M115.2 220.879C87.8399 220.879 65.6499 236.509 65.6499 255.789C65.6499 275.069 87.8299 290.699 115.2 290.699C142.56 290.699 164.75 275.069 164.75 255.789C164.75 236.509 142.56 220.879 115.2 220.879ZM115.07 285.049C92.5999 285.049 74.3799 272.139 74.3799 256.219C74.3799 240.299 92.5999 227.389 115.07 227.389C137.54 227.389 155.76 240.299 155.76 256.219C155.76 272.149 137.54 285.049 115.07 285.049Z" fill="#E94561"/>
<path d="M115.2 220.879C114.38 220.879 113.57 220.889 112.76 220.919C138.99 221.819 159.87 237.079 159.87 255.789C159.87 274.499 138.99 289.759 112.76 290.659C113.57 290.689 114.38 290.699 115.2 290.699C142.56 290.699 164.75 275.069 164.75 255.789C164.75 236.509 142.56 220.879 115.2 220.879Z" fill="#C50003"/>
<path d="M130.47 237.599C130.47 237.599 128.16 238.879 125.85 242.219C123.54 245.559 121.74 242.729 119.43 246.069C117.12 249.409 117.21 255.789 120.72 260.989C124.57 266.689 131.5 268.659 134.58 265.839C137.66 263.019 136.38 261.479 138.94 262.249C141.51 263.019 144.84 262.249 144.84 262.249L154.47 256.239L151.52 238.879L138.78 232.709L130.47 237.599Z" fill="#F47832"/>
<path d="M147.93 227.329L130.47 237.599C130.47 237.599 139.11 237.129 143.73 245.349C148.35 253.559 148.69 257.109 144.84 262.249L162.3 251.359C162.3 251.359 168.72 245.559 160.76 234.519C152.8 223.479 147.93 227.329 147.93 227.329Z" fill="url(#paint6_radial_1107_1570)"/>
<path d="M123.21 244.059C125.49 243.529 127.94 243.679 130.25 244.409C132.56 245.129 134.72 246.609 136.21 248.619C137.64 250.629 138.65 252.909 138.9 255.359C139.16 257.779 138.69 260.319 137.31 262.239C137.87 259.979 137.79 257.729 137.3 255.629C136.83 253.529 135.81 251.549 134.62 249.799C133.38 248.079 131.67 246.759 129.7 245.809C127.72 244.889 125.52 244.319 123.21 244.059Z" fill="#C50003"/>
</g>
<defs>
<linearGradient id="paint0_linear_1107_1570" x1="72.9076" y1="232.389" x2="423.525" y2="215.962" gradientUnits="userSpaceOnUse">
<stop stop-color="#C3C1CB"/>
<stop offset="1" stop-color="#ECECEC"/>
</linearGradient>
<linearGradient id="paint1_linear_1107_1570" x1="292.648" y1="258.179" x2="288.613" y2="103.479" gradientUnits="userSpaceOnUse">
<stop stop-color="#7B7AFF" stop-opacity="0"/>
<stop offset="1" stop-color="#2E2C65"/>
</linearGradient>
<linearGradient id="paint2_linear_1107_1570" x1="282.723" y1="89.5116" x2="282.723" y2="314.54" gradientUnits="userSpaceOnUse">
<stop stop-color="#7B7AFF"/>
<stop offset="1" stop-color="#4138B1"/>
</linearGradient>
<linearGradient id="paint3_linear_1107_1570" x1="430.628" y1="229.015" x2="212.703" y2="224.979" gradientUnits="userSpaceOnUse">
<stop stop-color="#7B7AFF" stop-opacity="0"/>
<stop offset="1" stop-color="#2E2C65"/>
</linearGradient>
<radialGradient id="paint4_radial_1107_1570" cx="0" cy="0" r="1" gradientUnits="userSpaceOnUse" gradientTransform="translate(240.777 112.758) rotate(40.0677) scale(345.261 169.822)">
<stop stop-color="#FCCE0B"/>
<stop offset="0.1896" stop-color="#FCCA0C"/>
<stop offset="0.3753" stop-color="#FABE0F"/>
<stop offset="0.5593" stop-color="#F8AB13"/>
<stop offset="0.7414" stop-color="#F58F19"/>
<stop offset="0.7877" stop-color="#F4871B"/>
</radialGradient>
<linearGradient id="paint5_linear_1107_1570" x1="64.4293" y1="153.003" x2="320.673" y2="153.003" gradientUnits="userSpaceOnUse">
<stop offset="0.00520833" stop-color="#FCCE0B" stop-opacity="0"/>
<stop offset="0.338542" stop-color="#F8A513" stop-opacity="0.4078"/>
<stop offset="0.575553" stop-color="#F58419" stop-opacity="0.7899"/>
<stop offset="0.890625" stop-color="#F4781B"/>
</linearGradient>
<radialGradient id="paint6_radial_1107_1570" cx="0" cy="0" r="1" gradientUnits="userSpaceOnUse" gradientTransform="translate(142.716 235.375) rotate(59.6818) scale(52.8545 22.9974)">
<stop stop-color="#FCCE0B"/>
<stop offset="0.1896" stop-color="#FCCA0C"/>
<stop offset="0.3753" stop-color="#FABE0F"/>
<stop offset="0.5593" stop-color="#F8AB13"/>
<stop offset="0.7414" stop-color="#F58F19"/>
<stop offset="0.7877" stop-color="#F4871B"/>
</radialGradient>
<clipPath id="clip0_1107_1570">
<rect width="466.42" height="383.25" fill="white"/>
</clipPath>
</defs>
</svg>
