<svg width="208" height="188" viewBox="0 0 208 188" fill="none" xmlns="http://www.w3.org/2000/svg">
<g opacity="0.35">
<path d="M222.273 59.4595C222.273 59.4595 189.45 115.123 136.495 80.3362C83.5413 45.5497 66.9105 58.5095 64.8435 81.7577C62.7764 105.006 63.1087 138.121 42.2671 156.775" stroke="url(#paint0_linear_1203_15121)" stroke-miterlimit="10" stroke-linecap="round" stroke-dasharray="4.03 4.03"/>
</g>
<path opacity="0.1" d="M23.0962 158.884L20.4262 159.542L13.0473 161.291L14.5294 150.512L20.1915 148.176L24.4048 152.171L23.0962 158.884Z" fill="#1C184D"/>
<path opacity="0.1" d="M26.5451 168.975L24.3831 170.31L17.9662 174.275L26.5706 180.799L32.1794 178.47L32.7014 172.873L26.5451 168.975Z" fill="#1C184D"/>
<path d="M16.1035 170.685C16.2673 171.087 16.1762 171.568 15.8234 171.877C14.2558 173.26 13.5588 175.387 14.0037 177.429C14.1239 177.995 13.7641 178.551 13.203 178.68C12.6369 178.8 12.0728 178.445 11.9525 177.879C11.3454 175.098 12.2941 172.19 14.4402 170.309C14.8781 169.928 15.5395 169.972 15.9156 170.401C15.9967 170.481 16.0569 170.585 16.1035 170.685Z" fill="#7E7A99"/>
<path d="M14.2918 166.326C14.1279 165.924 13.7169 165.653 13.2568 165.677C11.1726 165.811 9.17043 164.811 8.0353 163.053C7.71835 162.566 7.06871 162.423 6.58205 162.74C6.09539 163.057 5.95196 163.707 6.26892 164.193C7.81132 166.593 10.5353 167.961 13.387 167.775C13.9673 167.739 14.4018 167.233 14.3709 166.661C14.3589 166.541 14.3297 166.431 14.2918 166.326Z" fill="#7E7A99"/>
<path d="M23.4114 157.175L21.611 165.711L28.9313 170.459L26.1269 171.623L18.8152 166.87L20.6157 158.334L23.4114 157.175Z" fill="#FFCC00"/>
<path d="M20.6158 158.334L18.8153 166.87L26.1269 171.623L23.3312 172.782L14.1763 168.797L17.8164 159.507L20.6158 158.334Z" fill="#7E7A99"/>
<path d="M17.8162 159.507L16.0193 168.029L23.331 172.782L18.6921 174.71L11.3804 169.957L13.1722 161.426L17.8162 159.507Z" fill="#FFCC00"/>
<path d="M11.3718 169.962L16.0195 168.029L17.8026 159.503L13.155 161.436L11.3718 169.962Z" fill="#F89D16"/>
<path d="M18.8153 166.87L21.6111 165.71L23.3683 157.2L20.6295 158.338L18.8153 166.87Z" fill="#F89D16"/>
<path d="M26.2122 156.024L24.4067 164.551L31.7271 169.299L28.9313 170.458L21.616 165.719L23.4165 157.184L26.2122 156.024Z" fill="#7E7A99"/>
<path d="M31.6005 169.28L24.4155 164.546L26.1423 156.123L31.4495 159.334L35.262 160.047L33.0715 163.306L31.6005 169.28Z" fill="#FFCC00"/>
<path d="M33.0714 163.306L30.8903 161.877L31.4494 159.334L35.262 160.047L33.0714 163.306Z" fill="#7E7A99"/>
<defs>
<linearGradient id="paint0_linear_1203_15121" x1="81.7227" y1="22.166" x2="136.157" y2="124.37" gradientUnits="userSpaceOnUse">
<stop stop-color="#7B7AFF"/>
<stop offset="1" stop-color="#4138B1"/>
</linearGradient>
</defs>
</svg>
