<svg width="78" height="70" viewBox="0 0 78 70" fill="none" xmlns="http://www.w3.org/2000/svg">
<g clip-path="url(#clip0_1110_14818)">
<path d="M0.884674 38.2893C-0.294891 36.2562 -0.294891 33.7533 0.884674 31.7202L17.0821 3.76543C18.2617 1.73236 20.4482 0.476074 22.8073 0.476074H55.2022C57.5614 0.476074 59.7383 1.73236 60.9179 3.76543L77.1153 31.7202C78.2949 33.7533 78.2949 36.2562 77.1153 38.2893L60.9179 66.2345C59.7383 68.2675 57.5614 69.5238 55.2022 69.5238H22.8073C20.4482 69.5238 18.2713 68.2675 17.0917 66.2345L0.884674 38.2893Z" fill="#EBEAF5"/>
<path d="M39.6377 19.6558C37.2114 19.6558 34.8235 20.2312 32.6658 21.334C30.508 22.4369 28.638 24.0288 27.2187 26.0043C25.7994 27.9607 24.8596 30.2335 24.4855 32.631C24.1115 35.0189 24.3033 37.4739 25.0609 39.7755C25.8185 42.0771 27.1036 44.1773 28.8202 45.8843C30.5368 47.5817 32.637 48.8668 34.9482 49.6052C37.2594 50.3437 39.7048 50.5355 42.1023 50.1519C44.4902 49.7587 46.763 48.8093 48.7194 47.3804L46.4466 44.2828C44.356 45.8172 41.8146 46.594 39.2349 46.4981C36.6456 46.4118 34.1714 45.4528 32.1959 43.7745C30.2203 42.0963 28.8777 39.8139 28.3599 37.2821C27.8516 34.7408 28.2065 32.1035 29.3764 29.8019C30.5464 27.5004 32.4644 25.6495 34.8043 24.5562C37.1539 23.4726 39.8007 23.2136 42.3133 23.8178C44.8259 24.422 47.0699 25.8509 48.6714 27.884C50.273 29.9074 51.1457 32.42 51.1457 35.0093V36.9273C51.1457 37.4356 50.9443 37.9246 50.5798 38.2795C50.225 38.6343 49.7359 38.8357 49.2277 38.8357C48.7194 38.8357 48.2303 38.6343 47.8755 38.2699C47.5111 37.9151 47.3097 37.426 47.3097 36.9177V34.9997C47.3193 33.2256 46.7151 31.509 45.6026 30.128C44.4902 28.7566 42.9366 27.7976 41.2009 27.4332C39.4651 27.0784 37.6622 27.3181 36.0894 28.1237C34.5167 28.9293 33.27 30.2623 32.5507 31.883C31.841 33.5037 31.7068 35.3258 32.1863 37.0328C32.6562 38.7302 33.7015 40.2262 35.1496 41.2524C36.5977 42.2785 38.343 42.7772 40.1172 42.6621C41.8817 42.547 43.56 41.8182 44.8546 40.6194C45.6122 41.5305 46.6288 42.1826 47.7604 42.4895C48.9016 42.7964 50.1099 42.7484 51.2128 42.336C52.3156 41.9237 53.2746 41.1948 53.9555 40.2262C54.6268 39.2577 54.9912 38.1069 54.9816 36.9273V35.0093C54.9816 30.9432 53.3609 27.04 50.4839 24.163C47.607 21.2765 43.7134 19.6558 39.6377 19.6558ZM39.6377 38.8357C38.8801 38.8357 38.1417 38.6055 37.5087 38.1836C36.8758 37.7616 36.3867 37.1766 36.099 36.467C35.8113 35.7669 35.7346 34.9997 35.8784 34.2421C36.0223 33.5037 36.3867 32.8228 36.9237 32.2857C37.4608 31.7487 38.1417 31.3747 38.8897 31.2404C39.6377 31.087 40.4049 31.1637 41.105 31.461C41.805 31.7583 42.4092 32.2378 42.8312 32.8707C43.2531 33.5133 43.4737 34.2517 43.4737 35.0093C43.4737 36.0354 43.0709 37.004 42.3517 37.7233C41.6324 38.4233 40.6638 38.8357 39.6377 38.8357Z" fill="#5E59D8"/>
</g>
<defs>
<clipPath id="clip0_1110_14818">
<rect width="78" height="69.0478" fill="white" transform="translate(0 0.476074)"/>
</clipPath>
</defs>
</svg>
